CascadiaLiga.glyphspackage
{
color = 10;
glyphname = copyright;
layers = (
{
layerId = master01;
paths = (
{
closed = 1;
nodes = (
"950 15 OFFCURVE",
"1150 263 OFFCURVE",
"1150 695 CURVE SMOOTH",
"1150 1146 OFFCURVE",
"950 1405 OFFCURVE",
"600 1405 CURVE SMOOTH",
"250 1405 OFFCURVE",
"50 1146 OFFCURVE",
"50 695 CURVE SMOOTH",
"50 263 OFFCURVE",
"250 15 OFFCURVE",
"600 15 CURVE SMOOTH"
);
},
{
closed = 1;
nodes = (
"725 414 OFFCURVE",
"802 420 OFFCURVE",
"872 444 CURVE",
"848 532 LINE",
"793 516 OFFCURVE",
"735 506 OFFCURVE",
"676 506 CURVE SMOOTH",
"517 506 OFFCURVE",
"429 582 OFFCURVE",
"429 722 CURVE SMOOTH",
"429 845 OFFCURVE",
"504 914 OFFCURVE",
"636 914 CURVE SMOOTH",
"707 914 OFFCURVE",
"770 882 OFFCURVE",
"807 828 CURVE",
"877 890 LINE",
"842 963 OFFCURVE",
"757 1006 OFFCURVE",
"644 1006 CURVE SMOOTH",
"445 1006 OFFCURVE",
"333 898 OFFCURVE",
"333 712 CURVE SMOOTH",
"333 520 OFFCURVE",
"449 414 OFFCURVE",
"652 414 CURVE SMOOTH"
);
},
{
closed = 1;
nodes = (
"309 105 OFFCURVE",
"142 320 OFFCURVE",
"142 695 CURVE SMOOTH",
"142 1087 OFFCURVE",
"309 1313 OFFCURVE",
"600 1313 CURVE SMOOTH",
"891 1313 OFFCURVE",
"1058 1087 OFFCURVE",
"1058 695 CURVE SMOOTH",
"1058 320 OFFCURVE",
"891 105 OFFCURVE",
"600 105 CURVE SMOOTH"
);
}
);
width = 1200;
},
{
layerId = "1F90C004-9C90-48FA-B407-176B3E9F1E65";
paths = (
{
closed = 1;
nodes = (
"965 15 OFFCURVE",
"1174 263 OFFCURVE",
"1174 695 CURVE SMOOTH",
"1174 1146 OFFCURVE",
"965 1405 OFFCURVE",
"600 1405 CURVE SMOOTH",
"235 1405 OFFCURVE",
"26 1146 OFFCURVE",
"26 695 CURVE SMOOTH",
"26 263 OFFCURVE",
"235 15 OFFCURVE",
"600 15 CURVE SMOOTH"
);
},
{
closed = 1;
nodes = (
"725 380 OFFCURVE",
"802 386 OFFCURVE",
"872 410 CURVE",
"848 566 LINE",
"793 550 OFFCURVE",
"735 540 OFFCURVE",
"676 540 CURVE SMOOTH",
"547 540 OFFCURVE",
"476 604 OFFCURVE",
"476 722 CURVE SMOOTH",
"476 823 OFFCURVE",
"534 880 OFFCURVE",
"636 880 CURVE SMOOTH",
"689 880 OFFCURVE",
"736 853 OFFCURVE",
"764 807 CURVE",
"887 920 LINE",
"851 996 OFFCURVE",
"762 1040 OFFCURVE",
"644 1040 CURVE SMOOTH",
"415 1040 OFFCURVE",
"286 919 OFFCURVE",
"286 712 CURVE SMOOTH",
"286 498 OFFCURVE",
"419 380 OFFCURVE",
"652 380 CURVE SMOOTH"
);
},
{
closed = 1;
nodes = (
"343 169 OFFCURVE",
"196 361 OFFCURVE",
"196 695 CURVE SMOOTH",
"196 1048 OFFCURVE",
"343 1251 OFFCURVE",
"600 1251 CURVE SMOOTH",
"857 1251 OFFCURVE",
"1004 1048 OFFCURVE",
"1004 695 CURVE SMOOTH",
"1004 361 OFFCURVE",
"857 169 OFFCURVE",
"600 169 CURVE SMOOTH"
);
}
);
width = 1200;
},
{
layerId = "8E053A5E-67DA-4970-A6F5-068DBFE5AD21";
paths = (
{
closed = 1;
nodes = (
"976 15 OFFCURVE",
"1191 263 OFFCURVE",
"1191 695 CURVE SMOOTH",
"1191 1146 OFFCURVE",
"976 1405 OFFCURVE",
"600 1405 CURVE SMOOTH",
"224 1405 OFFCURVE",
"9 1146 OFFCURVE",
"9 695 CURVE SMOOTH",
"9 263 OFFCURVE",
"224 15 OFFCURVE",
"600 15 CURVE SMOOTH"
);
},
{
closed = 1;
nodes = (
"719 380 OFFCURVE",
"786 386 OFFCURVE",
"847 410 CURVE",
"823 608 LINE",
"777 592 OFFCURVE",
"729 582 OFFCURVE",
"680 582 CURVE SMOOTH",
"591 582 OFFCURVE",
"543 628 OFFCURVE",
"543 714 CURVE SMOOTH",
"543 793 OFFCURVE",
"584 838 OFFCURVE",
"657 838 CURVE SMOOTH",
"694 838 OFFCURVE",
"729 821 OFFCURVE",
"747 790 CURVE",
"870 945 LINE",
"838 1005 OFFCURVE",
"756 1040 OFFCURVE",
"648 1040 CURVE SMOOTH",
"433 1040 OFFCURVE",
"311 919 OFFCURVE",
"311 712 CURVE SMOOTH",
"311 498 OFFCURVE",
"437 380 OFFCURVE",
"656 380 CURVE SMOOTH"
);
},
{
closed = 1;
nodes = (
"370 227 OFFCURVE",
"238 398 OFFCURVE",
"238 695 CURVE SMOOTH",
"238 1011 OFFCURVE",
"370 1193 OFFCURVE",
"600 1193 CURVE SMOOTH",
"830 1193 OFFCURVE",
"962 1011 OFFCURVE",
"962 695 CURVE SMOOTH",
"962 398 OFFCURVE",
"830 227 OFFCURVE",
"600 227 CURVE SMOOTH"
);
}
);
width = 1200;
}
);
unicode = 00A9;
}
{
color = 10;
glyphname = multiply;
layers = (
{
guideLines = (
{
position = "{511, 114}";
},
{
position = "{511, 574}";
}
);
layerId = master01;
paths = (
{
closed = 1;
nodes = (
"145 309 LINE",
"992 1123 LINE",
"1055 1065 LINE",
"208 253 LINE"
);
},
{
closed = 1;
nodes = (
"145 1065 LINE",
"208 1123 LINE",
"1055 309 LINE",
"992 253 LINE"
);
}
);
width = 1200;
},
{
guideLines = (
{
position = "{511, 114}";
},
{
position = "{511, 574}";
}
);
layerId = "1F90C004-9C90-48FA-B407-176B3E9F1E65";
paths = (
{
closed = 1;
nodes = (
"121 309 LINE",
"951 1188 LINE",
"1079 1065 LINE",
"249 188 LINE"
);
},
{
closed = 1;
nodes = (
"121 1065 LINE",
"249 1188 LINE",
"1079 309 LINE",
"951 188 LINE"
);
}
);
width = 1200;
},
{
layerId = "8E053A5E-67DA-4970-A6F5-068DBFE5AD21";
paths = (
{
closed = 1;
nodes = (
"121 359 LINE",
"901 1188 LINE",
"1079 1015 LINE",
"299 188 LINE"
);
},
{
closed = 1;
nodes = (
"121 1015 LINE",
"299 1188 LINE",
"1079 359 LINE",
"901 188 LINE"
);
}
);
width = 1200;
}
);
unicode = 00D7;
}
{
color = 10;
glyphname = yen;
layers = (
{
components = (
{
name = Y;
}
);
layerId = master01;
paths = (
{
closed = 1;
nodes = (
"1039 509 LINE",
"1039 599 LINE",
"161 599 LINE",
"161 509 LINE"
);
},
{
closed = 1;
nodes = (
"1039 215 LINE",
"1039 305 LINE",
"161 305 LINE",
"161 215 LINE"
);
}
);
width = 1200;
},
{
components = (
{
name = Y;
}
);
layerId = "1F90C004-9C90-48FA-B407-176B3E9F1E65";
paths = (
{
closed = 1;
nodes = (
"1039 501 LINE",
"1039 639 LINE",
"161 639 LINE",
"161 501 LINE"
);
},
{
closed = 1;
nodes = (
"1039 191 LINE",
"1039 329 LINE",
"161 329 LINE",
"161 191 LINE"
);
}
);
width = 1200;
},
{
components = (
{
alignment = -1;
name = Y;
}
);
layerId = "8E053A5E-67DA-4970-A6F5-068DBFE5AD21";
paths = (
{
closed = 1;
nodes = (
"1056 459 LINE",
"1056 681 LINE",
"144 681 LINE",
"144 459 LINE"
);
},
{
closed = 1;
nodes = (
"1056 133 LINE",
"1056 354 LINE",
"144 354 LINE",
"144 133 LINE"
);
}
);
width = 1200;
}
);
unicode = 00A5;
}
{
color = 10;
glyphname = colon;
layers = (
{
layerId = master01;
paths = (
{
closed = 1;
nodes = (
"655 881 OFFCURVE",
"700 925 OFFCURVE",
"700 980 CURVE SMOOTH",
"700 1035 OFFCURVE",
"655 1080 OFFCURVE",
"600 1080 CURVE SMOOTH",
"545 1080 OFFCURVE",
"500 1035 OFFCURVE",
"500 980 CURVE SMOOTH",
"500 925 OFFCURVE",
"545 881 OFFCURVE",
"600 881 CURVE SMOOTH"
);
},
{
closed = 1;
nodes = (
"655 -20 OFFCURVE",
"700 24 OFFCURVE",
"700 79 CURVE SMOOTH",
"700 134 OFFCURVE",
"655 179 OFFCURVE",
"600 179 CURVE SMOOTH",
"545 179 OFFCURVE",
"500 134 OFFCURVE",
"500 79 CURVE SMOOTH",
"500 24 OFFCURVE",
"545 -20 OFFCURVE",
"600 -20 CURVE SMOOTH"
);
}
);
width = 1200;
},
{
layerId = "1F90C004-9C90-48FA-B407-176B3E9F1E65";
paths = (
{
closed = 1;
nodes = (
"682 784 OFFCURVE",
"748 850 OFFCURVE",
"748 932 CURVE SMOOTH",
"748 1014 OFFCURVE",
"682 1080 OFFCURVE",
"600 1080 CURVE SMOOTH",
"518 1080 OFFCURVE",
"452 1014 OFFCURVE",
"452 932 CURVE SMOOTH",
"452 850 OFFCURVE",
"518 784 OFFCURVE",
"600 784 CURVE SMOOTH"
);
},
{
closed = 1;
nodes = (
"682 -20 OFFCURVE",
"748 46 OFFCURVE",
"748 128 CURVE SMOOTH",
"748 210 OFFCURVE",
"682 276 OFFCURVE",
"600 276 CURVE SMOOTH",
"518 276 OFFCURVE",
"452 210 OFFCURVE",
"452 128 CURVE SMOOTH",
"452 46 OFFCURVE",
"518 -20 OFFCURVE",
"600 -20 CURVE SMOOTH"
);
}
);
width = 1200;
},
{
layerId = "8E053A5E-67DA-4970-A6F5-068DBFE5AD21";
paths = (
{
closed = 1;
nodes = (
"701 716 OFFCURVE",
"782 798 OFFCURVE",
"782 898 CURVE SMOOTH",
"782 999 OFFCURVE",
"701 1080 OFFCURVE",
"600 1080 CURVE SMOOTH",
"499 1080 OFFCURVE",
"418 999 OFFCURVE",
"418 898 CURVE SMOOTH",
"418 798 OFFCURVE",
"499 716 OFFCURVE",
"600 716 CURVE SMOOTH"
);
},
{
closed = 1;
nodes = (
"701 -20 OFFCURVE",
"782 62 OFFCURVE",
"782 162 CURVE SMOOTH",
"782 263 OFFCURVE",
"701 344 OFFCURVE",
"600 344 CURVE SMOOTH",
"499 344 OFFCURVE",
"418 263 OFFCURVE",
"418 162 CURVE SMOOTH",
"418 62 OFFCURVE",
"499 -20 OFFCURVE",
"600 -20 CURVE SMOOTH"
);
}
);
width = 1200;
}
);
unicode = 003A;
}
{
color = 10;
glyphname = less;
layers = (
{
layerId = master01;
paths = (
{
closed = 1;
nodes = (
"1030 314 LINE",
"198 705 LINE",
"198 713 LINE",
"1030 1104 LINE",
"1030 1204 LINE",
"120 765 LINE",
"120 653 LINE",
"1030 214 LINE"
);
}
);
width = 1200;
},
{
layerId = "1F90C004-9C90-48FA-B407-176B3E9F1E65";
paths = (
{
closed = 1;
nodes = (
"1054 434 LINE",
"314 700 LINE",
"314 718 LINE",
"1054 984 LINE",
"1054 1204 LINE",
"96 810 LINE",
"96 608 LINE",
"1054 214 LINE"
);
}
);
width = 1200;
},
{
layerId = "8E053A5E-67DA-4970-A6F5-068DBFE5AD21";
paths = (
{
closed = 1;
nodes = (
"1087 467 LINE",
"331 700 LINE",
"331 718 LINE",
"1087 951 LINE",
"1087 1221 LINE",
"63 843 LINE",
"63 575 LINE",
"1087 197 LINE"
);
}
);
width = 1200;
}
);
unicode = 003C;
}
{
color = 10;
glyphname = question;
layers = (
{
components = (
{
name = period;
transform = "{1, 0, 0, 1, -38, 0}";
}
);
layerId = master01;
paths = (
{
closed = 1;
nodes = (
"605 356 LINE",
"605 458 LINE SMOOTH",
"605 558 OFFCURVE",
"645 631 OFFCURVE",
"741 698 CURVE SMOOTH",
"910 818 OFFCURVE",
"982 935 OFFCURVE",
"982 1092 CURVE SMOOTH",
"982 1313 OFFCURVE",
"841 1440 OFFCURVE",
"596 1440 CURVE",
"594 1350 LINE",
"781 1350 OFFCURVE",
"888 1252 OFFCURVE",
"888 1082 CURVE SMOOTH",
"888 960 OFFCURVE",
"831 867 OFFCURVE",
"697 774 CURVE SMOOTH",
"567 683 OFFCURVE",
"511 594 OFFCURVE",
"511 472 CURVE SMOOTH",
"511 356 LINE"
);
},
{
closed = 1;
nodes = (
"336 1305 OFFCURVE",
"454 1350 OFFCURVE",
"594 1350 CURVE",
"596 1440 LINE",
"424 1440 OFFCURVE",
"288 1387 OFFCURVE",
"140 1261 CURVE",
"199 1198 LINE"
);
}
);
width = 1200;
},
{
components = (
{
name = period;
transform = "{1, 0, 0, 1, -38, 0}";
}
);
layerId = "1F90C004-9C90-48FA-B407-176B3E9F1E65";
paths = (
{
closed = 1;
nodes = (
"656 456 LINE",
"656 538 LINE SMOOTH",
"656 616 OFFCURVE",
"698 682 OFFCURVE",
"784 738 CURVE SMOOTH",
"932 833 OFFCURVE",
"1006 954 OFFCURVE",
"1006 1102 CURVE SMOOTH",
"1006 1316 OFFCURVE",
"856 1440 OFFCURVE",
"596 1440 CURVE",
"594 1250 LINE",
"716 1250 OFFCURVE",
"786 1192 OFFCURVE",
"786 1092 CURVE SMOOTH",
"786 1000 OFFCURVE",
"732 921 OFFCURVE",
"624 854 CURVE SMOOTH",
"514 784 OFFCURVE",
"460 684 OFFCURVE",
"460 552 CURVE SMOOTH",
"460 456 LINE"
);
},
{
closed = 1;
nodes = (
"339 1182 OFFCURVE",
"469 1250 OFFCURVE",
"594 1250 CURVE",
"596 1440 LINE",
"395 1440 OFFCURVE",
"209 1353 OFFCURVE",
"116 1221 CURVE",
"254 1078 LINE"
);
}
);
width = 1200;
},
{
components = (
{
alignment = -1;
name = period;
transform = "{1, 0, 0, 1, -38, 0}";
}
);
layerId = "8E053A5E-67DA-4970-A6F5-068DBFE5AD21";
paths = (
{
closed = 1;
nodes = (
"689 489 LINE",
"689 526 LINE SMOOTH",
"689 608 OFFCURVE",
"718 662 OFFCURVE",
"784 705 CURVE SMOOTH",
"944 807 OFFCURVE",
"1023 941 OFFCURVE",
"1023 1102 CURVE SMOOTH",
"1023 1316 OFFCURVE",
"867 1440 OFFCURVE",
"596 1440 CURVE",
"577 1188 LINE",
"679 1188 OFFCURVE",
"736 1144 OFFCURVE",
"736 1067 CURVE SMOOTH",
"736 998 OFFCURVE",
"696 934 OFFCURVE",
"624 887 CURVE SMOOTH",
"491 799 OFFCURVE",
"427 710 OFFCURVE",
"427 573 CURVE SMOOTH",
"427 489 LINE"
);
},
{
closed = 1;
nodes = (
"322 1120 OFFCURVE",
"452 1188 OFFCURVE",
"577 1188 CURVE",
"596 1440 LINE",
"384 1440 OFFCURVE",
"189 1346 OFFCURVE",
"91 1204 CURVE",
"237 1016 LINE"
);
}
);
width = 1200;
}
);
unicode = 003F;
}
{
color = 10;
glyphname = semicolon;
layers = (
{
components = (
{
name = comma;
}
);
layerId = master01;
paths = (
{
closed = 1;
nodes = (
"655 881 OFFCURVE",
"700 925 OFFCURVE",
"700 980 CURVE SMOOTH",
"700 1035 OFFCURVE",
"655 1080 OFFCURVE",
"600 1080 CURVE SMOOTH",
"545 1080 OFFCURVE",
"500 1035 OFFCURVE",
"500 980 CURVE SMOOTH",
"500 925 OFFCURVE",
"545 881 OFFCURVE",
"600 881 CURVE SMOOTH"
);
}
);
width = 1200;
},
{
components = (
{
name = comma;
}
);
layerId = "1F90C004-9C90-48FA-B407-176B3E9F1E65";
paths = (
{
closed = 1;
nodes = (
"682 784 OFFCURVE",
"748 850 OFFCURVE",
"748 932 CURVE SMOOTH",
"748 1014 OFFCURVE",
"682 1080 OFFCURVE",
"600 1080 CURVE SMOOTH",
"518 1080 OFFCURVE",
"452 1014 OFFCURVE",
"452 932 CURVE SMOOTH",
"452 850 OFFCURVE",
"518 784 OFFCURVE",
"600 784 CURVE SMOOTH"
);
}
);
width = 1200;
},
{
components = (
{
alignment = -1;
name = comma;
}
);
layerId = "8E053A5E-67DA-4970-A6F5-068DBFE5AD21";
paths = (
{
closed = 1;
nodes = (
"701 716 OFFCURVE",
"782 798 OFFCURVE",
"782 898 CURVE SMOOTH",
"782 999 OFFCURVE",
"701 1080 OFFCURVE",
"600 1080 CURVE SMOOTH",
"499 1080 OFFCURVE",
"418 999 OFFCURVE",
"418 898 CURVE SMOOTH",
"418 798 OFFCURVE",
"499 716 OFFCURVE",
"600 716 CURVE SMOOTH"
);
}
);
width = 1200;
}
);
unicode = 003B;
}
{
color = 10;
glyphname = K;
layers = (
{
anchors = (
{
name = bottom;
position = "{620, 0}";
},
{
name = top;
position = "{620, 1420}";
}
);
layerId = master01;
paths = (
{
closed = 1;
nodes = (
"770 492 OFFCURVE",
"1070 830 OFFCURVE",
"1070 1420 CURVE",
"974 1420 LINE",
"974 887 OFFCURVE",
"715 582 OFFCURVE",
"258 582 CURVE",
"240 492 LINE"
);
},
{
closed = 1;
nodes = (
"268 0 LINE",
"268 1420 LINE",
"174 1420 LINE",
"174 0 LINE"
);
},
{
closed = 1;
nodes = (
"1138 0 LINE",
"782 710 LINE",
"700 650 LINE",
"1026 0 LINE"
);
}
);
width = 1200;
},
{
anchors = (
{
name = bottom;
position = "{620, 0}";
},
{
name = top;
position = "{620, 1420}";
}
);
layerId = "1F90C004-9C90-48FA-B407-176B3E9F1E65";
paths = (
{
closed = 1;
nodes = (
"794 452 OFFCURVE",
"1094 915 OFFCURVE",
"1094 1420 CURVE",
"888 1420 LINE",
"888 1029 OFFCURVE",
"704 650 OFFCURVE",
"294 650 CURVE",
"276 452 LINE"
);
},
{
closed = 1;
nodes = (
"358 0 LINE",
"358 1420 LINE",
"150 1420 LINE",
"150 0 LINE"
);
},
{
closed = 1;
nodes = (
"1162 0 LINE",
"740 794 LINE",
"560 692 LINE",
"920 0 LINE"
);
}
);
width = 1200;
},
{
anchors = (
{
name = bottom;
position = "{620, 0}";
},
{
name = top;
position = "{620, 1420}";
}
);
layerId = "8E053A5E-67DA-4970-A6F5-068DBFE5AD21";
paths = (
{
closed = 1;
nodes = (
"805 452 OFFCURVE",
"1111 915 OFFCURVE",
"1111 1420 CURVE",
"843 1420 LINE",
"843 1063 OFFCURVE",
"673 717 OFFCURVE",
"294 717 CURVE",
"276 452 LINE"
);
},
{
closed = 1;
nodes = (
"397 0 LINE",
"397 1420 LINE",
"133 1420 LINE",
"133 0 LINE"
);
},
{
closed = 1;
nodes = (
"1179 0 LINE",
"814 731 LINE",
"568 629 LINE",
"853 0 LINE"
);
}
);
width = 1200;
}
);
unicode = 004B;
}
{
color = 10;
glyphname = M;
layers = (
{
anchors = (
{
name = bottom;
position = "{600, 0}";
},
{
name = top;
position = "{600, 1420}";
}
);
layerId = master01;
paths = (
{
closed = 1;
nodes = (
"660 660 LINE",
"944 1332 LINE",
"986 1332 LINE",
"986 1420 LINE",
"886 1420 LINE",
"602 748 LINE",
"600 748 LINE",
"587 660 LINE"
);
},
{
closed = 1;
nodes = (
"246 0 LINE",
"246 1420 LINE",
"152 1420 LINE",
"152 0 LINE"
);
},
{
closed = 1;
nodes = (
"614 660 LINE",
"601 748 LINE",
"598 748 LINE",
"314 1420 LINE",
"232 1420 LINE",
"232 1332 LINE",
"256 1332 LINE",
"540 660 LINE"
);
},
{
closed = 1;
nodes = (
"1048 0 LINE",
"1048 1420 LINE",
"954 1420 LINE",
"954 0 LINE"
);
}
);
width = 1200;
},
{
anchors = (
{
name = bottom;
position = "{600, 0}";
},
{
name = top;
position = "{600, 1420}";
}
);
layerId = "1F90C004-9C90-48FA-B407-176B3E9F1E65";
paths = (
{
closed = 1;
nodes = (
"692 580 LINE",
"846 1168 LINE",
"904 1168 LINE",
"904 1420 LINE",
"762 1420 LINE",
"608 810 LINE",
"596 810 LINE",
"566 580 LINE"
);
},
{
closed = 1;
nodes = (
"328 0 LINE",
"328 1420 LINE",
"128 1420 LINE",
"128 0 LINE"
);
},
{
closed = 1;
nodes = (
"620 580 LINE",
"600 810 LINE",
"592 810 LINE",
"438 1420 LINE",
"296 1420 LINE",
"296 1168 LINE",
"354 1168 LINE",
"508 580 LINE"
);
},
{
closed = 1;
nodes = (
"1072 0 LINE",
"1072 1420 LINE",
"872 1420 LINE",
"872 0 LINE"
);
}
);
width = 1200;
},
{
anchors = (
{
name = bottom;
position = "{600, 0}";
},
{
name = top;
position = "{600, 1420}";
}
);
layerId = "8E053A5E-67DA-4970-A6F5-068DBFE5AD21";
paths = (
{
closed = 1;
nodes = (
"692 497 LINE",
"812 1168 LINE",
"875 1168 LINE",
"859 1420 LINE",
"712 1420 LINE",
"608 785 LINE",
"596 785 LINE",
"566 497 LINE"
);
},
{
closed = 1;
nodes = (
"357 0 LINE",
"357 1420 LINE",
"111 1420 LINE",
"111 0 LINE"
);
},
{
closed = 1;
nodes = (
"628 497 LINE",
"600 785 LINE",
"592 785 LINE",
"488 1420 LINE",
"341 1420 LINE",
"325 1168 LINE",
"388 1168 LINE",
"508 497 LINE"
);
},
{
closed = 1;
nodes = (
"1089 0 LINE",
"1089 1420 LINE",
"843 1420 LINE",
"843 0 LINE"
);
}
);
width = 1200;
}
);
unicode = 004D;
}
{
color = 10;
glyphname = Z;
layers = (
{
anchors = (
{
name = bottom;
position = "{600, 0}";
},
{
name = center;
position = "{600, 710}";
},
{
name = top;
position = "{600, 1420}";
}
);
layerId = master01;
paths = (
{
closed = 1;
nodes = (
"1026 1330 LINE",
"954 1382 LINE",
"174 90 LINE",
"246 38 LINE"
);
},
{
closed = 1;
nodes = (
"1046 0 LINE",
"1046 90 LINE",
"174 90 LINE",
"174 0 LINE"
);
},
{
closed = 1;
nodes = (
"1026 1330 LINE",
"1026 1420 LINE",
"174 1420 LINE",
"174 1330 LINE"
);
}
);
width = 1200;
},
{
anchors = (
{
name = bottom;
position = "{600, 0}";
},
{
name = center;
position = "{600, 710}";
},
{
name = top;
position = "{600, 1420}";
}
);
layerId = "1F90C004-9C90-48FA-B407-176B3E9F1E65";
paths = (
{
closed = 1;
nodes = (
"1050 1230 LINE",
"898 1362 LINE",
"150 190 LINE",
"302 68 LINE"
);
},
{
closed = 1;
nodes = (
"1070 0 LINE",
"1070 190 LINE",
"150 190 LINE",
"150 0 LINE"
);
},
{
closed = 1;
nodes = (
"1050 1230 LINE",
"1050 1420 LINE",
"150 1420 LINE",
"150 1230 LINE"
);
}
);
width = 1200;
},
{
anchors = (
{
name = bottom;
position = "{600, 0}";
},
{
name = center;
position = "{600, 710}";
},
{
name = top;
position = "{600, 1420}";
}
);
layerId = "8E053A5E-67DA-4970-A6F5-068DBFE5AD21";
paths = (
{
closed = 1;
nodes = (
"1062 1177 LINE",
"885 1362 LINE",
"128 243 LINE",
"305 68 LINE"
);
},
{
closed = 1;
nodes = (
"1082 0 LINE",
"1082 243 LINE",
"128 243 LINE",
"128 0 LINE"
);
},
{
closed = 1;
nodes = (
"1062 1177 LINE",
"1062 1420 LINE",
"128 1420 LINE",
"128 1177 LINE"
);
}
);
width = 1200;
}
);
unicode = 005A;
}
{
color = 10;
glyphname = underscore;
layers = (
{
layerId = master01;
paths = (
{
closed = 1;
nodes = (
"1100 -90 LINE",
"1100 0 LINE",
"100 0 LINE",
"100 -90 LINE"
);
}
);
width = 1200;
},
{
layerId = "1F90C004-9C90-48FA-B407-176B3E9F1E65";
paths = (
{
closed = 1;
nodes = (
"1100 -186 LINE",
"1100 0 LINE",
"100 0 LINE",
"100 -186 LINE"
);
}
);
width = 1200;
},
{
layerId = "8E053A5E-67DA-4970-A6F5-068DBFE5AD21";
paths = (
{
closed = 1;
nodes = (
"1100 -250 LINE",
"1100 0 LINE",
"100 0 LINE",
"100 -250 LINE"
);
}
);
width = 1200;
}
);
unicode = 005F;
}
{
color = 10;
glyphname = euro;
production = Euro;
layers = (
{
layerId = master01;
paths = (
{
closed = 1;
nodes = (
"902 -20 OFFCURVE",
"1003 2 OFFCURVE",
"1100 48 CURVE",
"1075 137 LINE",
"988 92 OFFCURVE",
"902 70 OFFCURVE",
"812 70 CURVE SMOOTH",
"493 70 OFFCURVE",
"331 287 OFFCURVE",
"331 722 CURVE SMOOTH",
"331 1123 OFFCURVE",
"506 1350 OFFCURVE",
"776 1350 CURVE SMOOTH",
"892 1350 OFFCURVE",
"996 1293 OFFCURVE",
"1060 1194 CURVE",
"1125 1261 LINE",
"1068 1375 OFFCURVE",
"940 1440 OFFCURVE",
"774 1440 CURVE SMOOTH",
"431 1440 OFFCURVE",
"235 1174 OFFCURVE",
"235 712 CURVE SMOOTH",
"235 224 OFFCURVE",
"424 -20 OFFCURVE",
"798 -20 CURVE SMOOTH"
);
},
{
closed = 1;
nodes = (
"897 515 LINE",
"897 605 LINE",
"79 605 LINE",
"79 515 LINE"
);
},
{
closed = 1;
nodes = (
"897 805 LINE",
"897 895 LINE",
"79 895 LINE",
"79 805 LINE"
);
}
);
width = 1200;
},
{
layerId = "1F90C004-9C90-48FA-B407-176B3E9F1E65";
paths = (
{
closed = 1;
nodes = (
"897 -20 OFFCURVE",
"1012 2 OFFCURVE",
"1124 48 CURVE",
"1078 224 LINE",
"991 184 OFFCURVE",
"903 164 OFFCURVE",
"812 164 CURVE SMOOTH",
"545 164 OFFCURVE",
"410 350 OFFCURVE",
"410 722 CURVE SMOOTH",
"410 1063 OFFCURVE",
"542 1256 OFFCURVE",
"746 1256 CURVE SMOOTH",
"842 1256 OFFCURVE",
"928 1197 OFFCURVE",
"981 1094 CURVE",
"1149 1221 LINE",
"1083 1360 OFFCURVE",
"936 1440 OFFCURVE",
"744 1440 CURVE SMOOTH",
"395 1440 OFFCURVE",
"196 1174 OFFCURVE",
"196 712 CURVE SMOOTH",
"196 224 OFFCURVE",
"391 -20 OFFCURVE",
"778 -20 CURVE SMOOTH"
);
},
{
closed = 1;
nodes = (
"897 491 LINE",
"897 629 LINE",
"79 629 LINE",
"79 491 LINE"
);
},
{
closed = 1;
nodes = (
"897 781 LINE",
"897 919 LINE",
"79 919 LINE",
"79 781 LINE"
);
}
);
width = 1200;
},
{
layerId = "8E053A5E-67DA-4970-A6F5-068DBFE5AD21";
paths = (
{
closed = 1;
nodes = (
"886 -20 OFFCURVE",
"1007 2 OFFCURVE",
"1124 48 CURVE",
"1078 292 LINE",
"985 252 OFFCURVE",
"892 232 OFFCURVE",
"795 232 CURVE SMOOTH",
"570 232 OFFCURVE",
"457 395 OFFCURVE",
"457 722 CURVE SMOOTH",
"457 1020 OFFCURVE",
"568 1189 OFFCURVE",
"738 1189 CURVE SMOOTH",
"844 1189 OFFCURVE",
"939 1145 OFFCURVE",
"998 1068 CURVE",
"1149 1259 LINE",
"1074 1374 OFFCURVE",
"923 1440 OFFCURVE",
"736 1440 CURVE SMOOTH",
"382 1440 OFFCURVE",
"179 1174 OFFCURVE",
"179 712 CURVE SMOOTH",
"179 224 OFFCURVE",
"374 -20 OFFCURVE",
"761 -20 CURVE SMOOTH"
);
},
{
closed = 1;
nodes = (
"897 458 LINE",
"897 646 LINE",
"79 646 LINE",
"79 458 LINE"
);
},
{
closed = 1;
nodes = (
"897 764 LINE",
"897 952 LINE",
"79 952 LINE",
"79 764 LINE"
);
}
);
width = 1200;
}
);
unicode = 20AC;
}
{
color = 10;
glyphname = two;
layers = (
{
layerId = master01;
paths = (
{
closed = 1;
nodes = (
"276 0 LINE",
"276 100 LINE",
"744 354 OFFCURVE",
"992 654 OFFCURVE",
"992 1002 CURVE SMOOTH",
"992 1280 OFFCURVE",
"838 1440 OFFCURVE",
"568 1440 CURVE SMOOTH",
"371 1440 OFFCURVE",
"236 1371 OFFCURVE",
"130 1261 CURVE",
"188 1204 LINE",
"298 1302 OFFCURVE",
"423 1350 OFFCURVE",
"564 1350 CURVE SMOOTH",
"775 1350 OFFCURVE",
"896 1223 OFFCURVE",
"896 1002 CURVE SMOOTH",
"896 688 OFFCURVE",
"657 399 OFFCURVE",
"176 133 CURVE",
"176 0 LINE"
);
},
{
closed = 1;
nodes = (
"1052 0 LINE",
"1052 90 LINE",
"236 90 LINE",
"236 0 LINE"
);
}
);
width = 1200;
},
{
layerId = "1F90C004-9C90-48FA-B407-176B3E9F1E65";
paths = (
{
closed = 1;
nodes = (
"464 0 LINE",
"464 220 LINE",
"836 463 OFFCURVE",
"1016 725 OFFCURVE",
"1016 1012 CURVE SMOOTH",
"1016 1298 OFFCURVE",
"868 1440 OFFCURVE",
"568 1440 CURVE SMOOTH",
"382 1440 OFFCURVE",
"198 1353 OFFCURVE",
"106 1221 CURVE",
"244 1084 LINE",
"328 1188 OFFCURVE",
"456 1256 OFFCURVE",
"564 1256 CURVE SMOOTH",
"726 1256 OFFCURVE",
"806 1175 OFFCURVE",
"806 1012 CURVE SMOOTH",
"806 733 OFFCURVE",
"591 470 OFFCURVE",
"152 228 CURVE",
"152 0 LINE"
);
},
{
closed = 1;
nodes = (
"1076 0 LINE",
"1076 190 LINE",
"212 190 LINE",
"212 0 LINE"
);
}
);
width = 1200;
},
{
layerId = "8E053A5E-67DA-4970-A6F5-068DBFE5AD21";
paths = (
{
closed = 1;
nodes = (
"556 0 LINE",
"556 272 LINE",
"877 499 OFFCURVE",
"1033 744 OFFCURVE",
"1033 1012 CURVE SMOOTH",
"1033 1298 OFFCURVE",
"879 1440 OFFCURVE",
"568 1440 CURVE SMOOTH",
"369 1440 OFFCURVE",
"171 1343 OFFCURVE",
"73 1196 CURVE",
"227 1017 LINE",
"316 1121 OFFCURVE",
"450 1189 OFFCURVE",
"564 1189 CURVE SMOOTH",
"693 1189 OFFCURVE",
"756 1124 OFFCURVE",
"756 995 CURVE SMOOTH",
"756 738 OFFCURVE",
"552 495 OFFCURVE",
"135 272 CURVE",
"135 0 LINE"
);
},
{
closed = 1;
nodes = (
"1093 0 LINE",
"1093 234 LINE",
"195 234 LINE",
"195 0 LINE"
);
}
);
width = 1200;
}
);
unicode = 0032;
}
{
color = 10;
glyphname = G;
layers = (
{
anchors = (
{
name = bottom;
position = "{695, 0}";
},
{
name = top;
position = "{675, 1420}";
}
);
layerId = master01;
paths = (
{
closed = 1;
nodes = (
"861 -20 OFFCURVE",
"1000 22 OFFCURVE",
"1056 40 CURVE",
"998 120 LINE",
"937 102 OFFCURVE",
"840 70 OFFCURVE",
"716 70 CURVE SMOOTH",
"373 70 OFFCURVE",
"176 308 OFFCURVE",
"176 722 CURVE SMOOTH",
"176 1121 OFFCURVE",
"366 1350 OFFCURVE",
"696 1350 CURVE SMOOTH",
"825 1350 OFFCURVE",
"943 1302 OFFCURVE",
"1020 1217 CURVE",
"1089 1285 LINE",
"1012 1384 OFFCURVE",
"865 1440 OFFCURVE",
"684 1440 CURVE SMOOTH",
"300 1440 OFFCURVE",
"80 1175 OFFCURVE",
"80 712 CURVE SMOOTH",
"80 247 OFFCURVE",
"303 -20 OFFCURVE",
"692 -20 CURVE SMOOTH"
);
},
{
closed = 1;
nodes = (
"1056 40 LINE",
"1056 660 LINE",
"962 660 LINE",
"962 40 LINE"
);
},
{
closed = 1;
nodes = (
"1050 572 LINE",
"1050 660 LINE",
"600 660 LINE",
"600 572 LINE"
);
}
);
width = 1200;
},
{
anchors = (
{
name = bottom;
position = "{695, 0}";
},
{
name = top;
position = "{675, 1420}";
}
);
layerId = "1F90C004-9C90-48FA-B407-176B3E9F1E65";
paths = (
{
closed = 1;
nodes = (
"882 -20 OFFCURVE",
"1034 22 OFFCURVE",
"1090 40 CURVE",
"1012 214 LINE",
"950 196 OFFCURVE",
"852 164 OFFCURVE",
"726 164 CURVE SMOOTH",
"430 164 OFFCURVE",
"280 350 OFFCURVE",
"280 722 CURVE SMOOTH",
"280 1062 OFFCURVE",
"437 1256 OFFCURVE",
"706 1256 CURVE SMOOTH",
"812 1256 OFFCURVE",
"909 1204 OFFCURVE",
"971 1114 CURVE",
"1120 1262 LINE",
"1049 1375 OFFCURVE",
"893 1440 OFFCURVE",
"694 1440 CURVE SMOOTH",
"296 1440 OFFCURVE",
"66 1174 OFFCURVE",
"66 712 CURVE SMOOTH",
"66 224 OFFCURVE",
"278 -20 OFFCURVE",
"702 -20 CURVE SMOOTH"
);
},
{
closed = 1;
nodes = (
"1090 40 LINE",
"1090 710 LINE",
"892 710 LINE",
"892 40 LINE"
);
},
{
closed = 1;
nodes = (
"1084 520 LINE",
"1084 710 LINE",
"610 710 LINE",
"610 520 LINE"
);
}
);
width = 1200;
},
{
anchors = (
{
name = bottom;
position = "{695, 0}";
},
{
name = top;
position = "{675, 1420}";
}
);
layerId = "8E053A5E-67DA-4970-A6F5-068DBFE5AD21";
paths = (
{
closed = 1;
nodes = (
"890 -20 OFFCURVE",
"1048 22 OFFCURVE",
"1107 40 CURVE",
"1012 282 LINE",
"950 264 OFFCURVE",
"852 232 OFFCURVE",
"726 232 CURVE SMOOTH",
"461 232 OFFCURVE",
"327 395 OFFCURVE",
"327 722 CURVE SMOOTH",
"327 1019 OFFCURVE",
"466 1189 OFFCURVE",
"706 1189 CURVE SMOOTH",
"812 1189 OFFCURVE",
"909 1142 OFFCURVE",
"971 1063 CURVE",
"1137 1254 LINE",
"1053 1372 OFFCURVE",
"901 1440 OFFCURVE",
"694 1440 CURVE SMOOTH",
"285 1440 OFFCURVE",
"49 1174 OFFCURVE",
"49 712 CURVE SMOOTH",
"49 224 OFFCURVE",
"267 -20 OFFCURVE",
"702 -20 CURVE SMOOTH"
);
},
{
closed = 1;
nodes = (
"1107 40 LINE",
"1107 735 LINE",
"845 735 LINE",
"845 40 LINE"
);
},
{
closed = 1;
nodes = (
"1101 492 LINE",
"1101 735 LINE",
"610 735 LINE",
"610 492 LINE"
);
}
);
width = 1200;
}
);
unicode = 0047;
}
{
color = 10;
glyphname = R;
layers = (
{
anchors = (
{
name = bottom;
position = "{610, 0}";
},
{
name = top;
position = "{560, 1420}";
}
);
layerId = master01;
paths = (
{
closed = 1;
nodes = (
"668 589 LINE SMOOTH",
"921 589 OFFCURVE",
"1066 743 OFFCURVE",
"1066 1010 CURVE SMOOTH",
"1066 1271 OFFCURVE",
"921 1420 OFFCURVE",
"668 1420 CURVE SMOOTH",
"220 1420 LINE",
"244 1330 LINE",
"668 1330 LINE SMOOTH",
"860 1330 OFFCURVE",
"970 1206 OFFCURVE",
"970 990 CURVE SMOOTH",
"970 793 OFFCURVE",
"860 681 OFFCURVE",
"668 681 CURVE SMOOTH",
"240 681 LINE",
"240 589 LINE"
);
},
{
closed = 1;
nodes = (
"258 0 LINE",
"258 1420 LINE",
"164 1420 LINE",
"164 0 LINE"
);
},
{
closed = 1;
nodes = (
"1118 0 LINE",
"764 668 LINE",
"652 668 LINE",
"1006 0 LINE"
);
}
);
width = 1200;
},
{
anchors = (
{
name = bottom;
position = "{610, 0}";
},
{
name = top;
position = "{560, 1420}";
}
);
layerId = "1F90C004-9C90-48FA-B407-176B3E9F1E65";
paths = (
{
closed = 1;
nodes = (
"628 540 LINE SMOOTH",
"922 540 OFFCURVE",
"1090 704 OFFCURVE",
"1090 990 CURVE SMOOTH",
"1090 1264 OFFCURVE",
"922 1420 OFFCURVE",
"628 1420 CURVE SMOOTH",
"314 1420 LINE",
"338 1230 LINE",
"628 1230 LINE SMOOTH",
"787 1230 OFFCURVE",
"880 1136 OFFCURVE",
"880 970 CURVE SMOOTH",
"880 818 OFFCURVE",
"787 730 OFFCURVE",
"628 730 CURVE SMOOTH",
"334 730 LINE",
"334 540 LINE"
);
},
{
closed = 1;
nodes = (
"348 0 LINE",
"348 1420 LINE",
"140 1420 LINE",
"140 0 LINE"
);
},
{
closed = 1;
nodes = (
"1142 0 LINE",
"804 668 LINE",
"584 668 LINE",
"902 0 LINE"
);
}
);
width = 1200;
},
{
anchors = (
{
name = bottom;
position = "{610, 0}";
},
{
name = top;
position = "{560, 1420}";
}
);
layerId = "8E053A5E-67DA-4970-A6F5-068DBFE5AD21";
paths = (
{
closed = 1;
nodes = (
"628 520 LINE SMOOTH",
"933 520 OFFCURVE",
"1107 692 OFFCURVE",
"1107 990 CURVE SMOOTH",
"1107 1264 OFFCURVE",
"933 1420 OFFCURVE",
"628 1420 CURVE SMOOTH",
"353 1420 LINE",
"377 1177 LINE",
"628 1177 LINE SMOOTH",
"750 1177 OFFCURVE",
"822 1102 OFFCURVE",
"822 970 CURVE SMOOTH",
"822 839 OFFCURVE",
"750 763 OFFCURVE",
"628 763 CURVE SMOOTH",
"373 763 LINE",
"373 520 LINE"
);
},
{
closed = 1;
nodes = (
"387 0 LINE",
"387 1420 LINE",
"123 1420 LINE",
"123 0 LINE"
);
},
{
closed = 1;
nodes = (
"1159 0 LINE",
"854 668 LINE",
"576 668 LINE",
"844 0 LINE"
);
}
);
width = 1200;
}
);
unicode = 0052;
}
{
color = 10;
glyphname = b;
layers = (
{
anchors = (
{
name = bottom;
position = "{640, 0}";
},
{
name = top;
position = "{239, 1540}";
}
);
layerId = master01;
paths = (
{
closed = 1;
nodes = (
"828 -20 OFFCURVE",
"1075 206 OFFCURVE",
"1075 600 CURVE SMOOTH",
"1075 906 OFFCURVE",
"922 1080 OFFCURVE",
"655 1080 CURVE SMOOTH",
"459 1080 OFFCURVE",
"338 1010 OFFCURVE",
"291 868 CURVE",
"219 868 LINE",
"281 596 LINE",
"281 859 OFFCURVE",
"403 988 OFFCURVE",
"645 988 CURVE SMOOTH",
"859 988 OFFCURVE",
"979 848 OFFCURVE",
"979 600 CURVE SMOOTH",
"979 264 OFFCURVE",
"783 72 OFFCURVE",
"439 72 CURVE SMOOTH",
"374 72 OFFCURVE",
"304 77 OFFCURVE",
"249 86 CURVE",
"187 0 LINE",
"260 -12 OFFCURVE",
"326 -20 OFFCURVE",
"397 -20 CURVE SMOOTH"
);
},
{
closed = 1;
nodes = (
"281 18 LINE",
"277 1500 LINE",
"187 1500 LINE",
"187 0 LINE"
);
}
);
width = 1200;
},
{
anchors = (
{
name = bottom;
position = "{640, 0}";
},
{
name = top;
position = "{274, 1540}";
}
);
layerId = "1F90C004-9C90-48FA-B407-176B3E9F1E65";
paths = (
{
closed = 1;
nodes = (
"862 -20 OFFCURVE",
"1099 206 OFFCURVE",
"1099 600 CURVE SMOOTH",
"1099 906 OFFCURVE",
"937 1080 OFFCURVE",
"655 1080 CURVE SMOOTH",
"491 1080 OFFCURVE",
"405 1010 OFFCURVE",
"395 868 CURVE",
"313 868 LINE",
"375 596 LINE",
"375 800 OFFCURVE",
"465 900 OFFCURVE",
"645 900 CURVE SMOOTH",
"801 900 OFFCURVE",
"889 792 OFFCURVE",
"889 600 CURVE SMOOTH",
"889 320 OFFCURVE",
"744 160 OFFCURVE",
"489 160 CURVE SMOOTH",
"405 160 OFFCURVE",
"315 160 OFFCURVE",
"245 194 CURVE",
"163 0 LINE",
"259 -12 OFFCURVE",
"351 -20 OFFCURVE",
"447 -20 CURVE SMOOTH"
);
},
{
closed = 1;
nodes = (
"375 18 LINE",
"375 1500 LINE",
"163 1500 LINE",
"163 0 LINE"
);
}
);
width = 1200;
},
{
anchors = (
{
name = bottom;
position = "{640, 0}";
},
{
name = top;
position = "{288, 1540}";
}
);
layerId = "8E053A5E-67DA-4970-A6F5-068DBFE5AD21";
paths = (
{
closed = 1;
nodes = (
"873 -20 OFFCURVE",
"1116 206 OFFCURVE",
"1116 600 CURVE SMOOTH",
"1116 906 OFFCURVE",
"963 1080 OFFCURVE",
"697 1080 CURVE SMOOTH",
"546 1080 OFFCURVE",
"463 1010 OFFCURVE",
"445 868 CURVE",
"355 868 LINE",
"417 596 LINE",
"417 750 OFFCURVE",
"493 825 OFFCURVE",
"645 825 CURVE SMOOTH",
"769 825 OFFCURVE",
"839 744 OFFCURVE",
"839 600 CURVE SMOOTH",
"839 368 OFFCURVE",
"712 235 OFFCURVE",
"489 235 CURVE SMOOTH",
"405 235 OFFCURVE",
"315 235 OFFCURVE",
"245 269 CURVE",
"146 0 LINE",
"248 -12 OFFCURVE",
"345 -20 OFFCURVE",
"447 -20 CURVE SMOOTH"
);
},
{
closed = 1;
nodes = (
"417 18 LINE",
"417 1500 LINE",
"146 1500 LINE",
"146 0 LINE"
);
}
);
width = 1200;
}
);
unicode = 0062;
}
{
color = 10;
glyphname = quoteleft;
layers = (
{
layerId = master01;
paths = (
{
closed = 1;
nodes = (
"767 710 LINE",
"767 802 LINE",
"722 802 LINE SMOOTH",
"589 802 OFFCURVE",
"529 852 OFFCURVE",
"529 962 CURVE SMOOTH",
"529 1053 OFFCURVE",
"580 1193 OFFCURVE",
"716 1348 CURVE SMOOTH",
"744 1380 LINE",
"674 1440 LINE",
"650 1414 LINE SMOOTH",
"486 1236 OFFCURVE",
"433 1086 OFFCURVE",
"433 962 CURVE SMOOTH",
"433 789 OFFCURVE",
"524 710 OFFCURVE",
"722 710 CURVE SMOOTH"
);
}
);
width = 1200;
},
{
layerId = "1F90C004-9C90-48FA-B407-176B3E9F1E65";
paths = (
{
closed = 1;
nodes = (
"794 690 LINE",
"794 875 LINE",
"749 875 LINE SMOOTH",
"655 875 OFFCURVE",
"605 915 OFFCURVE",
"605 992 CURVE SMOOTH",
"605 1074 OFFCURVE",
"644 1160 OFFCURVE",
"721 1243 CURVE SMOOTH",
"781 1308 LINE",
"631 1440 LINE",
"575 1379 LINE SMOOTH",
"456 1250 OFFCURVE",
"400 1114 OFFCURVE",
"400 992 CURVE SMOOTH",
"400 794 OFFCURVE",
"510 690 OFFCURVE",
"719 690 CURVE SMOOTH"
);
}
);
width = 1200;
},
{
layerId = "8E053A5E-67DA-4970-A6F5-068DBFE5AD21";
paths = (
{
closed = 1;
nodes = (
"780 645 LINE",
"780 905 LINE",
"715 905 LINE SMOOTH",
"631 905 OFFCURVE",
"592 937 OFFCURVE",
"592 1007 CURVE SMOOTH",
"592 1052 OFFCURVE",
"611 1095 OFFCURVE",
"657 1143 CURVE SMOOTH",
"777 1268 LINE",
"595 1440 LINE",
"496 1339 LINE SMOOTH",
"388 1229 OFFCURVE",
"336 1121 OFFCURVE",
"336 987 CURVE SMOOTH",
"336 752 OFFCURVE",
"446 645 OFFCURVE",
"685 645 CURVE SMOOTH"
);
}
);
width = 1200;
}
);
unicode = 2018;
}
{
glyphname = ampersand_ampersand.liga;
layers = (
{
layerId = master01;
paths = (
{
closed = 1;
nodes = (
"2176 0 LINE",
"1583 820 LINE SMOOTH",
"1501 932 OFFCURVE",
"1466 1024 OFFCURVE",
"1466 1132 CURVE SMOOTH",
"1466 1271 OFFCURVE",
"1553 1350 OFFCURVE",
"1704 1350 CURVE",
"1700 1440 LINE",
"1490 1440 OFFCURVE",
"1370 1328 OFFCURVE",
"1370 1132 CURVE SMOOTH",
"1370 1008 OFFCURVE",
"1405 904 OFFCURVE",
"1489 786 CURVE SMOOTH",
"2048 0 LINE"
);
},
{
closed = 1;
nodes = (
"875 -20 OFFCURVE",
"1064 266 OFFCURVE",
"1064 766 CURVE",
"968 766 LINE",
"968 324 OFFCURVE",
"823 70 OFFCURVE",
"570 70 CURVE SMOOTH",
"405 70 OFFCURVE",
"309 158 OFFCURVE",
"309 314 CURVE SMOOTH",
"309 480 OFFCURVE",
"430 612 OFFCURVE",
"640 646 CURVE",
"590 718 LINE",
"350 681 OFFCURVE",
"213 534 OFFCURVE",
"213 314 CURVE SMOOTH",
"213 102 OFFCURVE",
"334 -20 OFFCURVE",
"546 -20 CURVE SMOOTH"
);
},
{
closed = 1;
nodes = (
"1160 0 LINE",
"567 820 LINE SMOOTH",
"485 932 OFFCURVE",
"450 1024 OFFCURVE",
"450 1132 CURVE SMOOTH",
"450 1271 OFFCURVE",
"537 1350 OFFCURVE",
"688 1350 CURVE",
"684 1440 LINE",
"474 1440 OFFCURVE",
"354 1328 OFFCURVE",
"354 1132 CURVE SMOOTH",
"354 1008 OFFCURVE",
"389 904 OFFCURVE",
"473 786 CURVE SMOOTH",
"1032 0 LINE"
);
},
{
closed = 1;
nodes = (
"1891 -20 OFFCURVE",
"2080 266 OFFCURVE",
"2080 766 CURVE",
"1984 766 LINE",
"1984 324 OFFCURVE",
"1839 70 OFFCURVE",
"1586 70 CURVE SMOOTH",
"1421 70 OFFCURVE",
"1325 158 OFFCURVE",
"1325 314 CURVE SMOOTH",
"1325 480 OFFCURVE",
"1446 612 OFFCURVE",
"1656 646 CURVE",
"1606 718 LINE",
"1366 681 OFFCURVE",
"1229 534 OFFCURVE",
"1229 314 CURVE SMOOTH",
"1229 102 OFFCURVE",
"1350 -20 OFFCURVE",
"1562 -20 CURVE SMOOTH"
);
},
{
closed = 1;
nodes = (
"1010 1122 LINE",
"1010 1324 OFFCURVE",
"891 1440 OFFCURVE",
"684 1440 CURVE",
"688 1350 LINE",
"831 1350 OFFCURVE",
"914 1267 OFFCURVE",
"914 1122 CURVE"
);
},
{
closed = 1;
nodes = (
"2026 1122 LINE",
"2026 1324 OFFCURVE",
"1907 1440 OFFCURVE",
"1700 1440 CURVE",
"1704 1350 LINE",
"1847 1350 OFFCURVE",
"1930 1267 OFFCURVE",
"1930 1122 CURVE"
);
}
);
width = 1200;
},
{
layerId = "1F90C004-9C90-48FA-B407-176B3E9F1E65";
paths = (
{
closed = 1;
nodes = (
"2194 0 LINE",
"1642 870 LINE SMOOTH",
"1596 942 OFFCURVE",
"1554 1024 OFFCURVE",
"1554 1100 CURVE SMOOTH",
"1554 1200 OFFCURVE",
"1606 1256 OFFCURVE",
"1694 1256 CURVE",
"1690 1440 LINE",
"1464 1440 OFFCURVE",
"1334 1316 OFFCURVE",
"1334 1102 CURVE SMOOTH",
"1334 992 OFFCURVE",
"1408 868 OFFCURVE",
"1498 726 CURVE SMOOTH",
"1962 0 LINE"
);
},
{
closed = 1;
nodes = (
"906 -20 OFFCURVE",
"1082 240 OFFCURVE",
"1082 766 CURVE",
"900 766 LINE",
"900 356 OFFCURVE",
"792 154 OFFCURVE",
"576 154 CURVE SMOOTH",
"450 154 OFFCURVE",
"388 220 OFFCURVE",
"388 354 CURVE SMOOTH",
"388 492 OFFCURVE",
"456 578 OFFCURVE",
"596 616 CURVE",
"486 738 LINE",
"286 700 OFFCURVE",
"186 570 OFFCURVE",
"186 344 CURVE SMOOTH",
"186 100 OFFCURVE",
"308 -20 OFFCURVE",
"552 -20 CURVE SMOOTH"
);
},
{
closed = 1;
nodes = (
"1174 0 LINE",
"622 870 LINE SMOOTH",
"574 946 OFFCURVE",
"534 1026 OFFCURVE",
"534 1100 CURVE SMOOTH",
"534 1200 OFFCURVE",
"586 1256 OFFCURVE",
"674 1256 CURVE",
"670 1440 LINE",
"444 1440 OFFCURVE",
"314 1316 OFFCURVE",
"314 1102 CURVE SMOOTH",
"314 1000 OFFCURVE",
"386 870 OFFCURVE",
"478 726 CURVE SMOOTH",
"942 0 LINE"
);
},
{
closed = 1;
nodes = (
"1936 -20 OFFCURVE",
"2102 240 OFFCURVE",
"2102 766 CURVE",
"1920 766 LINE",
"1920 358 OFFCURVE",
"1812 154 OFFCURVE",
"1596 154 CURVE SMOOTH",
"1470 154 OFFCURVE",
"1408 220 OFFCURVE",
"1408 354 CURVE SMOOTH",
"1408 492 OFFCURVE",
"1476 578 OFFCURVE",
"1616 616 CURVE",
"1506 738 LINE",
"1306 700 OFFCURVE",
"1206 570 OFFCURVE",
"1206 344 CURVE SMOOTH",
"1206 100 OFFCURVE",
"1328 -20 OFFCURVE",
"1572 -20 CURVE SMOOTH"
);
},
{
closed = 1;
nodes = (
"1030 1122 LINE",
"1030 1324 OFFCURVE",
"898 1440 OFFCURVE",
"670 1440 CURVE",
"674 1256 LINE",
"764 1256 OFFCURVE",
"816 1208 OFFCURVE",
"816 1122 CURVE"
);
},
{
closed = 1;
nodes = (
"2050 1122 LINE",
"2050 1334 OFFCURVE",
"1930 1440 OFFCURVE",
"1690 1440 CURVE",
"1694 1256 LINE",
"1784 1256 OFFCURVE",
"1836 1208 OFFCURVE",
"1836 1122 CURVE"
);
}
);
width = 1200;
},
{
layerId = "8E053A5E-67DA-4970-A6F5-068DBFE5AD21";
paths = (
{
closed = 1;
nodes = (
"2211 0 LINE",
"1713 781 LINE SMOOTH",
"1654 874 OFFCURVE",
"1627 949 OFFCURVE",
"1627 1050 CURVE SMOOTH",
"1627 1146 OFFCURVE",
"1653 1189 OFFCURVE",
"1707 1189 CURVE",
"1707 1440 LINE",
"1479 1440 OFFCURVE",
"1349 1314 OFFCURVE",
"1349 1094 CURVE SMOOTH",
"1349 966 OFFCURVE",
"1384 840 OFFCURVE",
"1476 692 CURVE SMOOTH",
"1912 0 LINE"
);
},
{
closed = 1;
nodes = (
"856 -20 OFFCURVE",
"1099 262 OFFCURVE",
"1099 766 CURVE",
"835 766 LINE",
"835 415 OFFCURVE",
"742 221 OFFCURVE",
"576 221 CURVE SMOOTH",
"490 221 OFFCURVE",
"438 272 OFFCURVE",
"438 354 CURVE SMOOTH",
"438 460 OFFCURVE",
"518 537 OFFCURVE",
"663 566 CURVE",
"553 771 LINE",
"307 730 OFFCURVE",
"169 571 OFFCURVE",
"169 327 CURVE SMOOTH",
"169 113 OFFCURVE",
"318 -20 OFFCURVE",
"552 -20 CURVE SMOOTH"
);
},
{
closed = 1;
nodes = (
"1191 0 LINE",
"693 781 LINE SMOOTH",
"633 874 OFFCURVE",
"607 949 OFFCURVE",
"607 1050 CURVE SMOOTH",
"607 1146 OFFCURVE",
"633 1189 OFFCURVE",
"686 1189 CURVE",
"687 1440 LINE",
"459 1440 OFFCURVE",
"329 1314 OFFCURVE",
"329 1094 CURVE SMOOTH",
"329 968 OFFCURVE",
"363 840 OFFCURVE",
"456 692 CURVE SMOOTH",
"892 0 LINE"
);
},
{
closed = 1;
nodes = (
"1878 -20 OFFCURVE",
"2119 262 OFFCURVE",
"2119 766 CURVE",
"1855 766 LINE",
"1855 416 OFFCURVE",
"1762 221 OFFCURVE",
"1596 221 CURVE SMOOTH",
"1510 221 OFFCURVE",
"1458 272 OFFCURVE",
"1458 354 CURVE SMOOTH",
"1458 460 OFFCURVE",
"1539 537 OFFCURVE",
"1683 566 CURVE",
"1573 771 LINE",
"1327 730 OFFCURVE",
"1189 571 OFFCURVE",
"1189 327 CURVE SMOOTH",
"1189 113 OFFCURVE",
"1338 -20 OFFCURVE",
"1572 -20 CURVE SMOOTH"
);
},
{
closed = 1;
nodes = (
"1047 1072 LINE",
"1047 1306 OFFCURVE",
"915 1440 OFFCURVE",
"687 1440 CURVE",
"686 1189 LINE",
"731 1189 OFFCURVE",
"758 1147 OFFCURVE",
"758 1072 CURVE"
);
},
{
closed = 1;
nodes = (
"2067 1072 LINE",
"2067 1307 OFFCURVE",
"1938 1440 OFFCURVE",
"1707 1440 CURVE",
"1707 1189 LINE",
"1752 1189 OFFCURVE",
"1778 1147 OFFCURVE",
"1778 1072 CURVE"
);
}
);
width = 1200;
}
);
}
{
glyphname = asciicircum_equal.liga;
layers = (
{
layerId = master01;
paths = (
{
closed = 1;
nodes = (
"321 658 LINE",
"670 1340 LINE",
"678 1340 LINE",
"896 914 LINE",
"996 914 LINE",
"735 1420 LINE",
"613 1420 LINE",
"219 658 LINE"
);
},
{
closed = 1;
nodes = (
"2120 414 LINE",
"2120 504 LINE",
"1136 504 LINE",
"1136 414 LINE"
);
},
{
closed = 1;
nodes = (
"2120 914 LINE",
"2120 1004 LINE",
"896 1004 LINE",
"896 914 LINE"
);
}
);
width = 1200;
},
{
layerId = "1F90C004-9C90-48FA-B407-176B3E9F1E65";
paths = (
{
closed = 1;
nodes = (
"440 658 LINE",
"666 1260 LINE",
"684 1260 LINE",
"836 866 LINE",
"1056 866 LINE",
"810 1420 LINE",
"540 1420 LINE",
"220 658 LINE"
);
},
{
closed = 1;
nodes = (
"2120 366 LINE",
"2120 552 LINE",
"1136 552 LINE",
"1136 366 LINE"
);
},
{
closed = 1;
nodes = (
"2120 866 LINE",
"2120 1052 LINE",
"836 1052 LINE",
"836 866 LINE"
);
}
);
width = 1200;
},
{
layerId = "8E053A5E-67DA-4970-A6F5-068DBFE5AD21";
paths = (
{
closed = 1;
nodes = (
"456 658 LINE",
"667 1210 LINE",
"685 1210 LINE",
"825 835 LINE",
"1087 835 LINE",
"827 1420 LINE",
"524 1420 LINE",
"194 658 LINE"
);
},
{
closed = 1;
nodes = (
"2120 333 LINE",
"2120 583 LINE",
"1136 583 LINE",
"1136 333 LINE"
);
},
{
closed = 1;
nodes = (
"2120 835 LINE",
"2120 1085 LINE",
"836 1085 LINE",
"836 835 LINE"
);
}
);
width = 1200;
}
);
}
{
glyphname = asciitilde_asciitilde.liga;
layers = (
{
layerId = master01;
paths = (
{
closed = 1;
nodes = (
"400 446 LINE",
"400 531 LINE SMOOTH",
"400 677 OFFCURVE",
"449 749 OFFCURVE",
"549 749 CURVE SMOOTH",
"598 749 OFFCURVE",
"660 720 OFFCURVE",
"735 661 CURVE SMOOTH",
"809 604 OFFCURVE",
"883 574 OFFCURVE",
"960 574 CURVE SMOOTH",
"1060 574 OFFCURVE",
"1156 629 OFFCURVE",
"1250 739 CURVE SMOOTH",
"1308 806 OFFCURVE",
"1368 839 OFFCURVE",
"1429 839 CURVE SMOOTH",
"1492 839 OFFCURVE",
"1557 813 OFFCURVE",
"1625 761 CURVE SMOOTH",
"1709 696 OFFCURVE",
"1783 664 OFFCURVE",
"1850 664 CURVE SMOOTH",
"2014 664 OFFCURVE",
"2096 770 OFFCURVE",
"2096 984 CURVE SMOOTH",
"2096 1060 LINE",
"2000 1060 LINE",
"2000 965 LINE SMOOTH",
"2000 825 OFFCURVE",
"1948 756 OFFCURVE",
"1843 756 CURVE SMOOTH",
"1801 756 OFFCURVE",
"1740 786 OFFCURVE",
"1657 847 CURVE SMOOTH",
"1579 903 OFFCURVE",
"1504 931 OFFCURVE",
"1430 931 CURVE SMOOTH",
"1337 931 OFFCURVE",
"1252 884 OFFCURVE",
"1173 789 CURVE SMOOTH",
"1102 707 OFFCURVE",
"1033 666 OFFCURVE",
"963 666 CURVE SMOOTH",
"906 666 OFFCURVE",
"846 692 OFFCURVE",
"780 740 CURVE SMOOTH",
"689 808 OFFCURVE",
"612 841 OFFCURVE",
"550 841 CURVE SMOOTH",
"386 841 OFFCURVE",
"304 735 OFFCURVE",
"304 521 CURVE SMOOTH",
"304 446 LINE"
);
}
);
width = 1200;
},
{
layerId = "1F90C004-9C90-48FA-B407-176B3E9F1E65";
paths = (
{
closed = 1;
nodes = (
"484 446 LINE",
"484 536 LINE SMOOTH",
"484 619 OFFCURVE",
"515 655 OFFCURVE",
"589 655 CURVE SMOOTH",
"642 655 OFFCURVE",
"699 620 OFFCURVE",
"760 587 CURVE SMOOTH",
"831 550 OFFCURVE",
"910 520 OFFCURVE",
"990 520 CURVE SMOOTH",
"1141 520 OFFCURVE",
"1208 603 OFFCURVE",
"1270 675 CURVE SMOOTH",
"1313 725 OFFCURVE",
"1344 785 OFFCURVE",
"1449 785 CURVE SMOOTH",
"1552 785 OFFCURVE",
"1590 753 OFFCURVE",
"1665 717 CURVE SMOOTH",
"1726 688 OFFCURVE",
"1777 650 OFFCURVE",
"1880 650 CURVE SMOOTH",
"2048 650 OFFCURVE",
"2120 749 OFFCURVE",
"2120 980 CURVE SMOOTH",
"2120 1060 LINE",
"1918 1060 LINE",
"1918 970 LINE SMOOTH",
"1918 887 OFFCURVE",
"1893 851 OFFCURVE",
"1833 851 CURVE SMOOTH",
"1794 851 OFFCURVE",
"1746 877 OFFCURVE",
"1677 912 CURVE SMOOTH",
"1590 956 OFFCURVE",
"1518 986 OFFCURVE",
"1450 986 CURVE SMOOTH",
"1309 986 OFFCURVE",
"1228 926 OFFCURVE",
"1173 854 CURVE SMOOTH",
"1109 771 OFFCURVE",
"1065 721 OFFCURVE",
"973 721 CURVE SMOOTH",
"898 721 OFFCURVE",
"846 740 OFFCURVE",
"800 765 CURVE SMOOTH",
"728 806 OFFCURVE",
"668 856 OFFCURVE",
"550 856 CURVE SMOOTH",
"361 856 OFFCURVE",
"280 757 OFFCURVE",
"280 526 CURVE SMOOTH",
"280 446 LINE"
);
}
);
width = 1200;
},
{
layerId = "8E053A5E-67DA-4970-A6F5-068DBFE5AD21";
paths = (
{
closed = 1;
nodes = (
"526 421 LINE",
"526 503 LINE SMOOTH",
"526 580 OFFCURVE",
"557 613 OFFCURVE",
"631 613 CURVE SMOOTH",
"674 613 OFFCURVE",
"720 597 OFFCURVE",
"768 570 CURVE SMOOTH",
"839 533 OFFCURVE",
"912 503 OFFCURVE",
"990 503 CURVE SMOOTH",
"1141 503 OFFCURVE",
"1212 574 OFFCURVE",
"1270 642 CURVE SMOOTH",
"1315 693 OFFCURVE",
"1351 752 OFFCURVE",
"1466 752 CURVE SMOOTH",
"1557 752 OFFCURVE",
"1595 711 OFFCURVE",
"1657 675 CURVE SMOOTH",
"1716 641 OFFCURVE",
"1773 600 OFFCURVE",
"1880 600 CURVE SMOOTH",
"2060 600 OFFCURVE",
"2137 714 OFFCURVE",
"2137 980 CURVE SMOOTH",
"2137 1077 LINE",
"1873 1077 LINE",
"1873 987 LINE SMOOTH",
"1873 915 OFFCURVE",
"1846 884 OFFCURVE",
"1783 884 CURVE SMOOTH",
"1747 884 OFFCURVE",
"1716 896 OFFCURVE",
"1635 954 CURVE SMOOTH",
"1558 1008 OFFCURVE",
"1488 1028 OFFCURVE",
"1425 1028 CURVE SMOOTH",
"1288 1028 OFFCURVE",
"1211 967 OFFCURVE",
"1156 896 CURVE SMOOTH",
"1096 818 OFFCURVE",
"1044 779 OFFCURVE",
"948 779 CURVE SMOOTH",
"865 779 OFFCURVE",
"829 793 OFFCURVE",
"758 832 CURVE SMOOTH",
"699 865 OFFCURVE",
"648 898 OFFCURVE",
"550 898 CURVE SMOOTH",
"349 898 OFFCURVE",
"263 786 OFFCURVE",
"263 526 CURVE SMOOTH",
"263 421 LINE"
);
}
);
width = 1200;
}
);
}
{
glyphname = asciitilde_asciitilde_greater.liga;
layers = (
{
components = (
{
name = greater.alt;
transform = "{1, 0, 0, 1, 2400, 0}";
}
);
layerId = master01;
paths = (
{
closed = 1;
nodes = (
"1535 878 OFFCURVE",
"1426 821 OFFCURVE",
"1321 766 CURVE SMOOTH",
"1241 724 OFFCURVE",
"1159 691 OFFCURVE",
"1086 691 CURVE SMOOTH",
"1007 691 OFFCURVE",
"934 733 OFFCURVE",
"857 771 CURVE SMOOTH",
"753 822 OFFCURVE",
"644 878 OFFCURVE",
"520 878 CURVE SMOOTH",
"319 878 OFFCURVE",
"224 779 OFFCURVE",
"224 577 CURVE SMOOTH",
"224 487 LINE",
"320 487 LINE",
"320 557 LINE SMOOTH",
"320 716 OFFCURVE",
"389 793 OFFCURVE",
"522 793 CURVE SMOOTH",
"610 793 OFFCURVE",
"688 746 OFFCURVE",
"771 703 CURVE SMOOTH",
"863 657 OFFCURVE",
"966 601 OFFCURVE",
"1080 601 CURVE SMOOTH",
"1178 601 OFFCURVE",
"1290 648 OFFCURVE",
"1395 703 CURVE SMOOTH",
"1477 746 OFFCURVE",
"1558 787 OFFCURVE",
"1632 787 CURVE SMOOTH",
"1728 787 OFFCURVE",
"1803 759 OFFCURVE",
"1873 720 CURVE SMOOTH",
"1964 671 OFFCURVE",
"2055 621 OFFCURVE",
"2188 621 CURVE SMOOTH",
"2438 621 OFFCURVE",
"2534 718 OFFCURVE",
"2790 718 CURVE SMOOTH",
"3010 718 OFFCURVE",
"3076 669 OFFCURVE",
"3265 669 CURVE",
"3265 755 LINE",
"3076 755 OFFCURVE",
"3010 808 OFFCURVE",
"2788 808 CURVE SMOOTH",
"2535 808 OFFCURVE",
"2437 711 OFFCURVE",
"2194 711 CURVE SMOOTH",
"2096 711 OFFCURVE",
"2023 752 OFFCURVE",
"1946 793 CURVE SMOOTH",
"1860 841 OFFCURVE",
"1763 878 OFFCURVE",
"1630 878 CURVE SMOOTH"
);
}
);
width = 1200;
},
{
components = (
{
name = greater.alt;
transform = "{1, 0, 0, 1, 2383, 0}";
}
);
layerId = "1F90C004-9C90-48FA-B407-176B3E9F1E65";
paths = (
{
closed = 1;
nodes = (
"1505 924 OFFCURVE",
"1396 867 OFFCURVE",
"1291 812 CURVE SMOOTH",
"1211 770 OFFCURVE",
"1129 739 OFFCURVE",
"1056 739 CURVE SMOOTH",
"980 739 OFFCURVE",
"911 780 OFFCURVE",
"837 817 CURVE SMOOTH",
"738 866 OFFCURVE",
"637 924 OFFCURVE",
"520 924 CURVE SMOOTH",
"303 924 OFFCURVE",
"200 802 OFFCURVE",
"200 554 CURVE SMOOTH",
"200 486 LINE",
"402 486 LINE",
"402 534 LINE SMOOTH",
"402 661 OFFCURVE",
"443 723 OFFCURVE",
"522 723 CURVE SMOOTH",
"603 723 OFFCURVE",
"674 679 OFFCURVE",
"751 640 CURVE SMOOTH",
"841 595 OFFCURVE",
"940 538 OFFCURVE",
"1050 538 CURVE SMOOTH",
"1148 538 OFFCURVE",
"1260 585 OFFCURVE",
"1365 640 CURVE SMOOTH",
"1447 683 OFFCURVE",
"1528 723 OFFCURVE",
"1602 723 CURVE SMOOTH",
"1686 723 OFFCURVE",
"1750 692 OFFCURVE",
"1813 657 CURVE SMOOTH",
"1904 608 OFFCURVE",
"1995 558 OFFCURVE",
"2128 558 CURVE SMOOTH",
"2369 558 OFFCURVE",
"2463 643 OFFCURVE",
"2710 643 CURVE SMOOTH",
"2948 643 OFFCURVE",
"3020 606 OFFCURVE",
"3225 606 CURVE",
"3225 802 LINE",
"3020 802 OFFCURVE",
"2948 844 OFFCURVE",
"2708 844 CURVE SMOOTH",
"2464 844 OFFCURVE",
"2369 759 OFFCURVE",
"2134 759 CURVE SMOOTH",
"2036 759 OFFCURVE",
"1963 798 OFFCURVE",
"1886 839 CURVE SMOOTH",
"1806 883 OFFCURVE",
"1720 924 OFFCURVE",
"1600 924 CURVE SMOOTH"
);
}
);
width = 1200;
},
{
components = (
{
name = greater.alt;
transform = "{1, 0, 0, 1, 2363, 0}";
}
);
layerId = "8E053A5E-67DA-4970-A6F5-068DBFE5AD21";
paths = (
{
closed = 1;
nodes = (
"1505 932 OFFCURVE",
"1396 875 OFFCURVE",
"1291 820 CURVE SMOOTH",
"1209 777 OFFCURVE",
"1121 747 OFFCURVE",
"1048 747 CURVE SMOOTH",
"974 747 OFFCURVE",
"908 789 OFFCURVE",
"837 825 CURVE SMOOTH",
"738 874 OFFCURVE",
"637 932 OFFCURVE",
"520 932 CURVE SMOOTH",
"291 932 OFFCURVE",
"183 808 OFFCURVE",
"183 554 CURVE SMOOTH",
"183 453 LINE",
"444 453 LINE",
"444 484 LINE SMOOTH",
"444 594 OFFCURVE",
"479 648 OFFCURVE",
"547 648 CURVE SMOOTH",
"631 648 OFFCURVE",
"701 591 OFFCURVE",
"784 548 CURVE SMOOTH",
"854 513 OFFCURVE",
"942 488 OFFCURVE",
"1033 488 CURVE SMOOTH",
"1136 488 OFFCURVE",
"1256 532 OFFCURVE",
"1365 590 CURVE SMOOTH",
"1447 633 OFFCURVE",
"1528 673 OFFCURVE",
"1602 673 CURVE SMOOTH",
"1686 673 OFFCURVE",
"1750 642 OFFCURVE",
"1813 607 CURVE SMOOTH",
"1904 558 OFFCURVE",
"1995 508 OFFCURVE",
"2128 508 CURVE SMOOTH",
"2344 508 OFFCURVE",
"2428 611 OFFCURVE",
"2650 611 CURVE SMOOTH",
"2874 611 OFFCURVE",
"2942 593 OFFCURVE",
"3135 593 CURVE",
"3135 814 LINE",
"2942 814 OFFCURVE",
"2874 851 OFFCURVE",
"2648 851 CURVE SMOOTH",
"2429 851 OFFCURVE",
"2344 767 OFFCURVE",
"2134 767 CURVE SMOOTH",
"2036 767 OFFCURVE",
"1963 806 OFFCURVE",
"1886 847 CURVE SMOOTH",
"1806 891 OFFCURVE",
"1720 932 OFFCURVE",
"1600 932 CURVE SMOOTH"
);
}
);
width = 1200;
}
);
}
{
glyphname = asciitilde_at.liga;
layers = (
{
layerId = master01;
paths = (
{
closed = 1;
nodes = (
"314 487 LINE",
"314 577 LINE SMOOTH",
"314 729 OFFCURVE",
"365 805 OFFCURVE",
"469 805 CURVE SMOOTH",
"540 805 OFFCURVE",
"606 732 OFFCURVE",
"704 615 CURVE SMOOTH",
"788 513 OFFCURVE",
"848 473 OFFCURVE",
"940 473 CURVE SMOOTH",
"1087 473 OFFCURVE",
"1184 557 OFFCURVE",
"1239 893 CURVE SMOOTH",
"1289 1198 OFFCURVE",
"1427 1349 OFFCURVE",
"1658 1349 CURVE SMOOTH",
"1872 1349 OFFCURVE",
"2012 1166 OFFCURVE",
"2012 887 CURVE SMOOTH",
"2012 524 LINE",
"2106 524 LINE",
"2106 893 LINE SMOOTH",
"2106 1222 OFFCURVE",
"1928 1439 OFFCURVE",
"1658 1439 CURVE SMOOTH",
"1378 1439 OFFCURVE",
"1210 1255 OFFCURVE",
"1146 883 CURVE SMOOTH",
"1100 617 OFFCURVE",
"1039 565 OFFCURVE",
"939 565 CURVE SMOOTH",
"875 565 OFFCURVE",
"829 607 OFFCURVE",
"745 703 CURVE SMOOTH",
"641 822 OFFCURVE",
"562 897 OFFCURVE",
"470 897 CURVE SMOOTH",
"306 897 OFFCURVE",
"224 788 OFFCURVE",
"224 567 CURVE SMOOTH",
"224 487 LINE"
);
},
{
closed = 1;
nodes = (
"1850 -203 OFFCURVE",
"1908 -196 OFFCURVE",
"1965 -178 CURVE",
"1965 -88 LINE",
"1913 -106 OFFCURVE",
"1854 -113 OFFCURVE",
"1768 -113 CURVE SMOOTH",
"1444 -113 OFFCURVE",
"1296 80 OFFCURVE",
"1283 530 CURVE",
"1256 502 OFFCURVE",
"1228 477 OFFCURVE",
"1199 457 CURVE",
"1227 -4 OFFCURVE",
"1402 -203 OFFCURVE",
"1768 -203 CURVE SMOOTH"
);
},
{
closed = 1;
nodes = (
"1884 148 OFFCURVE",
"1976 228 OFFCURVE",
"2005 370 CURVE",
"2024 370 LINE",
"2024 867 LINE",
"2005 867 LINE",
"1970 1009 OFFCURVE",
"1877 1089 OFFCURVE",
"1756 1089 CURVE SMOOTH",
"1563 1089 OFFCURVE",
"1454 935 OFFCURVE",
"1454 619 CURVE SMOOTH",
"1454 320 OFFCURVE",
"1563 148 OFFCURVE",
"1754 148 CURVE SMOOTH"
);
},
{
closed = 1;
nodes = (
"1623 238 OFFCURVE",
"1548 376 OFFCURVE",
"1548 620 CURVE SMOOTH",
"1548 884 OFFCURVE",
"1627 999 OFFCURVE",
"1766 999 CURVE SMOOTH",
"1924 999 OFFCURVE",
"2012 884 OFFCURVE",
"2012 620 CURVE SMOOTH",
"2012 376 OFFCURVE",
"1918 238 OFFCURVE",
"1752 238 CURVE SMOOTH"
);
},
{
closed = 1;
nodes = (
"2106 168 LINE",
"2106 769 LINE",
"2012 769 LINE",
"2012 168 LINE"
);
}
);
width = 1200;
},
{
layerId = "1F90C004-9C90-48FA-B407-176B3E9F1E65";
paths = (
{
closed = 1;
nodes = (
"404 488 LINE",
"404 558 LINE SMOOTH",
"404 655 OFFCURVE",
"435 697 OFFCURVE",
"509 697 CURVE SMOOTH",
"579 697 OFFCURVE",
"638 633 OFFCURVE",
"709 581 CURVE SMOOTH",
"784 525 OFFCURVE",
"856 472 OFFCURVE",
"942 472 CURVE SMOOTH",
"1089 472 OFFCURVE",
"1159 569 OFFCURVE",
"1217 800 CURVE SMOOTH",
"1302 1139 OFFCURVE",
"1438 1269 OFFCURVE",
"1668 1269 CURVE SMOOTH",
"1852 1269 OFFCURVE",
"1948 1142 OFFCURVE",
"1948 887 CURVE SMOOTH",
"1948 524 LINE",
"2120 524 LINE",
"2120 893 LINE SMOOTH",
"2120 1231 OFFCURVE",
"1971 1439 OFFCURVE",
"1666 1439 CURVE SMOOTH",
"1368 1439 OFFCURVE",
"1190 1285 OFFCURVE",
"1086 970 CURVE SMOOTH",
"1037 823 OFFCURVE",
"1035 673 OFFCURVE",
"932 673 CURVE SMOOTH",
"853 673 OFFCURVE",
"812 725 OFFCURVE",
"745 779 CURVE SMOOTH",
"661 847 OFFCURVE",
"573 898 OFFCURVE",
"470 898 CURVE SMOOTH",
"281 898 OFFCURVE",
"200 793 OFFCURVE",
"200 548 CURVE SMOOTH",
"200 488 LINE"
);
},
{
closed = 1;
nodes = (
"1840 -243 OFFCURVE",
"1898 -236 OFFCURVE",
"1955 -218 CURVE",
"1955 -38 LINE",
"1903 -56 OFFCURVE",
"1844 -63 OFFCURVE",
"1758 -63 CURVE SMOOTH",
"1466 -63 OFFCURVE",
"1334 121 OFFCURVE",
"1325 553 CURVE",
"1276 491 OFFCURVE",
"1222 446 OFFCURVE",
"1163 420 CURVE",
"1199 -42 OFFCURVE",
"1383 -243 OFFCURVE",
"1758 -243 CURVE SMOOTH"
);
},
{
closed = 1;
nodes = (
"1834 148 OFFCURVE",
"1912 232 OFFCURVE",
"1936 380 CURVE",
"2010 380 LINE",
"2010 857 LINE",
"1936 857 LINE",
"1906 1005 OFFCURVE",
"1828 1089 OFFCURVE",
"1726 1089 CURVE SMOOTH",
"1546 1089 OFFCURVE",
"1444 935 OFFCURVE",
"1444 619 CURVE SMOOTH",
"1444 320 OFFCURVE",
"1546 148 OFFCURVE",
"1724 148 CURVE SMOOTH"
);
},
{
closed = 1;
nodes = (
"1682 338 OFFCURVE",
"1624 440 OFFCURVE",
"1624 619 CURVE SMOOTH",
"1624 814 OFFCURVE",
"1686 899 OFFCURVE",
"1796 899 CURVE SMOOTH",
"1894 899 OFFCURVE",
"1948 799 OFFCURVE",
"1948 570 CURVE SMOOTH",
"1948 422 OFFCURVE",
"1888 338 OFFCURVE",
"1782 338 CURVE SMOOTH"
);
},
{
closed = 1;
nodes = (
"2120 168 LINE",
"2120 769 LINE",
"1948 769 LINE",
"1948 168 LINE"
);
}
);
width = 1200;
},
{
layerId = "8E053A5E-67DA-4970-A6F5-068DBFE5AD21";
paths = (
{
closed = 1;
nodes = (
"449 451 LINE",
"449 555 LINE SMOOTH",
"449 617 OFFCURVE",
"475 644 OFFCURVE",
"537 644 CURVE SMOOTH",
"593 644 OFFCURVE",
"641 605 OFFCURVE",
"696 566 CURVE SMOOTH",
"789 501 OFFCURVE",
"855 447 OFFCURVE",
"949 447 CURVE SMOOTH",
"1114 447 OFFCURVE",
"1216 557 OFFCURVE",
"1260 813 CURVE SMOOTH",
"1306 1077 OFFCURVE",
"1422 1202 OFFCURVE",
"1618 1202 CURVE SMOOTH",
"1803 1202 OFFCURVE",
"1898 1090 OFFCURVE",
"1898 862 CURVE SMOOTH",
"1898 499 LINE",
"2137 499 LINE",
"2137 868 LINE SMOOTH",
"2137 1245 OFFCURVE",
"1964 1439 OFFCURVE",
"1618 1439 CURVE SMOOTH",
"1314 1439 OFFCURVE",
"1126 1282 OFFCURVE",
"1046 963 CURVE SMOOTH",
"1003 790 OFFCURVE",
"993 731 OFFCURVE",
"904 731 CURVE SMOOTH",
"839 731 OFFCURVE",
"795 786 OFFCURVE",
"722 841 CURVE SMOOTH",
"645 899 OFFCURVE",
"569 928 OFFCURVE",
"478 928 CURVE SMOOTH",
"272 928 OFFCURVE",
"183 828 OFFCURVE",
"183 595 CURVE SMOOTH",
"183 451 LINE"
);
},
{
closed = 1;
nodes = (
"1857 -285 OFFCURVE",
"1915 -278 OFFCURVE",
"1972 -260 CURVE",
"1972 -21 LINE",
"1920 -39 OFFCURVE",
"1861 -46 OFFCURVE",
"1775 -46 CURVE SMOOTH",
"1499 -46 OFFCURVE",
"1380 139 OFFCURVE",
"1376 576 CURVE",
"1317 503 OFFCURVE",
"1240 449 OFFCURVE",
"1145 414 CURVE",
"1182 -74 OFFCURVE",
"1376 -285 OFFCURVE",
"1775 -285 CURVE SMOOTH"
);
},
{
closed = 1;
nodes = (
"1787 123 OFFCURVE",
"1856 207 OFFCURVE",
"1878 355 CURVE",
"1960 355 LINE",
"1960 832 LINE",
"1878 832 LINE",
"1851 980 OFFCURVE",
"1782 1064 OFFCURVE",
"1693 1064 CURVE SMOOTH",
"1567 1064 OFFCURVE",
"1496 910 OFFCURVE",
"1496 594 CURVE SMOOTH",
"1496 295 OFFCURVE",
"1567 123 OFFCURVE",
"1691 123 CURVE SMOOTH"
);
},
{
closed = 1;
nodes = (
"1721 346 OFFCURVE",
"1691 436 OFFCURVE",
"1691 594 CURVE SMOOTH",
"1691 766 OFFCURVE",
"1726 841 OFFCURVE",
"1788 841 CURVE SMOOTH",
"1859 841 OFFCURVE",
"1898 763 OFFCURVE",
"1898 586 CURVE SMOOTH",
"1898 433 OFFCURVE",
"1853 346 OFFCURVE",
"1774 346 CURVE SMOOTH"
);
},
{
closed = 1;
nodes = (
"2137 143 LINE",
"2137 744 LINE",
"1898 744 LINE",
"1898 143 LINE"
);
}
);
width = 1200;
}
);
}
{
glyphname = asciitilde_greater.liga;
layers = (
{
components = (
{
name = greater.alt;
transform = "{1, 0, 0, 1, 1200, -5}";
}
);
layerId = master01;
paths = (
{
closed = 1;
nodes = (
"320 486 LINE",
"320 588 LINE SMOOTH",
"320 720 OFFCURVE",
"396 784 OFFCURVE",
"542 784 CURVE SMOOTH",
"633 784 OFFCURVE",
"707 736 OFFCURVE",
"782 692 CURVE SMOOTH",
"871 639 OFFCURVE",
"963 592 OFFCURVE",
"1070 592 CURVE SMOOTH",
"1260 592 OFFCURVE",
"1376 709 OFFCURVE",
"1598 709 CURVE SMOOTH",
"1760 709 OFFCURVE",
"1891 661 OFFCURVE",
"2065 661 CURVE",
"2065 743 LINE",
"1903 743 OFFCURVE",
"1760 799 OFFCURVE",
"1598 799 CURVE SMOOTH",
"1376 799 OFFCURVE",
"1260 682 OFFCURVE",
"1076 682 CURVE SMOOTH",
"988 682 OFFCURVE",
"911 722 OFFCURVE",
"835 766 CURVE SMOOTH",
"746 818 OFFCURVE",
"652 874 OFFCURVE",
"540 874 CURVE SMOOTH",
"326 874 OFFCURVE",
"224 780 OFFCURVE",
"224 599 CURVE SMOOTH",
"224 486 LINE"
);
}
);
width = 1200;
},
{
components = (
{
name = greater.alt;
transform = "{1, 0, 0, 1, 1183, -5}";
}
);
layerId = "1F90C004-9C90-48FA-B407-176B3E9F1E65";
paths = (
{
closed = 1;
nodes = (
"402 486 LINE",
"402 534 LINE SMOOTH",
"402 661 OFFCURVE",
"443 723 OFFCURVE",
"522 723 CURVE SMOOTH",
"609 723 OFFCURVE",
"681 680 OFFCURVE",
"752 638 CURVE SMOOTH",
"836 588 OFFCURVE",
"920 538 OFFCURVE",
"1020 538 CURVE SMOOTH",
"1199 538 OFFCURVE",
"1309 653 OFFCURVE",
"1518 653 CURVE SMOOTH",
"1698 653 OFFCURVE",
"1842 612 OFFCURVE",
"2035 612 CURVE",
"2035 792 LINE",
"1855 792 OFFCURVE",
"1698 854 OFFCURVE",
"1518 854 CURVE SMOOTH",
"1308 854 OFFCURVE",
"1199 739 OFFCURVE",
"1026 739 CURVE SMOOTH",
"945 739 OFFCURVE",
"876 780 OFFCURVE",
"805 821 CURVE SMOOTH",
"718 872 OFFCURVE",
"628 924 OFFCURVE",
"520 924 CURVE SMOOTH",
"303 924 OFFCURVE",
"200 802 OFFCURVE",
"200 554 CURVE SMOOTH",
"200 486 LINE"
);
}
);
width = 1200;
},
{
components = (
{
name = greater.alt;
transform = "{1, 0, 0, 1, 1163, -5}";
}
);
layerId = "8E053A5E-67DA-4970-A6F5-068DBFE5AD21";
paths = (
{
closed = 1;
nodes = (
"447 454 LINE",
"447 534 LINE SMOOTH",
"447 611 OFFCURVE",
"481 648 OFFCURVE",
"547 648 CURVE SMOOTH",
"621 648 OFFCURVE",
"690 600 OFFCURVE",
"744 563 CURVE SMOOTH",
"823 508 OFFCURVE",
"896 488 OFFCURVE",
"987 488 CURVE SMOOTH",
"1171 488 OFFCURVE",
"1284 613 OFFCURVE",
"1500 613 CURVE SMOOTH",
"1654 613 OFFCURVE",
"1779 587 OFFCURVE",
"1945 587 CURVE",
"1945 817 LINE",
"1791 817 OFFCURVE",
"1654 864 OFFCURVE",
"1500 864 CURVE SMOOTH",
"1306 864 OFFCURVE",
"1202 747 OFFCURVE",
"1043 747 CURVE SMOOTH",
"958 747 OFFCURVE",
"887 787 OFFCURVE",
"813 829 CURVE SMOOTH",
"717 886 OFFCURVE",
"610 932 OFFCURVE",
"487 932 CURVE SMOOTH",
"281 932 OFFCURVE",
"183 808 OFFCURVE",
"183 554 CURVE SMOOTH",
"183 454 LINE"
);
}
);
width = 1200;
}
);
}
{
glyphname = asciitilde_hyphen.liga;
layers = (
{
layerId = master01;
paths = (
{
closed = 1;
nodes = (
"1114 480 OFFCURVE",
"1176 559 OFFCURVE",
"1176 730 CURVE SMOOTH",
"1176 740 LINE",
"1086 740 LINE",
"1086 720 LINE SMOOTH",
"1086 617 OFFCURVE",
"1052 570 OFFCURVE",
"979 570 CURVE SMOOTH",
"910 570 OFFCURVE",
"834 616 OFFCURVE",
"735 717 CURVE SMOOTH",
"608 846 OFFCURVE",
"550 896 OFFCURVE",
"450 896 CURVE SMOOTH",
"292 896 OFFCURVE",
"224 797 OFFCURVE",
"224 566 CURVE SMOOTH",
"224 486 LINE",
"314 486 LINE",
"314 576 LINE SMOOTH",
"314 737 OFFCURVE",
"354 806 OFFCURVE",
"449 806 CURVE SMOOTH",
"527 806 OFFCURVE",
"574 755 OFFCURVE",
"694 634 CURVE SMOOTH",
"799 528 OFFCURVE",
"888 480 OFFCURVE",
"980 480 CURVE SMOOTH"
);
},
{
closed = 1;
nodes = (
"2120 654 LINE",
"2120 744 LINE",
"1087 744 LINE",
"1087 654 LINE"
);
}
);
width = 1200;
},
{
layerId = "1F90C004-9C90-48FA-B407-176B3E9F1E65";
paths = (
{
closed = 1;
nodes = (
"1176 470 OFFCURVE",
"1251 563 OFFCURVE",
"1251 780 CURVE SMOOTH",
"1251 792 LINE",
"1049 792 LINE",
"1049 770 LINE SMOOTH",
"1049 701 OFFCURVE",
"1024 671 OFFCURVE",
"964 671 CURVE SMOOTH",
"884 671 OFFCURVE",
"824 740 OFFCURVE",
"731 807 CURVE SMOOTH",
"652 864 OFFCURVE",
"568 896 OFFCURVE",
"471 896 CURVE SMOOTH",
"282 896 OFFCURVE",
"201 797 OFFCURVE",
"201 566 CURVE SMOOTH",
"201 486 LINE",
"403 486 LINE",
"403 576 LINE SMOOTH",
"403 659 OFFCURVE",
"435 695 OFFCURVE",
"510 695 CURVE SMOOTH",
"571 695 OFFCURVE",
"625 651 OFFCURVE",
"685 609 CURVE SMOOTH",
"786 538 OFFCURVE",
"884 470 OFFCURVE",
"1001 470 CURVE SMOOTH"
);
},
{
closed = 1;
nodes = (
"2120 606 LINE",
"2120 792 LINE",
"1060 792 LINE",
"1060 606 LINE"
);
}
);
width = 1200;
},
{
layerId = "8E053A5E-67DA-4970-A6F5-068DBFE5AD21";
paths = (
{
closed = 1;
nodes = (
"1237 432 OFFCURVE",
"1317 531 OFFCURVE",
"1317 762 CURVE SMOOTH",
"1317 834 LINE",
"1053 834 LINE",
"1053 802 LINE SMOOTH",
"1053 742 OFFCURVE",
"1031 716 OFFCURVE",
"976 716 CURVE SMOOTH",
"892 716 OFFCURVE",
"822 781 OFFCURVE",
"730 840 CURVE SMOOTH",
"656 890 OFFCURVE",
"572 929 OFFCURVE",
"478 929 CURVE SMOOTH",
"272 929 OFFCURVE",
"183 830 OFFCURVE",
"183 599 CURVE SMOOTH",
"183 453 LINE",
"449 453 LINE",
"449 559 LINE SMOOTH",
"449 619 OFFCURVE",
"475 645 OFFCURVE",
"537 645 CURVE SMOOTH",
"595 645 OFFCURVE",
"661 602 OFFCURVE",
"724 566 CURVE SMOOTH",
"830 506 OFFCURVE",
"923 432 OFFCURVE",
"1052 432 CURVE SMOOTH"
);
},
{
closed = 1;
nodes = (
"2122 584 LINE",
"2122 834 LINE",
"1062 834 LINE",
"1062 584 LINE"
);
}
);
width = 1200;
}
);
}
{
glyphname = asterisk_parenright.liga;
layers = (
{
components = (
{
name = asterisk;
transform = "{1, 0, 0, 1, 205, 0}";
}
);
layerId = master01;
paths = (
{
closed = 1;
nodes = (
"1346 -200 LINE SMOOTH",
"1865 -200 OFFCURVE",
"2162 133 OFFCURVE",
"2162 716 CURVE SMOOTH",
"2162 1291 OFFCURVE",
"1865 1620 OFFCURVE",
"1346 1620 CURVE SMOOTH",
"1318 1620 LINE",
"1318 1530 LINE",
"1346 1530 LINE SMOOTH",
"1806 1530 OFFCURVE",
"2066 1232 OFFCURVE",
"2066 716 CURVE SMOOTH",
"2066 192 OFFCURVE",
"1806 -110 OFFCURVE",
"1346 -110 CURVE SMOOTH",
"1318 -110 LINE",
"1318 -200 LINE"
);
}
);
width = 1200;
},
{
components = (
{
name = asterisk;
transform = "{1, 0, 0, 1, 205, 0}";
}
);
layerId = "1F90C004-9C90-48FA-B407-176B3E9F1E65";
paths = (
{
closed = 1;
nodes = (
"1362 -200 LINE SMOOTH",
"1885 -200 OFFCURVE",
"2186 133 OFFCURVE",
"2186 716 CURVE SMOOTH",
"2186 1291 OFFCURVE",
"1885 1620 OFFCURVE",
"1362 1620 CURVE SMOOTH",
"1314 1620 LINE",
"1314 1440 LINE",
"1342 1440 LINE SMOOTH",
"1748 1440 OFFCURVE",
"1976 1175 OFFCURVE",
"1976 716 CURVE SMOOTH",
"1976 249 OFFCURVE",
"1748 -20 OFFCURVE",
"1342 -20 CURVE SMOOTH",
"1314 -20 LINE",
"1314 -200 LINE"
);
}
);
width = 1200;
},
{
components = (
{
alignment = -1;
name = asterisk;
transform = "{1, 0, 0, 1, 205, 0}";
}
);
layerId = "8E053A5E-67DA-4970-A6F5-068DBFE5AD21";
paths = (
{
closed = 1;
nodes = (
"1382 -200 LINE SMOOTH",
"1904 -200 OFFCURVE",
"2203 133 OFFCURVE",
"2203 716 CURVE SMOOTH",
"2203 1291 OFFCURVE",
"1904 1620 OFFCURVE",
"1382 1620 CURVE SMOOTH",
"1338 1620 LINE",
"1338 1369 LINE",
"1382 1369 LINE SMOOTH",
"1730 1369 OFFCURVE",
"1926 1130 OFFCURVE",
"1926 716 CURVE SMOOTH",
"1926 294 OFFCURVE",
"1730 51 OFFCURVE",
"1382 51 CURVE SMOOTH",
"1338 51 LINE",
"1338 -200 LINE"
);
}
);
width = 1200;
}
);
}
{
glyphname = bar_bar_bar_greater.liga;
layers = (
{
components = (
{
name = bar;
transform = "{1, 0, 0, 1, 356, 0}";
},
{
name = bar;
transform = "{1, 0, 0, 1, 1356, 0}";
}
);
layerId = master01;
paths = (
{
closed = 1;
nodes = (
"4300 648 LINE",
"4300 770 LINE",
"2796 1430 LINE",
"2796 -10 LINE"
);
},
{
closed = 1;
nodes = (
"2890 1355 LINE",
"2811 1314 LINE",
"4182 718 LINE",
"4182 700 LINE",
"2811 107 LINE",
"2890 65 LINE"
);
}
);
width = 1200;
},
{
components = (
{
name = bar;
transform = "{1, 0, 0, 1, 356, 0}";
},
{
name = bar;
transform = "{1, 0, 0, 1, 1356, 0}";
}
);
layerId = "1F90C004-9C90-48FA-B407-176B3E9F1E65";
paths = (
{
closed = 1;
nodes = (
"4300 608 LINE",
"4300 810 LINE",
"2796 1430 LINE",
"2796 -10 LINE"
);
},
{
closed = 1;
nodes = (
"3004 1199 LINE",
"2916 1144 LINE",
"4022 718 LINE",
"4022 700 LINE",
"2916 275 LINE",
"3004 220 LINE"
);
}
);
width = 1200;
},
{
components = (
{
alignment = -1;
name = bar;
transform = "{1, 0, 0, 1, 356, 0}";
},
{
alignment = -1;
name = bar;
transform = "{1, 0, 0, 1, 1356, 0}";
}
);
layerId = "8E053A5E-67DA-4970-A6F5-068DBFE5AD21";
paths = (
{
closed = 1;
nodes = (
"4300 575 LINE",
"4300 843 LINE",
"2796 1430 LINE",
"2796 -10 LINE"
);
},
{
closed = 1;
nodes = (
"3063 1116 LINE",
"2982 1059 LINE",
"3950 726 LINE",
"3950 692 LINE",
"2982 360 LINE",
"3063 303 LINE"
);
}
);
width = 1200;
}
);
}
{
glyphname = bar_bar_equal_middle.seq;
layers = (
{
components = (
{
name = bar;
transform = "{1, 0, 0, 1, 1020, 0}";
},
{
name = bar;
transform = "{1, 0, 0, 1, 180, 0}";
}
);
layerId = master01;
paths = (
{
closed = 1;
nodes = (
"800 914 LINE",
"800 1004 LINE",
"-50 1004 LINE",
"-50 914 LINE"
);
},
{
closed = 1;
nodes = (
"800 414 LINE",
"800 504 LINE",
"-50 504 LINE",
"-50 414 LINE"
);
},
{
closed = 1;
nodes = (
"2450 914 LINE",
"2450 1004 LINE",
"1597 1004 LINE",
"1597 914 LINE"
);
},
{
closed = 1;
nodes = (
"2450 414 LINE",
"2450 504 LINE",
"1597 504 LINE",
"1597 414 LINE"
);
}
);
width = 1200;
},
{
components = (
{
name = bar;
transform = "{1, 0, 0, 1, 1020, 0}";
},
{
name = bar;
transform = "{1, 0, 0, 1, 180, 0}";
}
);
layerId = "1F90C004-9C90-48FA-B407-176B3E9F1E65";
paths = (
{
closed = 1;
nodes = (
"834 866 LINE",
"834 1052 LINE",
"-50 1052 LINE",
"-50 866 LINE"
);
},
{
closed = 1;
nodes = (
"834 366 LINE",
"834 552 LINE",
"-50 552 LINE",
"-50 366 LINE"
);
},
{
closed = 1;
nodes = (
"2450 866 LINE",
"2450 1052 LINE",
"1568 1052 LINE",
"1568 866 LINE"
);
},
{
closed = 1;
nodes = (
"2450 366 LINE",
"2450 552 LINE",
"1568 552 LINE",
"1568 366 LINE"
);
}
);
width = 1200;
},
{
components = (
{
name = bar;
transform = "{1, 0, 0, 1, 1020, 0}";
},
{
name = bar;
transform = "{1, 0, 0, 1, 180, 0}";
}
);
layerId = "8E053A5E-67DA-4970-A6F5-068DBFE5AD21";
paths = (
{
closed = 1;
nodes = (
"845 835 LINE",
"845 1085 LINE",
"-50 1085 LINE",
"-50 835 LINE"
);
},
{
closed = 1;
nodes = (
"845 333 LINE",
"845 583 LINE",
"-50 583 LINE",
"-50 333 LINE"
);
},
{
closed = 1;
nodes = (
"2450 835 LINE",
"2450 1085 LINE",
"1543 1085 LINE",
"1543 835 LINE"
);
},
{
closed = 1;
nodes = (
"2450 333 LINE",
"2450 583 LINE",
"1543 583 LINE",
"1543 333 LINE"
);
}
);
width = 1200;
}
);
}
{
glyphname = bar_bar_equal_start.seq;
layers = (
{
components = (
{
name = bar;
transform = "{1, 0, 0, 1, 1020, 0}";
},
{
name = bar;
transform = "{1, 0, 0, 1, 180, 0}";
}
);
layerId = master01;
paths = (
{
closed = 1;
nodes = (
"2420 414 LINE",
"2420 504 LINE",
"1597 504 LINE",
"1597 414 LINE"
);
},
{
closed = 1;
nodes = (
"2420 914 LINE",
"2420 1004 LINE",
"1597 1004 LINE",
"1597 914 LINE"
);
}
);
width = 1200;
},
{
components = (
{
name = bar;
transform = "{1, 0, 0, 1, 1020, 0}";
},
{
name = bar;
transform = "{1, 0, 0, 1, 180, 0}";
}
);
layerId = "1F90C004-9C90-48FA-B407-176B3E9F1E65";
paths = (
{
closed = 1;
nodes = (
"2420 366 LINE",
"2420 552 LINE",
"1598 552 LINE",
"1598 366 LINE"
);
},
{
closed = 1;
nodes = (
"2420 866 LINE",
"2420 1052 LINE",
"1598 1052 LINE",
"1598 866 LINE"
);
}
);
width = 1200;
},
{
components = (
{
name = bar;
transform = "{1, 0, 0, 1, 1020, 0}";
},
{
name = bar;
transform = "{1, 0, 0, 1, 180, 0}";
}
);
layerId = "8E053A5E-67DA-4970-A6F5-068DBFE5AD21";
paths = (
{
closed = 1;
nodes = (
"2420 333 LINE",
"2420 583 LINE",
"1543 583 LINE",
"1543 333 LINE"
);
},
{
closed = 1;
nodes = (
"2420 835 LINE",
"2420 1085 LINE",
"1543 1085 LINE",
"1543 835 LINE"
);
}
);
width = 1200;
}
);
}
{
glyphname = bar_bar_greater.liga;
layers = (
{
components = (
{
name = bar;
transform = "{-1, 0, 0, 1, 1460, 0}";
}
);
layerId = master01;
paths = (
{
closed = 1;
nodes = (
"3055 648 LINE",
"3055 770 LINE",
"1551 1430 LINE",
"1551 -10 LINE"
);
},
{
closed = 1;
nodes = (
"1645 1355 LINE",
"1566 1314 LINE",
"2937 718 LINE",
"2937 700 LINE",
"1566 107 LINE",
"1645 65 LINE"
);
}
);
width = 1200;
},
{
components = (
{
name = bar;
transform = "{-1, 0, 0, 1, 1460, 0}";
}
);
layerId = "1F90C004-9C90-48FA-B407-176B3E9F1E65";
paths = (
{
closed = 1;
nodes = (
"3055 608 LINE",
"3055 810 LINE",
"1551 1430 LINE",
"1551 -10 LINE"
);
},
{
closed = 1;
nodes = (
"1759 1199 LINE",
"1671 1144 LINE",
"2777 718 LINE",
"2777 700 LINE",
"1671 275 LINE",
"1759 220 LINE"
);
}
);
width = 1200;
},
{
components = (
{
alignment = -1;
name = bar;
transform = "{-1, 0, 0, 1, 1460, 0}";
}
);
layerId = "8E053A5E-67DA-4970-A6F5-068DBFE5AD21";
paths = (
{
closed = 1;
nodes = (
"3055 575 LINE",
"3055 843 LINE",
"1551 1430 LINE",
"1551 -10 LINE"
);
},
{
closed = 1;
nodes = (
"1818 1116 LINE",
"1737 1059 LINE",
"2705 726 LINE",
"2705 692 LINE",
"1737 360 LINE",
"1818 303 LINE"
);
}
);
width = 1200;
}
);
}
{
glyphname = bar_bar_hyphen_end.seq;
layers = (
{
components = (
{
name = bar;
transform = "{1, 0, 0, 1, 1020, 0}";
},
{
name = bar;
transform = "{1, 0, 0, 1, 180, 0}";
}
);
layerId = master01;
paths = (
{
closed = 1;
nodes = (
"791 664 LINE",
"791 754 LINE",
"-20 754 LINE",
"-20 664 LINE"
);
}
);
width = 1200;
},
{
components = (
{
name = bar;
transform = "{1, 0, 0, 1, 1020, 0}";
},
{
name = bar;
transform = "{1, 0, 0, 1, 180, 0}";
}
);
layerId = "1F90C004-9C90-48FA-B407-176B3E9F1E65";
paths = (
{
closed = 1;
nodes = (
"802 616 LINE",
"802 802 LINE",
"-20 802 LINE",
"-20 616 LINE"
);
}
);
width = 1200;
},
{
components = (
{
name = bar;
transform = "{1, 0, 0, 1, 1020, 0}";
},
{
name = bar;
transform = "{1, 0, 0, 1, 180, 0}";
}
);
layerId = "8E053A5E-67DA-4970-A6F5-068DBFE5AD21";
paths = (
{
closed = 1;
nodes = (
"821 584 LINE",
"821 834 LINE",
"-20 834 LINE",
"-20 584 LINE"
);
}
);
width = 1200;
}
);
}
{
glyphname = bar_bar_hyphen_middle.seq;
layers = (
{
components = (
{
name = bar;
transform = "{1, 0, 0, 1, 1020, 0}";
},
{
name = bar;
transform = "{1, 0, 0, 1, 180, 0}";
}
);
layerId = master01;
paths = (
{
closed = 1;
nodes = (
"2450 664 LINE",
"2450 754 LINE",
"1601 754 LINE",
"1601 664 LINE"
);
},
{
closed = 1;
nodes = (
"791 664 LINE",
"791 754 LINE",
"-50 754 LINE",
"-50 664 LINE"
);
}
);
width = 1200;
},
{
components = (
{
name = bar;
transform = "{1, 0, 0, 1, 1020, 0}";
},
{
name = bar;
transform = "{1, 0, 0, 1, 180, 0}";
}
);
layerId = "1F90C004-9C90-48FA-B407-176B3E9F1E65";
paths = (
{
closed = 1;
nodes = (
"2450 616 LINE",
"2450 802 LINE",
"1587 802 LINE",
"1587 616 LINE"
);
},
{
closed = 1;
nodes = (
"802 616 LINE",
"802 802 LINE",
"-50 802 LINE",
"-50 616 LINE"
);
}
);
width = 1200;
},
{
components = (
{
name = bar;
transform = "{1, 0, 0, 1, 1020, 0}";
},
{
name = bar;
transform = "{1, 0, 0, 1, 180, 0}";
}
);
layerId = "8E053A5E-67DA-4970-A6F5-068DBFE5AD21";
paths = (
{
closed = 1;
nodes = (
"2450 584 LINE",
"2450 834 LINE",
"1553 834 LINE",
"1553 584 LINE"
);
},
{
closed = 1;
nodes = (
"821 584 LINE",
"821 834 LINE",
"-50 834 LINE",
"-50 584 LINE"
);
}
);
width = 1200;
}
);
}
{
glyphname = bar_bar_hyphen_start.seq;
layers = (
{
components = (
{
name = bar;
transform = "{1, 0, 0, 1, 1020, 0}";
},
{
name = bar;
transform = "{1, 0, 0, 1, 180, 0}";
}
);
layerId = master01;
paths = (
{
closed = 1;
nodes = (
"2420 664 LINE",
"2420 754 LINE",
"1601 754 LINE",
"1601 664 LINE"
);
}
);
width = 1200;
},
{
components = (
{
name = bar;
transform = "{1, 0, 0, 1, 1020, 0}";
},
{
name = bar;
transform = "{1, 0, 0, 1, 180, 0}";
}
);
layerId = "1F90C004-9C90-48FA-B407-176B3E9F1E65";
paths = (
{
closed = 1;
nodes = (
"2420 616 LINE",
"2420 802 LINE",
"1587 802 LINE",
"1587 616 LINE"
);
}
);
width = 1200;
},
{
components = (
{
name = bar;
transform = "{1, 0, 0, 1, 1020, 0}";
},
{
name = bar;
transform = "{1, 0, 0, 1, 180, 0}";
}
);
layerId = "8E053A5E-67DA-4970-A6F5-068DBFE5AD21";
paths = (
{
closed = 1;
nodes = (
"2420 584 LINE",
"2420 834 LINE",
"1553 834 LINE",
"1553 584 LINE"
);
}
);
width = 1200;
}
);
}
{
glyphname = bar_braceright.liga;
layers = (
{
background = {
paths = (
{
closed = 1;
nodes = (
"1756 -214 OFFCURVE",
"1932 -77 OFFCURVE",
"1892 156 CURVE SMOOTH",
"1873 267 OFFCURVE",
"1810 375 OFFCURVE",
"1810 492 CURVE SMOOTH",
"1810 607 OFFCURVE",
"1925 640 OFFCURVE",
"2136 640 CURVE",
"2136 772 LINE",
"1931 772 OFFCURVE",
"1810 832 OFFCURVE",
"1810 938 CURVE SMOOTH",
"1810 1060 OFFCURVE",
"1872 1164 OFFCURVE",
"1892 1274 CURVE SMOOTH",
"1932 1498 OFFCURVE",
"1756 1626 OFFCURVE",
"1530 1626 CURVE SMOOTH",
"1417 1626 OFFCURVE",
"1348 1618 OFFCURVE",
"1284 1606 CURVE",
"1298 1524 LINE",
"1377 1531 OFFCURVE",
"1450 1536 OFFCURVE",
"1512 1536 CURVE SMOOTH",
"1691 1536 OFFCURVE",
"1828 1439 OFFCURVE",
"1796 1274 CURVE SMOOTH",
"1774 1161 OFFCURVE",
"1710 1058 OFFCURVE",
"1710 942 CURVE SMOOTH",
"1710 796 OFFCURVE",
"1839 713 OFFCURVE",
"2058 710 CURVE",
"2058 702 LINE",
"1839 699 OFFCURVE",
"1710 618 OFFCURVE",
"1710 488 CURVE SMOOTH",
"1710 367 OFFCURVE",
"1776 264 OFFCURVE",
"1796 156 CURVE SMOOTH",
"1828 -21 OFFCURVE",
"1691 -124 OFFCURVE",
"1512 -124 CURVE SMOOTH",
"1450 -124 OFFCURVE",
"1376 -119 OFFCURVE",
"1297 -112 CURVE",
"1284 -194 LINE",
"1348 -206 OFFCURVE",
"1417 -214 OFFCURVE",
"1530 -214 CURVE SMOOTH"
);
}
);
};
components = (
{
name = bar;
transform = "{-1, 0, 0, 1, 1200, 0}";
}
);
layerId = master01;
paths = (
{
closed = 1;
nodes = (
"1756 -214 OFFCURVE",
"1932 -77 OFFCURVE",
"1892 156 CURVE SMOOTH",
"1873 267 OFFCURVE",
"1810 375 OFFCURVE",
"1810 492 CURVE SMOOTH",
"1810 607 OFFCURVE",
"1925 640 OFFCURVE",
"2136 640 CURVE",
"2136 772 LINE",
"1931 772 OFFCURVE",
"1810 832 OFFCURVE",
"1810 938 CURVE SMOOTH",
"1810 1060 OFFCURVE",
"1872 1164 OFFCURVE",
"1892 1274 CURVE SMOOTH",
"1932 1498 OFFCURVE",
"1756 1626 OFFCURVE",
"1530 1626 CURVE SMOOTH",
"1417 1626 OFFCURVE",
"1348 1618 OFFCURVE",
"1284 1606 CURVE",
"1298 1524 LINE",
"1377 1531 OFFCURVE",
"1450 1536 OFFCURVE",
"1512 1536 CURVE SMOOTH",
"1691 1536 OFFCURVE",
"1828 1439 OFFCURVE",
"1796 1274 CURVE SMOOTH",
"1774 1161 OFFCURVE",
"1710 1058 OFFCURVE",
"1710 942 CURVE SMOOTH",
"1710 796 OFFCURVE",
"1839 713 OFFCURVE",
"2058 710 CURVE",
"2058 702 LINE",
"1839 699 OFFCURVE",
"1710 618 OFFCURVE",
"1710 488 CURVE SMOOTH",
"1710 367 OFFCURVE",
"1776 264 OFFCURVE",
"1796 156 CURVE SMOOTH",
"1828 -21 OFFCURVE",
"1691 -124 OFFCURVE",
"1512 -124 CURVE SMOOTH",
"1450 -124 OFFCURVE",
"1376 -119 OFFCURVE",
"1297 -112 CURVE",
"1284 -194 LINE",
"1348 -206 OFFCURVE",
"1417 -214 OFFCURVE",
"1530 -214 CURVE SMOOTH"
);
}
);
width = 1200;
},
{
background = {
paths = (
{
closed = 1;
nodes = (
"1748 -214 OFFCURVE",
"1969 -51 OFFCURVE",
"1922 216 CURVE SMOOTH",
"1906 311 OFFCURVE",
"1850 396 OFFCURVE",
"1850 492 CURVE SMOOTH",
"1850 597 OFFCURVE",
"2050 627 OFFCURVE",
"2160 627 CURVE",
"2160 785 LINE",
"2054 785 OFFCURVE",
"1850 840 OFFCURVE",
"1850 938 CURVE SMOOTH",
"1850 1038 OFFCURVE",
"1906 1119 OFFCURVE",
"1922 1214 CURVE SMOOTH",
"1969 1472 OFFCURVE",
"1749 1626 OFFCURVE",
"1470 1626 CURVE SMOOTH",
"1374 1626 OFFCURVE",
"1314 1618 OFFCURVE",
"1260 1606 CURVE",
"1284 1432 LINE",
"1346 1438 OFFCURVE",
"1403 1442 OFFCURVE",
"1452 1442 CURVE SMOOTH",
"1610 1442 OFFCURVE",
"1732 1356 OFFCURVE",
"1708 1214 CURVE SMOOTH",
"1692 1117 OFFCURVE",
"1632 1037 OFFCURVE",
"1632 942 CURVE SMOOTH",
"1632 804 OFFCURVE",
"1744 726 OFFCURVE",
"1934 723 CURVE",
"1934 689 LINE",
"1744 686 OFFCURVE",
"1632 610 OFFCURVE",
"1632 488 CURVE SMOOTH",
"1632 389 OFFCURVE",
"1692 309 OFFCURVE",
"1708 216 CURVE SMOOTH",
"1736 61 OFFCURVE",
"1608 -30 OFFCURVE",
"1452 -30 CURVE SMOOTH",
"1403 -30 OFFCURVE",
"1346 -26 OFFCURVE",
"1284 -20 CURVE",
"1260 -194 LINE",
"1314 -206 OFFCURVE",
"1374 -214 OFFCURVE",
"1470 -214 CURVE SMOOTH"
);
}
);
};
components = (
{
name = bar;
transform = "{-1, 0, 0, 1, 1200, 0}";
}
);
layerId = "1F90C004-9C90-48FA-B407-176B3E9F1E65";
paths = (
{
closed = 1;
nodes = (
"1748 -214 OFFCURVE",
"1969 -51 OFFCURVE",
"1922 216 CURVE SMOOTH",
"1906 311 OFFCURVE",
"1850 396 OFFCURVE",
"1850 492 CURVE SMOOTH",
"1850 597 OFFCURVE",
"2050 627 OFFCURVE",
"2160 627 CURVE",
"2160 785 LINE",
"2054 785 OFFCURVE",
"1850 840 OFFCURVE",
"1850 938 CURVE SMOOTH",
"1850 1038 OFFCURVE",
"1906 1119 OFFCURVE",
"1922 1214 CURVE SMOOTH",
"1969 1472 OFFCURVE",
"1749 1626 OFFCURVE",
"1470 1626 CURVE SMOOTH",
"1374 1626 OFFCURVE",
"1314 1618 OFFCURVE",
"1260 1606 CURVE",
"1284 1432 LINE",
"1346 1438 OFFCURVE",
"1403 1442 OFFCURVE",
"1452 1442 CURVE SMOOTH",
"1610 1442 OFFCURVE",
"1732 1356 OFFCURVE",
"1708 1214 CURVE SMOOTH",
"1692 1117 OFFCURVE",
"1632 1037 OFFCURVE",
"1632 942 CURVE SMOOTH",
"1632 804 OFFCURVE",
"1744 726 OFFCURVE",
"1934 723 CURVE",
"1934 689 LINE",
"1744 686 OFFCURVE",
"1632 610 OFFCURVE",
"1632 488 CURVE SMOOTH",
"1632 389 OFFCURVE",
"1692 309 OFFCURVE",
"1708 216 CURVE SMOOTH",
"1736 61 OFFCURVE",
"1608 -30 OFFCURVE",
"1452 -30 CURVE SMOOTH",
"1403 -30 OFFCURVE",
"1346 -26 OFFCURVE",
"1284 -20 CURVE",
"1260 -194 LINE",
"1314 -206 OFFCURVE",
"1374 -214 OFFCURVE",
"1470 -214 CURVE SMOOTH"
);
}
);
width = 1200;
},
{
components = (
{
alignment = -1;
name = bar;
transform = "{-1, 0, 0, 1, 1200, 0}";
}
);
layerId = "8E053A5E-67DA-4970-A6F5-068DBFE5AD21";
paths = (
{
closed = 1;
nodes = (
"1745 -214 OFFCURVE",
"1892 -78 OFFCURVE",
"1892 156 CURVE SMOOTH",
"1892 252 OFFCURVE",
"1850 344 OFFCURVE",
"1850 445 CURVE SMOOTH",
"1850 538 OFFCURVE",
"1974 580 OFFCURVE",
"2177 580 CURVE",
"2177 832 LINE",
"1975 832 OFFCURVE",
"1850 883 OFFCURVE",
"1850 985 CURVE SMOOTH",
"1850 1090 OFFCURVE",
"1892 1178 OFFCURVE",
"1892 1274 CURVE SMOOTH",
"1892 1499 OFFCURVE",
"1745 1626 OFFCURVE",
"1490 1626 CURVE SMOOTH",
"1367 1626 OFFCURVE",
"1292 1618 OFFCURVE",
"1223 1606 CURVE",
"1247 1365 LINE",
"1315 1371 OFFCURVE",
"1378 1375 OFFCURVE",
"1430 1375 CURVE SMOOTH",
"1557 1375 OFFCURVE",
"1625 1312 OFFCURVE",
"1625 1203 CURVE SMOOTH",
"1625 1112 OFFCURVE",
"1579 1033 OFFCURVE",
"1579 942 CURVE SMOOTH",
"1579 807 OFFCURVE",
"1691 730 OFFCURVE",
"1881 727 CURVE",
"1881 685 LINE",
"1691 682 OFFCURVE",
"1579 608 OFFCURVE",
"1579 488 CURVE SMOOTH",
"1579 393 OFFCURVE",
"1625 315 OFFCURVE",
"1625 227 CURVE SMOOTH",
"1625 106 OFFCURVE",
"1557 37 OFFCURVE",
"1430 37 CURVE SMOOTH",
"1378 37 OFFCURVE",
"1315 41 OFFCURVE",
"1247 47 CURVE",
"1223 -194 LINE",
"1292 -206 OFFCURVE",
"1367 -214 OFFCURVE",
"1490 -214 CURVE SMOOTH"
);
}
);
width = 1200;
}
);
}
{
glyphname = bar_bracketright.liga;
layers = (
{
components = (
{
name = bar;
transform = "{1, 0, 0, 1, 46, 0}";
}
);
layerId = master01;
paths = (
{
closed = 1;
nodes = (
"1830 -214 LINE",
"1830 1634 LINE",
"1732 1634 LINE",
"1732 -214 LINE"
);
},
{
closed = 1;
nodes = (
"1752 -214 LINE",
"1752 -122 LINE",
"1146 -122 LINE",
"1146 -214 LINE"
);
},
{
closed = 1;
nodes = (
"1752 1542 LINE",
"1752 1634 LINE",
"1146 1634 LINE",
"1146 1542 LINE"
);
}
);
width = 1200;
},
{
components = (
{
name = bar;
transform = "{1, 0, 0, 1, 46, 0}";
}
);
layerId = "1F90C004-9C90-48FA-B407-176B3E9F1E65";
paths = (
{
closed = 1;
nodes = (
"1854 -214 LINE",
"1854 1634 LINE",
"1646 1634 LINE",
"1646 -214 LINE"
);
},
{
closed = 1;
nodes = (
"1666 -214 LINE",
"1666 -24 LINE",
"1086 -24 LINE",
"1086 -214 LINE"
);
},
{
closed = 1;
nodes = (
"1666 1444 LINE",
"1666 1634 LINE",
"1086 1634 LINE",
"1086 1444 LINE"
);
}
);
width = 1200;
},
{
components = (
{
alignment = -1;
name = bar;
transform = "{1, 0, 0, 1, 46, 0}";
}
);
layerId = "8E053A5E-67DA-4970-A6F5-068DBFE5AD21";
paths = (
{
closed = 1;
nodes = (
"1884 -214 LINE",
"1884 1634 LINE",
"1620 1634 LINE",
"1620 -214 LINE"
);
},
{
closed = 1;
nodes = (
"1640 -214 LINE",
"1640 27 LINE",
"1016 27 LINE",
"1016 -214 LINE"
);
},
{
closed = 1;
nodes = (
"1640 1393 LINE",
"1640 1634 LINE",
"1016 1634 LINE",
"1016 1393 LINE"
);
}
);
width = 1200;
}
);
}
{
glyphname = bar_equal_end.seq;
layers = (
{
components = (
{
name = bar;
}
);
layerId = master01;
paths = (
{
closed = 1;
nodes = (
"602 914 LINE",
"602 1004 LINE",
"-20 1004 LINE",
"-20 914 LINE"
);
},
{
closed = 1;
nodes = (
"602 414 LINE",
"602 504 LINE",
"-20 504 LINE",
"-20 414 LINE"
);
}
);
width = 1200;
},
{
components = (
{
name = bar;
}
);
layerId = "1F90C004-9C90-48FA-B407-176B3E9F1E65";
paths = (
{
closed = 1;
nodes = (
"600 866 LINE",
"600 1052 LINE",
"-20 1052 LINE",
"-20 866 LINE"
);
},
{
closed = 1;
nodes = (
"600 366 LINE",
"600 552 LINE",
"-20 552 LINE",
"-20 366 LINE"
);
}
);
width = 1200;
},
{
components = (
{
name = bar;
}
);
layerId = "8E053A5E-67DA-4970-A6F5-068DBFE5AD21";
paths = (
{
closed = 1;
nodes = (
"615 835 LINE",
"615 1085 LINE",
"-20 1085 LINE",
"-20 835 LINE"
);
},
{
closed = 1;
nodes = (
"615 333 LINE",
"615 583 LINE",
"-20 583 LINE",
"-20 333 LINE"
);
}
);
width = 1200;
}
);
}
{
glyphname = bar_equal_start.seq;
layers = (
{
components = (
{
name = bar;
}
);
layerId = master01;
paths = (
{
closed = 1;
nodes = (
"1220 914 LINE",
"1220 1004 LINE",
"598 1004 LINE",
"598 914 LINE"
);
},
{
closed = 1;
nodes = (
"1220 414 LINE",
"1220 504 LINE",
"598 504 LINE",
"598 414 LINE"
);
}
);
width = 1200;
},
{
components = (
{
name = bar;
}
);
layerId = "1F90C004-9C90-48FA-B407-176B3E9F1E65";
paths = (
{
closed = 1;
nodes = (
"1220 866 LINE",
"1220 1052 LINE",
"600 1052 LINE",
"600 866 LINE"
);
},
{
closed = 1;
nodes = (
"1220 366 LINE",
"1220 552 LINE",
"600 552 LINE",
"600 366 LINE"
);
}
);
width = 1200;
},
{
components = (
{
name = bar;
}
);
layerId = "8E053A5E-67DA-4970-A6F5-068DBFE5AD21";
paths = (
{
closed = 1;
nodes = (
"1220 835 LINE",
"1220 1085 LINE",
"585 1085 LINE",
"586 835 LINE"
);
},
{
closed = 1;
nodes = (
"1220 333 LINE",
"1220 583 LINE",
"586 583 LINE",
"586 333 LINE"
);
}
);
width = 1200;
}
);
}
{
glyphname = bar_greater.liga;
layers = (
{
layerId = master01;
paths = (
{
closed = 1;
nodes = (
"2045 648 LINE",
"2045 770 LINE",
"541 1430 LINE",
"541 -10 LINE"
);
},
{
closed = 1;
nodes = (
"635 1355 LINE",
"556 1314 LINE",
"1927 718 LINE",
"1927 700 LINE",
"556 107 LINE",
"635 65 LINE"
);
}
);
width = 1200;
},
{
layerId = "1F90C004-9C90-48FA-B407-176B3E9F1E65";
paths = (
{
closed = 1;
nodes = (
"2045 608 LINE",
"2045 810 LINE",
"541 1430 LINE",
"541 -10 LINE"
);
},
{
closed = 1;
nodes = (
"749 1199 LINE",
"661 1144 LINE",
"1767 718 LINE",
"1767 700 LINE",
"661 275 LINE",
"749 220 LINE"
);
}
);
width = 1200;
},
{
layerId = "8E053A5E-67DA-4970-A6F5-068DBFE5AD21";
paths = (
{
closed = 1;
nodes = (
"2045 575 LINE",
"2045 843 LINE",
"541 1430 LINE",
"541 -10 LINE"
);
},
{
closed = 1;
nodes = (
"808 1116 LINE",
"727 1059 LINE",
"1695 726 LINE",
"1695 692 LINE",
"727 360 LINE",
"808 303 LINE"
);
}
);
width = 1200;
}
);
}
{
glyphname = bar_hyphen_end.seq;
layers = (
{
components = (
{
name = bar;
}
);
layerId = master01;
paths = (
{
closed = 1;
nodes = (
"607 664 LINE",
"607 754 LINE",
"-20 754 LINE",
"-20 664 LINE"
);
}
);
width = 1200;
},
{
components = (
{
name = bar;
}
);
layerId = "1F90C004-9C90-48FA-B407-176B3E9F1E65";
paths = (
{
closed = 1;
nodes = (
"600 616 LINE",
"600 802 LINE",
"-20 802 LINE",
"-20 616 LINE"
);
}
);
width = 1200;
},
{
components = (
{
name = bar;
}
);
layerId = "8E053A5E-67DA-4970-A6F5-068DBFE5AD21";
paths = (
{
closed = 1;
nodes = (
"604 584 LINE",
"604 834 LINE",
"-20 834 LINE",
"-20 584 LINE"
);
}
);
width = 1200;
}
);
}
{
glyphname = bar_hyphen_start.seq;
layers = (
{
components = (
{
name = bar;
}
);
layerId = master01;
paths = (
{
closed = 1;
nodes = (
"1220 664 LINE",
"1220 754 LINE",
"593 754 LINE",
"593 664 LINE"
);
}
);
width = 1200;
},
{
components = (
{
name = bar;
}
);
layerId = "1F90C004-9C90-48FA-B407-176B3E9F1E65";
paths = (
{
closed = 1;
nodes = (
"1220 616 LINE",
"1220 802 LINE",
"600 802 LINE",
"600 616 LINE"
);
}
);
width = 1200;
},
{
components = (
{
name = bar;
}
);
layerId = "8E053A5E-67DA-4970-A6F5-068DBFE5AD21";
paths = (
{
closed = 1;
nodes = (
"1220 584 LINE",
"1220 834 LINE",
"596 834 LINE",
"596 584 LINE"
);
}
);
width = 1200;
}
);
}
{
glyphname = bar_underscore_middle.seq;
layers = (
{
components = (
{
name = underscore_middle.seq;
}
);
guideLines = (
{
angle = 90;
position = "{1009, 619}";
}
);
layerId = master01;
paths = (
{
closed = 1;
nodes = (
"647 -50 LINE",
"647 1730 LINE",
"553 1730 LINE",
"553 -50 LINE"
);
}
);
width = 1200;
},
{
components = (
{
name = underscore_middle.seq;
}
);
layerId = "1F90C004-9C90-48FA-B407-176B3E9F1E65";
paths = (
{
closed = 1;
nodes = (
"700 -50 LINE",
"700 1730 LINE",
"500 1730 LINE",
"500 -50 LINE"
);
}
);
width = 1200;
},
{
components = (
{
name = underscore_middle.seq;
}
);
layerId = "8E053A5E-67DA-4970-A6F5-068DBFE5AD21";
paths = (
{
closed = 1;
nodes = (
"732 -50 LINE",
"732 1730 LINE",
"468 1730 LINE",
"468 -50 LINE"
);
}
);
width = 1200;
}
);
}
{
glyphname = braceleft_bar.liga;
layers = (
{
background = {
paths = (
{
closed = 1;
nodes = (
"983 -214 OFFCURVE",
"1052 -206 OFFCURVE",
"1116 -194 CURVE",
"1103 -112 LINE",
"1024 -119 OFFCURVE",
"950 -124 OFFCURVE",
"888 -124 CURVE SMOOTH",
"709 -124 OFFCURVE",
"564 -21 OFFCURVE",
"604 156 CURVE SMOOTH",
"628 264 OFFCURVE",
"690 367 OFFCURVE",
"690 488 CURVE SMOOTH",
"690 618 OFFCURVE",
"561 699 OFFCURVE",
"342 702 CURVE",
"342 710 LINE",
"561 713 OFFCURVE",
"690 796 OFFCURVE",
"690 942 CURVE SMOOTH",
"690 1058 OFFCURVE",
"631 1161 OFFCURVE",
"604 1274 CURVE SMOOTH",
"564 1439 OFFCURVE",
"709 1536 OFFCURVE",
"888 1536 CURVE SMOOTH",
"950 1536 OFFCURVE",
"1023 1531 OFFCURVE",
"1102 1524 CURVE",
"1116 1606 LINE",
"1052 1618 OFFCURVE",
"983 1626 OFFCURVE",
"870 1626 CURVE SMOOTH",
"644 1626 OFFCURVE",
"468 1498 OFFCURVE",
"508 1274 CURVE SMOOTH",
"528 1164 OFFCURVE",
"590 1060 OFFCURVE",
"590 938 CURVE SMOOTH",
"590 832 OFFCURVE",
"469 772 OFFCURVE",
"264 772 CURVE",
"264 640 LINE",
"475 640 OFFCURVE",
"590 607 OFFCURVE",
"590 492 CURVE SMOOTH",
"590 375 OFFCURVE",
"527 267 OFFCURVE",
"508 156 CURVE SMOOTH",
"468 -77 OFFCURVE",
"644 -214 OFFCURVE",
"870 -214 CURVE SMOOTH"
);
}
);
};
components = (
{
name = bar;
transform = "{1, 0, 0, 1, 1200, 0}";
}
);
layerId = master01;
paths = (
{
closed = 1;
nodes = (
"983 -214 OFFCURVE",
"1052 -206 OFFCURVE",
"1116 -194 CURVE",
"1103 -112 LINE",
"1024 -119 OFFCURVE",
"950 -124 OFFCURVE",
"888 -124 CURVE SMOOTH",
"709 -124 OFFCURVE",
"572 -21 OFFCURVE",
"604 156 CURVE SMOOTH",
"624 264 OFFCURVE",
"690 367 OFFCURVE",
"690 488 CURVE SMOOTH",
"690 618 OFFCURVE",
"561 699 OFFCURVE",
"342 702 CURVE",
"342 710 LINE",
"561 713 OFFCURVE",
"690 796 OFFCURVE",
"690 942 CURVE SMOOTH",
"690 1058 OFFCURVE",
"626 1161 OFFCURVE",
"604 1274 CURVE SMOOTH",
"572 1439 OFFCURVE",
"709 1536 OFFCURVE",
"888 1536 CURVE SMOOTH",
"950 1536 OFFCURVE",
"1023 1531 OFFCURVE",
"1102 1524 CURVE",
"1116 1606 LINE",
"1052 1618 OFFCURVE",
"983 1626 OFFCURVE",
"870 1626 CURVE SMOOTH",
"644 1626 OFFCURVE",
"468 1498 OFFCURVE",
"508 1274 CURVE SMOOTH",
"528 1164 OFFCURVE",
"590 1060 OFFCURVE",
"590 938 CURVE SMOOTH",
"590 832 OFFCURVE",
"469 772 OFFCURVE",
"264 772 CURVE",
"264 640 LINE",
"475 640 OFFCURVE",
"590 607 OFFCURVE",
"590 492 CURVE SMOOTH",
"590 375 OFFCURVE",
"527 267 OFFCURVE",
"508 156 CURVE SMOOTH",
"468 -77 OFFCURVE",
"644 -214 OFFCURVE",
"870 -214 CURVE SMOOTH"
);
}
);
width = 1200;
},
{
background = {
paths = (
{
closed = 1;
nodes = (
"1026 -214 OFFCURVE",
"1086 -206 OFFCURVE",
"1140 -194 CURVE",
"1116 -20 LINE",
"1054 -26 OFFCURVE",
"997 -30 OFFCURVE",
"948 -30 CURVE SMOOTH",
"792 -30 OFFCURVE",
"664 61 OFFCURVE",
"692 216 CURVE SMOOTH",
"708 309 OFFCURVE",
"768 389 OFFCURVE",
"768 488 CURVE SMOOTH",
"768 610 OFFCURVE",
"656 686 OFFCURVE",
"466 689 CURVE",
"466 723 LINE",
"656 726 OFFCURVE",
"768 804 OFFCURVE",
"768 942 CURVE SMOOTH",
"768 1037 OFFCURVE",
"708 1117 OFFCURVE",
"692 1214 CURVE SMOOTH",
"668 1356 OFFCURVE",
"790 1442 OFFCURVE",
"948 1442 CURVE SMOOTH",
"997 1442 OFFCURVE",
"1054 1438 OFFCURVE",
"1116 1432 CURVE",
"1140 1606 LINE",
"1086 1618 OFFCURVE",
"1026 1626 OFFCURVE",
"930 1626 CURVE SMOOTH",
"651 1626 OFFCURVE",
"431 1472 OFFCURVE",
"478 1214 CURVE SMOOTH",
"494 1119 OFFCURVE",
"550 1038 OFFCURVE",
"550 938 CURVE SMOOTH",
"550 840 OFFCURVE",
"346 785 OFFCURVE",
"240 785 CURVE",
"240 627 LINE",
"350 627 OFFCURVE",
"550 597 OFFCURVE",
"550 492 CURVE SMOOTH",
"550 396 OFFCURVE",
"494 311 OFFCURVE",
"478 216 CURVE SMOOTH",
"431 -51 OFFCURVE",
"652 -214 OFFCURVE",
"930 -214 CURVE SMOOTH"
);
}
);
};
components = (
{
name = bar;
transform = "{1, 0, 0, 1, 1200, 0}";
}
);
layerId = "1F90C004-9C90-48FA-B407-176B3E9F1E65";
paths = (
{
closed = 1;
nodes = (
"1026 -214 OFFCURVE",
"1086 -206 OFFCURVE",
"1140 -194 CURVE",
"1116 -20 LINE",
"1054 -26 OFFCURVE",
"997 -30 OFFCURVE",
"948 -30 CURVE SMOOTH",
"792 -30 OFFCURVE",
"664 61 OFFCURVE",
"692 216 CURVE SMOOTH",
"708 309 OFFCURVE",
"768 389 OFFCURVE",
"768 488 CURVE SMOOTH",
"768 610 OFFCURVE",
"656 686 OFFCURVE",
"466 689 CURVE",
"466 723 LINE",
"656 726 OFFCURVE",
"768 804 OFFCURVE",
"768 942 CURVE SMOOTH",
"768 1037 OFFCURVE",
"708 1117 OFFCURVE",
"692 1214 CURVE SMOOTH",
"668 1356 OFFCURVE",
"790 1442 OFFCURVE",
"948 1442 CURVE SMOOTH",
"997 1442 OFFCURVE",
"1054 1438 OFFCURVE",
"1116 1432 CURVE",
"1140 1606 LINE",
"1086 1618 OFFCURVE",
"1026 1626 OFFCURVE",
"930 1626 CURVE SMOOTH",
"651 1626 OFFCURVE",
"431 1472 OFFCURVE",
"478 1214 CURVE SMOOTH",
"494 1119 OFFCURVE",
"550 1038 OFFCURVE",
"550 938 CURVE SMOOTH",
"550 840 OFFCURVE",
"346 785 OFFCURVE",
"240 785 CURVE",
"240 627 LINE",
"350 627 OFFCURVE",
"550 597 OFFCURVE",
"550 492 CURVE SMOOTH",
"550 396 OFFCURVE",
"494 311 OFFCURVE",
"478 216 CURVE SMOOTH",
"431 -51 OFFCURVE",
"652 -214 OFFCURVE",
"930 -214 CURVE SMOOTH"
);
}
);
width = 1200;
},
{
background = {
paths = (
{
closed = 1;
nodes = (
"1022 -214 OFFCURVE",
"1104 -206 OFFCURVE",
"1178 -194 CURVE",
"1154 47 LINE",
"1079 41 OFFCURVE",
"1007 37 OFFCURVE",
"950 37 CURVE SMOOTH",
"844 37 OFFCURVE",
"765 106 OFFCURVE",
"775 237 CURVE SMOOTH",
"781 315 OFFCURVE",
"821 397 OFFCURVE",
"821 488 CURVE SMOOTH",
"821 608 OFFCURVE",
"709 682 OFFCURVE",
"519 685 CURVE",
"519 727 LINE",
"709 730 OFFCURVE",
"821 807 OFFCURVE",
"821 942 CURVE SMOOTH",
"821 1030 OFFCURVE",
"785 1114 OFFCURVE",
"775 1193 CURVE SMOOTH",
"760 1313 OFFCURVE",
"845 1375 OFFCURVE",
"950 1375 CURVE SMOOTH",
"1007 1375 OFFCURVE",
"1079 1371 OFFCURVE",
"1154 1365 CURVE",
"1178 1606 LINE",
"1104 1618 OFFCURVE",
"1022 1626 OFFCURVE",
"890 1626 CURVE SMOOTH",
"646 1626 OFFCURVE",
"457 1495 OFFCURVE",
"498 1264 CURVE SMOOTH",
"514 1173 OFFCURVE",
"550 1086 OFFCURVE",
"550 985 CURVE SMOOTH",
"550 883 OFFCURVE",
"425 832 OFFCURVE",
"223 832 CURVE",
"223 580 LINE",
"426 580 OFFCURVE",
"550 538 OFFCURVE",
"550 445 CURVE SMOOTH",
"550 347 OFFCURVE",
"513 257 OFFCURVE",
"498 166 CURVE SMOOTH",
"457 -74 OFFCURVE",
"646 -214 OFFCURVE",
"890 -214 CURVE SMOOTH"
);
}
);
};
components = (
{
alignment = -1;
name = bar;
transform = "{1, 0, 0, 1, 1200, 0}";
}
);
layerId = "8E053A5E-67DA-4970-A6F5-068DBFE5AD21";
paths = (
{
closed = 1;
nodes = (
"1033 -214 OFFCURVE",
"1108 -206 OFFCURVE",
"1177 -194 CURVE",
"1153 47 LINE",
"1085 41 OFFCURVE",
"1022 37 OFFCURVE",
"970 37 CURVE SMOOTH",
"843 37 OFFCURVE",
"775 106 OFFCURVE",
"775 227 CURVE SMOOTH",
"775 315 OFFCURVE",
"821 393 OFFCURVE",
"821 488 CURVE SMOOTH",
"821 608 OFFCURVE",
"709 682 OFFCURVE",
"519 685 CURVE",
"519 727 LINE",
"709 730 OFFCURVE",
"821 807 OFFCURVE",
"821 942 CURVE SMOOTH",
"821 1033 OFFCURVE",
"775 1112 OFFCURVE",
"775 1203 CURVE SMOOTH",
"775 1312 OFFCURVE",
"843 1375 OFFCURVE",
"970 1375 CURVE SMOOTH",
"1022 1375 OFFCURVE",
"1085 1371 OFFCURVE",
"1153 1365 CURVE",
"1177 1606 LINE",
"1108 1618 OFFCURVE",
"1033 1626 OFFCURVE",
"910 1626 CURVE SMOOTH",
"655 1626 OFFCURVE",
"508 1499 OFFCURVE",
"508 1274 CURVE SMOOTH",
"508 1178 OFFCURVE",
"550 1090 OFFCURVE",
"550 985 CURVE SMOOTH",
"550 883 OFFCURVE",
"425 832 OFFCURVE",
"223 832 CURVE",
"223 580 LINE",
"426 580 OFFCURVE",
"550 538 OFFCURVE",
"550 445 CURVE SMOOTH",
"550 344 OFFCURVE",
"508 252 OFFCURVE",
"508 156 CURVE SMOOTH",
"508 -78 OFFCURVE",
"655 -214 OFFCURVE",
"910 -214 CURVE SMOOTH"
);
}
);
width = 1200;
}
);
}
{
glyphname = braceright_numbersign.liga;
layers = (
{
background = {
paths = (
{
closed = 1;
nodes = (
"581 -214 OFFCURVE",
"731 -77 OFFCURVE",
"691 156 CURVE SMOOTH",
"672 267 OFFCURVE",
"609 375 OFFCURVE",
"609 492 CURVE SMOOTH",
"609 607 OFFCURVE",
"724 640 OFFCURVE",
"935 640 CURVE",
"935 772 LINE",
"730 772 OFFCURVE",
"609 832 OFFCURVE",
"609 938 CURVE SMOOTH",
"609 1060 OFFCURVE",
"671 1164 OFFCURVE",
"691 1274 CURVE SMOOTH",
"731 1498 OFFCURVE",
"581 1626 OFFCURVE",
"389 1626 CURVE SMOOTH",
"322 1626 OFFCURVE",
"281 1618 OFFCURVE",
"243 1606 CURVE",
"257 1524 LINE",
"299 1531 OFFCURVE",
"338 1536 OFFCURVE",
"371 1536 CURVE SMOOTH",
"517 1536 OFFCURVE",
"623 1439 OFFCURVE",
"595 1274 CURVE SMOOTH",
"576 1161 OFFCURVE",
"509 1058 OFFCURVE",
"509 942 CURVE SMOOTH",
"509 796 OFFCURVE",
"638 713 OFFCURVE",
"857 710 CURVE",
"857 702 LINE",
"638 699 OFFCURVE",
"509 618 OFFCURVE",
"509 488 CURVE SMOOTH",
"509 367 OFFCURVE",
"579 264 OFFCURVE",
"595 156 CURVE SMOOTH",
"621 -21 OFFCURVE",
"517 -124 OFFCURVE",
"371 -124 CURVE SMOOTH",
"338 -124 OFFCURVE",
"298 -119 OFFCURVE",
"256 -112 CURVE",
"243 -194 LINE",
"281 -206 OFFCURVE",
"322 -214 OFFCURVE",
"389 -214 CURVE SMOOTH"
);
}
);
};
layerId = master01;
paths = (
{
closed = 1;
nodes = (
"2096 419 LINE",
"2096 509 LINE",
"564 509 LINE",
"564 419 LINE"
);
},
{
closed = 1;
nodes = (
"1382 0 LINE",
"1502 1420 LINE",
"1412 1420 LINE",
"1292 0 LINE"
);
},
{
closed = 1;
nodes = (
"2096 911 LINE",
"2096 1001 LINE",
"564 1001 LINE",
"564 911 LINE"
);
},
{
closed = 1;
nodes = (
"1828 0 LINE",
"1948 1420 LINE",
"1858 1420 LINE",
"1738 0 LINE"
);
},
{
closed = 1;
nodes = (
"581 -214 OFFCURVE",
"731 -77 OFFCURVE",
"691 156 CURVE SMOOTH",
"672 267 OFFCURVE",
"609 375 OFFCURVE",
"609 492 CURVE SMOOTH",
"609 607 OFFCURVE",
"724 640 OFFCURVE",
"935 640 CURVE",
"935 772 LINE",
"730 772 OFFCURVE",
"609 832 OFFCURVE",
"609 938 CURVE SMOOTH",
"609 1060 OFFCURVE",
"671 1164 OFFCURVE",
"691 1274 CURVE SMOOTH",
"731 1498 OFFCURVE",
"581 1626 OFFCURVE",
"389 1626 CURVE SMOOTH",
"322 1626 OFFCURVE",
"281 1618 OFFCURVE",
"243 1606 CURVE",
"257 1524 LINE",
"299 1531 OFFCURVE",
"338 1536 OFFCURVE",
"371 1536 CURVE SMOOTH",
"517 1536 OFFCURVE",
"623 1439 OFFCURVE",
"595 1274 CURVE SMOOTH",
"576 1161 OFFCURVE",
"509 1058 OFFCURVE",
"509 942 CURVE SMOOTH",
"509 796 OFFCURVE",
"638 713 OFFCURVE",
"857 710 CURVE",
"857 702 LINE",
"638 699 OFFCURVE",
"509 618 OFFCURVE",
"509 488 CURVE SMOOTH",
"509 367 OFFCURVE",
"579 264 OFFCURVE",
"595 156 CURVE SMOOTH",
"621 -21 OFFCURVE",
"517 -124 OFFCURVE",
"371 -124 CURVE SMOOTH",
"338 -124 OFFCURVE",
"298 -119 OFFCURVE",
"256 -112 CURVE",
"243 -194 LINE",
"281 -206 OFFCURVE",
"322 -214 OFFCURVE",
"389 -214 CURVE SMOOTH"
);
}
);
width = 1200;
},
{
background = {
paths = (
{
closed = 1;
nodes = (
"630 -214 OFFCURVE",
"796 -75 OFFCURVE",
"755 156 CURVE SMOOTH",
"735 271 OFFCURVE",
"673 375 OFFCURVE",
"673 492 CURVE SMOOTH",
"673 613 OFFCURVE",
"873 647 OFFCURVE",
"983 647 CURVE",
"983 765 LINE",
"877 765 OFFCURVE",
"673 827 OFFCURVE",
"673 938 CURVE SMOOTH",
"673 1060 OFFCURVE",
"735 1159 OFFCURVE",
"755 1274 CURVE SMOOTH",
"795 1496 OFFCURVE",
"630 1626 OFFCURVE",
"413 1626 CURVE SMOOTH",
"335 1626 OFFCURVE",
"287 1618 OFFCURVE",
"243 1606 CURVE",
"267 1432 LINE",
"314 1438 OFFCURVE",
"358 1442 OFFCURVE",
"395 1442 CURVE SMOOTH",
"490 1442 OFFCURVE",
"559 1380 OFFCURVE",
"541 1274 CURVE SMOOTH",
"521 1156 OFFCURVE",
"455 1058 OFFCURVE",
"455 942 CURVE SMOOTH",
"455 804 OFFCURVE",
"567 726 OFFCURVE",
"757 723 CURVE",
"757 689 LINE",
"567 686 OFFCURVE",
"455 610 OFFCURVE",
"455 488 CURVE SMOOTH",
"455 367 OFFCURVE",
"521 269 OFFCURVE",
"541 156 CURVE SMOOTH",
"562 38 OFFCURVE",
"490 -30 OFFCURVE",
"395 -30 CURVE SMOOTH",
"358 -30 OFFCURVE",
"314 -26 OFFCURVE",
"267 -20 CURVE",
"243 -194 LINE",
"287 -206 OFFCURVE",
"335 -214 OFFCURVE",
"413 -214 CURVE SMOOTH"
);
}
);
};
layerId = "1F90C004-9C90-48FA-B407-176B3E9F1E65";
paths = (
{
closed = 1;
nodes = (
"2120 360 LINE",
"2120 530 LINE",
"601 530 LINE",
"601 360 LINE"
);
},
{
closed = 1;
nodes = (
"1430 0 LINE",
"1550 1420 LINE",
"1374 1420 LINE",
"1254 0 LINE"
);
},
{
closed = 1;
nodes = (
"2120 890 LINE",
"2120 1060 LINE",
"608 1060 LINE",
"608 890 LINE"
);
},
{
closed = 1;
nodes = (
"1866 0 LINE",
"1986 1420 LINE",
"1810 1420 LINE",
"1690 0 LINE"
);
},
{
closed = 1;
nodes = (
"630 -214 OFFCURVE",
"796 -75 OFFCURVE",
"755 156 CURVE SMOOTH",
"735 271 OFFCURVE",
"673 375 OFFCURVE",
"673 492 CURVE SMOOTH",
"673 613 OFFCURVE",
"873 647 OFFCURVE",
"983 647 CURVE",
"983 765 LINE",
"877 765 OFFCURVE",
"673 827 OFFCURVE",
"673 938 CURVE SMOOTH",
"673 1060 OFFCURVE",
"735 1159 OFFCURVE",
"755 1274 CURVE SMOOTH",
"795 1496 OFFCURVE",
"630 1626 OFFCURVE",
"413 1626 CURVE SMOOTH",
"335 1626 OFFCURVE",
"287 1618 OFFCURVE",
"243 1606 CURVE",
"267 1432 LINE",
"314 1438 OFFCURVE",
"358 1442 OFFCURVE",
"395 1442 CURVE SMOOTH",
"490 1442 OFFCURVE",
"559 1380 OFFCURVE",
"541 1274 CURVE SMOOTH",
"521 1156 OFFCURVE",
"455 1058 OFFCURVE",
"455 942 CURVE SMOOTH",
"455 804 OFFCURVE",
"567 726 OFFCURVE",
"757 723 CURVE",
"757 689 LINE",
"567 686 OFFCURVE",
"455 610 OFFCURVE",
"455 488 CURVE SMOOTH",
"455 367 OFFCURVE",
"521 269 OFFCURVE",
"541 156 CURVE SMOOTH",
"562 38 OFFCURVE",
"490 -30 OFFCURVE",
"395 -30 CURVE SMOOTH",
"358 -30 OFFCURVE",
"314 -26 OFFCURVE",
"267 -20 CURVE",
"243 -194 LINE",
"287 -206 OFFCURVE",
"335 -214 OFFCURVE",
"413 -214 CURVE SMOOTH"
);
}
);
width = 1200;
},
{
background = {
paths = (
{
closed = 1;
nodes = (
"630 -214 OFFCURVE",
"795 -78 OFFCURVE",
"755 156 CURVE SMOOTH",
"739 251 OFFCURVE",
"673 344 OFFCURVE",
"673 445 CURVE SMOOTH",
"673 579 OFFCURVE",
"797 640 OFFCURVE",
"1000 640 CURVE",
"1000 772 LINE",
"798 772 OFFCURVE",
"673 843 OFFCURVE",
"673 985 CURVE SMOOTH",
"673 1090 OFFCURVE",
"738 1179 OFFCURVE",
"755 1274 CURVE SMOOTH",
"795 1499 OFFCURVE",
"630 1626 OFFCURVE",
"413 1626 CURVE SMOOTH",
"327 1626 OFFCURVE",
"274 1618 OFFCURVE",
"226 1606 CURVE",
"250 1365 LINE",
"288 1371 OFFCURVE",
"324 1375 OFFCURVE",
"353 1375 CURVE SMOOTH",
"434 1375 OFFCURVE",
"506 1315 OFFCURVE",
"478 1203 CURVE SMOOTH",
"457 1119 OFFCURVE",
"402 1033 OFFCURVE",
"402 942 CURVE SMOOTH",
"402 807 OFFCURVE",
"514 730 OFFCURVE",
"704 727 CURVE",
"704 685 LINE",
"514 682 OFFCURVE",
"402 608 OFFCURVE",
"402 488 CURVE SMOOTH",
"402 393 OFFCURVE",
"461 310 OFFCURVE",
"478 227 CURVE SMOOTH",
"503 103 OFFCURVE",
"434 37 OFFCURVE",
"353 37 CURVE SMOOTH",
"324 37 OFFCURVE",
"288 41 OFFCURVE",
"250 47 CURVE",
"226 -194 LINE",
"274 -206 OFFCURVE",
"327 -214 OFFCURVE",
"413 -214 CURVE SMOOTH"
);
}
);
};
layerId = "8E053A5E-67DA-4970-A6F5-068DBFE5AD21";
paths = (
{
closed = 1;
nodes = (
"2137 310 LINE",
"2137 558 LINE",
"592 558 LINE",
"592 310 LINE"
);
},
{
closed = 1;
nodes = (
"1447 0 LINE",
"1567 1420 LINE",
"1324 1420 LINE",
"1204 0 LINE"
);
},
{
closed = 1;
nodes = (
"2137 862 LINE",
"2137 1110 LINE",
"593 1110 LINE",
"593 862 LINE"
);
},
{
closed = 1;
nodes = (
"1883 0 LINE",
"2003 1420 LINE",
"1760 1420 LINE",
"1640 0 LINE"
);
},
{
closed = 1;
nodes = (
"630 -214 OFFCURVE",
"795 -78 OFFCURVE",
"755 156 CURVE SMOOTH",
"739 251 OFFCURVE",
"673 344 OFFCURVE",
"673 445 CURVE SMOOTH",
"673 579 OFFCURVE",
"797 640 OFFCURVE",
"1000 640 CURVE",
"1000 772 LINE",
"798 772 OFFCURVE",
"673 843 OFFCURVE",
"673 985 CURVE SMOOTH",
"673 1090 OFFCURVE",
"738 1179 OFFCURVE",
"755 1274 CURVE SMOOTH",
"795 1499 OFFCURVE",
"630 1626 OFFCURVE",
"413 1626 CURVE SMOOTH",
"327 1626 OFFCURVE",
"274 1618 OFFCURVE",
"226 1606 CURVE",
"250 1365 LINE",
"288 1371 OFFCURVE",
"324 1375 OFFCURVE",
"353 1375 CURVE SMOOTH",
"434 1375 OFFCURVE",
"506 1315 OFFCURVE",
"478 1203 CURVE SMOOTH",
"457 1119 OFFCURVE",
"402 1033 OFFCURVE",
"402 942 CURVE SMOOTH",
"402 807 OFFCURVE",
"514 730 OFFCURVE",
"704 727 CURVE",
"704 685 LINE",
"514 682 OFFCURVE",
"402 608 OFFCURVE",
"402 488 CURVE SMOOTH",
"402 393 OFFCURVE",
"461 310 OFFCURVE",
"478 227 CURVE SMOOTH",
"503 103 OFFCURVE",
"434 37 OFFCURVE",
"353 37 CURVE SMOOTH",
"324 37 OFFCURVE",
"288 41 OFFCURVE",
"250 47 CURVE",
"226 -194 LINE",
"274 -206 OFFCURVE",
"327 -214 OFFCURVE",
"413 -214 CURVE SMOOTH"
);
}
);
width = 1200;
}
);
}
{
glyphname = bracketleft_bar.liga;
layers = (
{
components = (
{
name = bar;
transform = "{1, 0, 0, 1, 1154, 0}";
}
);
layerId = master01;
paths = (
{
closed = 1;
nodes = (
"662 -214 LINE",
"662 1634 LINE",
"564 1634 LINE",
"564 -214 LINE"
);
},
{
closed = 1;
nodes = (
"1248 -214 LINE",
"1248 -122 LINE",
"642 -122 LINE",
"642 -214 LINE"
);
},
{
closed = 1;
nodes = (
"1248 1542 LINE",
"1248 1634 LINE",
"642 1634 LINE",
"642 1542 LINE"
);
}
);
width = 1200;
},
{
components = (
{
name = bar;
transform = "{1, 0, 0, 1, 1154, 0}";
}
);
layerId = "1F90C004-9C90-48FA-B407-176B3E9F1E65";
paths = (
{
closed = 1;
nodes = (
"748 -214 LINE",
"748 1634 LINE",
"540 1634 LINE",
"540 -214 LINE"
);
},
{
closed = 1;
nodes = (
"1348 -214 LINE",
"1348 -24 LINE",
"728 -24 LINE",
"728 -214 LINE"
);
},
{
closed = 1;
nodes = (
"1348 1444 LINE",
"1348 1634 LINE",
"728 1634 LINE",
"728 1444 LINE"
);
}
);
width = 1200;
},
{
components = (
{
alignment = -1;
name = bar;
transform = "{1, 0, 0, 1, 1154, 0}";
}
);
layerId = "8E053A5E-67DA-4970-A6F5-068DBFE5AD21";
paths = (
{
closed = 1;
nodes = (
"774 -214 LINE",
"774 1634 LINE",
"510 1634 LINE",
"510 -214 LINE"
);
},
{
closed = 1;
nodes = (
"1351 -214 LINE",
"1351 38 LINE",
"754 38 LINE",
"754 -214 LINE"
);
},
{
closed = 1;
nodes = (
"1351 1382 LINE",
"1351 1634 LINE",
"754 1634 LINE",
"754 1382 LINE"
);
}
);
width = 1200;
}
);
}
{
glyphname = bracketright_numbersign.liga;
layers = (
{
components = (
{
name = bracketleft;
transform = "{-1, 0, 0, 1, 1237, 0}";
}
);
layerId = master01;
paths = (
{
closed = 1;
nodes = (
"1828 0 LINE",
"1948 1420 LINE",
"1858 1420 LINE",
"1738 0 LINE"
);
},
{
closed = 1;
nodes = (
"2096 419 LINE",
"2096 509 LINE",
"794 509 LINE",
"794 419 LINE"
);
},
{
closed = 1;
nodes = (
"1382 0 LINE",
"1502 1420 LINE",
"1412 1420 LINE",
"1292 0 LINE"
);
},
{
closed = 1;
nodes = (
"2096 911 LINE",
"2096 1001 LINE",
"794 1001 LINE",
"794 911 LINE"
);
}
);
width = 1200;
},
{
components = (
{
name = bracketleft;
transform = "{-1, 0, 0, 1, 1237, 0}";
}
);
layerId = "1F90C004-9C90-48FA-B407-176B3E9F1E65";
paths = (
{
closed = 1;
nodes = (
"1866 0 LINE",
"1986 1420 LINE",
"1810 1420 LINE",
"1690 0 LINE"
);
},
{
closed = 1;
nodes = (
"2120 360 LINE",
"2120 530 LINE",
"780 530 LINE",
"780 360 LINE"
);
},
{
closed = 1;
nodes = (
"1430 0 LINE",
"1550 1420 LINE",
"1374 1420 LINE",
"1254 0 LINE"
);
},
{
closed = 1;
nodes = (
"2120 890 LINE",
"2120 1060 LINE",
"780 1060 LINE",
"780 890 LINE"
);
}
);
width = 1200;
},
{
components = (
{
alignment = -1;
name = bracketleft;
transform = "{-1, 0, 0, 1, 1237, 0}";
}
);
layerId = "8E053A5E-67DA-4970-A6F5-068DBFE5AD21";
paths = (
{
closed = 1;
nodes = (
"1883 0 LINE",
"2003 1420 LINE",
"1760 1420 LINE",
"1640 0 LINE"
);
},
{
closed = 1;
nodes = (
"2137 310 LINE",
"2137 558 LINE",
"780 558 LINE",
"780 310 LINE"
);
},
{
closed = 1;
nodes = (
"1447 0 LINE",
"1567 1420 LINE",
"1324 1420 LINE",
"1204 0 LINE"
);
},
{
closed = 1;
nodes = (
"2137 862 LINE",
"2137 1110 LINE",
"780 1110 LINE",
"780 862 LINE"
);
}
);
width = 1200;
}
);
}
{
glyphname = colon_colon_equal.liga;
layers = (
{
components = (
{
name = colon;
transform = "{1, 0, 0, 1, 650, 180}";
},
{
name = colon;
transform = "{1, 0, 0, 1, -120, 180}";
}
);
layerId = master01;
paths = (
{
closed = 1;
nodes = (
"3320 914 LINE",
"3320 1004 LINE",
"1900 1004 LINE",
"1900 914 LINE"
);
},
{
closed = 1;
nodes = (
"3320 416 LINE",
"3320 506 LINE",
"1900 506 LINE",
"1900 416 LINE"
);
}
);
width = 1200;
},
{
components = (
{
name = colon;
transform = "{1, 0, 0, 1, 650, 180}";
},
{
name = colon;
transform = "{1, 0, 0, 1, -120, 180}";
}
);
layerId = "1F90C004-9C90-48FA-B407-176B3E9F1E65";
paths = (
{
closed = 1;
nodes = (
"3320 866 LINE",
"3320 1052 LINE",
"1900 1052 LINE",
"1900 866 LINE"
);
},
{
closed = 1;
nodes = (
"3320 366 LINE",
"3320 552 LINE",
"1900 552 LINE",
"1900 366 LINE"
);
}
);
width = 1200;
},
{
components = (
{
alignment = -1;
name = colon;
transform = "{1, 0, 0, 1, 650, 180}";
},
{
alignment = -1;
name = colon;
transform = "{1, 0, 0, 1, -120, 180}";
}
);
layerId = "8E053A5E-67DA-4970-A6F5-068DBFE5AD21";
paths = (
{
closed = 1;
nodes = (
"3320 835 LINE",
"3320 1085 LINE",
"1900 1085 LINE",
"1900 835 LINE"
);
},
{
closed = 1;
nodes = (
"3320 333 LINE",
"3320 583 LINE",
"1900 583 LINE",
"1900 333 LINE"
);
}
);
width = 1200;
}
);
}
{
glyphname = colon_equal.liga;
layers = (
{
components = (
{
name = colon;
transform = "{1, 0, 0, 1, -60, 180}";
}
);
layerId = master01;
paths = (
{
closed = 1;
nodes = (
"2120 914 LINE",
"2120 1004 LINE",
"1000 1004 LINE",
"1000 914 LINE"
);
},
{
closed = 1;
nodes = (
"2120 416 LINE",
"2120 506 LINE",
"1000 506 LINE",
"1000 416 LINE"
);
}
);
width = 1200;
},
{
components = (
{
name = colon;
transform = "{1, 0, 0, 1, -60, 180}";
}
);
layerId = "1F90C004-9C90-48FA-B407-176B3E9F1E65";
paths = (
{
closed = 1;
nodes = (
"2120 866 LINE",
"2120 1052 LINE",
"1000 1052 LINE",
"1000 866 LINE"
);
},
{
closed = 1;
nodes = (
"2120 366 LINE",
"2120 552 LINE",
"1000 552 LINE",
"1000 366 LINE"
);
}
);
width = 1200;
},
{
components = (
{
alignment = -1;
name = colon;
transform = "{1, 0, 0, 1, -60, 180}";
}
);
layerId = "8E053A5E-67DA-4970-A6F5-068DBFE5AD21";
paths = (
{
closed = 1;
nodes = (
"2120 835 LINE",
"2120 1085 LINE",
"1083 1085 LINE",
"1083 835 LINE"
);
},
{
closed = 1;
nodes = (
"2120 333 LINE",
"2120 583 LINE",
"1083 583 LINE",
"1083 333 LINE"
);
}
);
width = 1200;
}
);
}
{
glyphname = colon_equal_middle.seq;
layers = (
{
components = (
{
name = colon.center;
}
);
layerId = master01;
paths = (
{
closed = 1;
nodes = (
"1250 914 LINE",
"1250 1004 LINE",
"900 1004 LINE",
"900 914 LINE"
);
},
{
closed = 1;
nodes = (
"1250 414 LINE",
"1250 504 LINE",
"900 504 LINE",
"900 414 LINE"
);
},
{
closed = 1;
nodes = (
"300 914 LINE",
"300 1004 LINE",
"-50 1004 LINE",
"-50 914 LINE"
);
},
{
closed = 1;
nodes = (
"300 414 LINE",
"300 504 LINE",
"-50 504 LINE",
"-50 414 LINE"
);
}
);
width = 1200;
},
{
components = (
{
name = colon.center;
}
);
layerId = "1F90C004-9C90-48FA-B407-176B3E9F1E65";
paths = (
{
closed = 1;
nodes = (
"1250 866 LINE",
"1250 1052 LINE",
"900 1052 LINE",
"900 866 LINE"
);
},
{
closed = 1;
nodes = (
"1250 366 LINE",
"1250 552 LINE",
"900 552 LINE",
"900 366 LINE"
);
},
{
closed = 1;
nodes = (
"300 866 LINE",
"300 1052 LINE",
"-50 1052 LINE",
"-50 866 LINE"
);
},
{
closed = 1;
nodes = (
"300 366 LINE",
"300 552 LINE",
"-50 552 LINE",
"-50 366 LINE"
);
}
);
width = 1200;
},
{
components = (
{
name = colon.center;
}
);
layerId = "8E053A5E-67DA-4970-A6F5-068DBFE5AD21";
paths = (
{
closed = 1;
nodes = (
"1250 835 LINE",
"1250 1085 LINE",
"983 1085 LINE",
"983 835 LINE"
);
},
{
closed = 1;
nodes = (
"1250 333 LINE",
"1250 583 LINE",
"983 583 LINE",
"983 333 LINE"
);
},
{
closed = 1;
nodes = (
"217 835 LINE",
"217 1085 LINE",
"-50 1085 LINE",
"-50 835 LINE"
);
},
{
closed = 1;
nodes = (
"217 333 LINE",
"217 583 LINE",
"-50 583 LINE",
"-50 333 LINE"
);
}
);
width = 1200;
}
);
}
{
glyphname = dollar_greater.liga;
layers = (
{
layerId = master01;
paths = (
{
closed = 1;
nodes = (
"2233 653 LINE",
"2233 765 LINE",
"685 1437 LINE",
"685 1342 LINE",
"2150 713 LINE",
"2150 705 LINE",
"1275 314 LINE",
"1275 214 LINE"
);
},
{
closed = 1;
nodes = (
"932 -20 OFFCURVE",
"1092 96 OFFCURVE",
"1092 331 CURVE SMOOTH",
"1092 479 OFFCURVE",
"1018 600 OFFCURVE",
"860 677 CURVE SMOOTH",
"484 861 LINE SMOOTH",
"389 907 OFFCURVE",
"342 980 OFFCURVE",
"342 1080 CURVE SMOOTH",
"342 1261 OFFCURVE",
"449 1350 OFFCURVE",
"666 1350 CURVE",
"665 1440 LINE",
"388 1440 OFFCURVE",
"250 1317 OFFCURVE",
"250 1070 CURVE SMOOTH",
"250 939 OFFCURVE",
"311 843 OFFCURVE",
"435 781 CURVE SMOOTH",
"838 578 LINE SMOOTH",
"948 523 OFFCURVE",
"1000 436 OFFCURVE",
"1000 327 CURVE SMOOTH",
"1000 155 OFFCURVE",
"876 70 OFFCURVE",
"626 70 CURVE SMOOTH",
"496 70 OFFCURVE",
"363 95 OFFCURVE",
"226 145 CURVE",
"212 48 LINE",
"330 3 OFFCURVE",
"462 -20 OFFCURVE",
"610 -20 CURVE SMOOTH"
);
},
{
closed = 1;
nodes = (
"719 -320 LINE",
"719 1740 LINE",
"625 1740 LINE",
"625 -320 LINE"
);
}
);
width = 1200;
},
{
layerId = "1F90C004-9C90-48FA-B407-176B3E9F1E65";
paths = (
{
closed = 1;
nodes = (
"2232 608 LINE",
"2232 810 LINE",
"625 1490 LINE",
"625 1275 LINE",
"1974 718 LINE",
"1974 700 LINE",
"1274 434 LINE",
"1274 214 LINE"
);
},
{
closed = 1;
nodes = (
"948 -20 OFFCURVE",
"1114 109 OFFCURVE",
"1114 366 CURVE SMOOTH",
"1114 560 OFFCURVE",
"1002 673 OFFCURVE",
"792 772 CURVE SMOOTH",
"584 870 LINE SMOOTH",
"488 915 OFFCURVE",
"438 968 OFFCURVE",
"438 1060 CURVE SMOOTH",
"438 1184 OFFCURVE",
"524 1256 OFFCURVE",
"674 1256 CURVE",
"674 1440 LINE",
"388 1440 OFFCURVE",
"224 1298 OFFCURVE",
"224 1050 CURVE SMOOTH",
"224 866 OFFCURVE",
"330 748 OFFCURVE",
"524 660 CURVE SMOOTH",
"770 548 LINE SMOOTH",
"854 510 OFFCURVE",
"900 450 OFFCURVE",
"900 362 CURVE SMOOTH",
"900 229 OFFCURVE",
"810 164 OFFCURVE",
"624 164 CURVE SMOOTH",
"494 164 OFFCURVE",
"358 194 OFFCURVE",
"212 252 CURVE",
"186 58 LINE",
"306 6 OFFCURVE",
"446 -20 OFFCURVE",
"608 -20 CURVE SMOOTH"
);
},
{
closed = 1;
nodes = (
"742 -320 LINE",
"742 1740 LINE",
"604 1740 LINE",
"604 -320 LINE"
);
}
);
width = 1200;
},
{
layerId = "8E053A5E-67DA-4970-A6F5-068DBFE5AD21";
paths = (
{
closed = 1;
nodes = (
"2229 575 LINE",
"2229 843 LINE",
"647 1486 LINE",
"647 1217 LINE",
"1912 726 LINE",
"1912 692 LINE",
"1295 459 LINE",
"1295 189 LINE"
);
},
{
closed = 1;
nodes = (
"943 -20 OFFCURVE",
"1131 122 OFFCURVE",
"1131 374 CURVE SMOOTH",
"1131 533 OFFCURVE",
"1018 676 OFFCURVE",
"818 779 CURVE SMOOTH",
"626 878 LINE SMOOTH",
"540 922 OFFCURVE",
"493 980 OFFCURVE",
"493 1043 CURVE SMOOTH",
"493 1136 OFFCURVE",
"562 1189 OFFCURVE",
"682 1189 CURVE",
"681 1440 LINE",
"380 1440 OFFCURVE",
"207 1298 OFFCURVE",
"207 1050 CURVE SMOOTH",
"207 874 OFFCURVE",
"322 724 OFFCURVE",
"524 626 CURVE SMOOTH",
"728 527 LINE SMOOTH",
"802 491 OFFCURVE",
"845 438 OFFCURVE",
"845 379 CURVE SMOOTH",
"845 284 OFFCURVE",
"766 232 OFFCURVE",
"624 232 CURVE SMOOTH",
"501 232 OFFCURVE",
"350 266 OFFCURVE",
"205 326 CURVE",
"169 58 LINE",
"289 8 OFFCURVE",
"447 -20 OFFCURVE",
"608 -20 CURVE SMOOTH"
);
},
{
closed = 1;
nodes = (
"797 -320 LINE",
"797 1740 LINE",
"544 1740 LINE",
"544 -320 LINE"
);
}
);
width = 1200;
},
{
associatedMasterId = "8E053A5E-67DA-4970-A6F5-068DBFE5AD21";
layerId = "F4BCBF25-9523-48A1-878F-AC84683A2337";
name = "[600]";
paths = (
{
closed = 1;
nodes = (
"2229 575 LINE",
"2229 843 LINE",
"647 1486 LINE",
"647 1217 LINE",
"1912 726 LINE",
"1912 692 LINE",
"1295 459 LINE",
"1295 189 LINE"
);
},
{
closed = 1;
nodes = (
"797 -320 LINE",
"797 232 LINE",
"544 232 LINE",
"544 -320 LINE"
);
},
{
closed = 1;
nodes = (
"943 -20 OFFCURVE",
"1131 122 OFFCURVE",
"1131 374 CURVE SMOOTH",
"1131 533 OFFCURVE",
"1018 676 OFFCURVE",
"818 779 CURVE SMOOTH",
"626 878 LINE SMOOTH",
"540 922 OFFCURVE",
"493 980 OFFCURVE",
"493 1043 CURVE SMOOTH",
"493 1136 OFFCURVE",
"562 1189 OFFCURVE",
"682 1189 CURVE",
"681 1440 LINE",
"380 1440 OFFCURVE",
"207 1298 OFFCURVE",
"207 1050 CURVE SMOOTH",
"207 874 OFFCURVE",
"322 724 OFFCURVE",
"524 626 CURVE SMOOTH",
"728 527 LINE SMOOTH",
"802 491 OFFCURVE",
"845 438 OFFCURVE",
"845 379 CURVE SMOOTH",
"845 284 OFFCURVE",
"766 232 OFFCURVE",
"624 232 CURVE SMOOTH",
"501 232 OFFCURVE",
"350 266 OFFCURVE",
"205 326 CURVE",
"169 58 LINE",
"289 8 OFFCURVE",
"447 -20 OFFCURVE",
"608 -20 CURVE SMOOTH"
);
},
{
closed = 1;
nodes = (
"797 1189 LINE",
"797 1740 LINE",
"544 1740 LINE",
"544 1189 LINE"
);
}
);
width = 1200;
},
{
associatedMasterId = "1F90C004-9C90-48FA-B407-176B3E9F1E65";
layerId = "AAACA33C-2376-4CC2-B636-FC6735973EA0";
name = "[600]";
paths = (
{
closed = 1;
nodes = (
"2232 608 LINE",
"2232 810 LINE",
"625 1490 LINE",
"625 1275 LINE",
"1974 718 LINE",
"1974 700 LINE",
"1274 434 LINE",
"1274 214 LINE"
);
},
{
closed = 1;
nodes = (
"742 -320 LINE",
"742 164 LINE",
"604 164 LINE",
"604 -320 LINE"
);
},
{
closed = 1;
nodes = (
"948 -20 OFFCURVE",
"1114 109 OFFCURVE",
"1114 366 CURVE SMOOTH",
"1114 560 OFFCURVE",
"1002 673 OFFCURVE",
"792 772 CURVE SMOOTH",
"584 870 LINE SMOOTH",
"488 915 OFFCURVE",
"438 968 OFFCURVE",
"438 1060 CURVE SMOOTH",
"438 1184 OFFCURVE",
"524 1256 OFFCURVE",
"674 1256 CURVE",
"674 1440 LINE",
"388 1440 OFFCURVE",
"224 1298 OFFCURVE",
"224 1050 CURVE SMOOTH",
"224 866 OFFCURVE",
"330 748 OFFCURVE",
"524 660 CURVE SMOOTH",
"770 548 LINE SMOOTH",
"854 510 OFFCURVE",
"900 450 OFFCURVE",
"900 362 CURVE SMOOTH",
"900 229 OFFCURVE",
"810 164 OFFCURVE",
"624 164 CURVE SMOOTH",
"494 164 OFFCURVE",
"358 194 OFFCURVE",
"212 252 CURVE",
"186 58 LINE",
"306 6 OFFCURVE",
"446 -20 OFFCURVE",
"608 -20 CURVE SMOOTH"
);
},
{
closed = 1;
nodes = (
"742 1256 LINE",
"742 1740 LINE",
"604 1740 LINE",
"604 1256 LINE"
);
}
);
width = 1200;
},
{
associatedMasterId = master01;
layerId = "B2FA23F0-7E4D-4D4D-8559-103AE3471FBD";
name = "[600]";
paths = (
{
closed = 1;
nodes = (
"2233 653 LINE",
"2233 765 LINE",
"666 1445 LINE",
"666 1350 LINE",
"2150 713 LINE",
"2150 705 LINE",
"1275 314 LINE",
"1275 214 LINE"
);
},
{
closed = 1;
nodes = (
"719 -320 LINE",
"719 68 LINE",
"625 68 LINE",
"625 -320 LINE"
);
},
{
closed = 1;
nodes = (
"932 -20 OFFCURVE",
"1092 96 OFFCURVE",
"1092 331 CURVE SMOOTH",
"1092 479 OFFCURVE",
"1018 600 OFFCURVE",
"860 677 CURVE SMOOTH",
"484 861 LINE SMOOTH",
"389 907 OFFCURVE",
"342 980 OFFCURVE",
"342 1080 CURVE SMOOTH",
"342 1261 OFFCURVE",
"449 1350 OFFCURVE",
"666 1350 CURVE",
"665 1440 LINE",
"388 1440 OFFCURVE",
"250 1317 OFFCURVE",
"250 1070 CURVE SMOOTH",
"250 939 OFFCURVE",
"311 843 OFFCURVE",
"435 781 CURVE SMOOTH",
"838 578 LINE SMOOTH",
"948 523 OFFCURVE",
"1000 436 OFFCURVE",
"1000 327 CURVE SMOOTH",
"1000 155 OFFCURVE",
"876 70 OFFCURVE",
"626 70 CURVE SMOOTH",
"496 70 OFFCURVE",
"363 95 OFFCURVE",
"226 145 CURVE",
"212 48 LINE",
"330 3 OFFCURVE",
"462 -20 OFFCURVE",
"610 -20 CURVE SMOOTH"
);
},
{
closed = 1;
nodes = (
"719 1350 LINE",
"719 1740 LINE",
"625 1740 LINE",
"625 1350 LINE"
);
}
);
width = 1200;
}
);
}
{
glyphname = equal_end.seq;
layers = (
{
layerId = master01;
paths = (
{
closed = 1;
nodes = (
"1076 914 LINE",
"1076 1004 LINE",
"-20 1004 LINE",
"-20 914 LINE"
);
},
{
closed = 1;
nodes = (
"1076 414 LINE",
"1076 504 LINE",
"-20 504 LINE",
"-20 414 LINE"
);
}
);
width = 1200;
},
{
layerId = "1F90C004-9C90-48FA-B407-176B3E9F1E65";
paths = (
{
closed = 1;
nodes = (
"1100 866 LINE",
"1100 1052 LINE",
"-20 1052 LINE",
"-20 866 LINE"
);
},
{
closed = 1;
nodes = (
"1100 366 LINE",
"1100 552 LINE",
"-20 552 LINE",
"-20 366 LINE"
);
}
);
width = 1200;
},
{
layerId = "8E053A5E-67DA-4970-A6F5-068DBFE5AD21";
paths = (
{
closed = 1;
nodes = (
"1117 835 LINE",
"1117 1085 LINE",
"-20 1085 LINE",
"-20 835 LINE"
);
},
{
closed = 1;
nodes = (
"1117 333 LINE",
"1117 583 LINE",
"-20 583 LINE",
"-20 333 LINE"
);
}
);
width = 1200;
}
);
}
{
glyphname = equal_equal.liga;
layers = (
{
layerId = master01;
paths = (
{
closed = 1;
nodes = (
"2220 914 LINE",
"2220 1004 LINE",
"1290 1004 LINE",
"1290 914 LINE"
);
},
{
closed = 1;
nodes = (
"1110 414 LINE",
"1110 504 LINE",
"180 504 LINE",
"180 414 LINE"
);
},
{
closed = 1;
nodes = (
"1110 914 LINE",
"1110 1004 LINE",
"180 1004 LINE",
"180 914 LINE"
);
},
{
closed = 1;
nodes = (
"2220 414 LINE",
"2220 504 LINE",
"1290 504 LINE",
"1290 414 LINE"
);
}
);
width = 1200;
},
{
layerId = "1F90C004-9C90-48FA-B407-176B3E9F1E65";
paths = (
{
closed = 1;
nodes = (
"2220 866 LINE",
"2220 1052 LINE",
"1290 1052 LINE",
"1290 866 LINE"
);
},
{
closed = 1;
nodes = (
"1110 366 LINE",
"1110 552 LINE",
"180 552 LINE",
"180 366 LINE"
);
},
{
closed = 1;
nodes = (
"1110 866 LINE",
"1110 1052 LINE",
"180 1052 LINE",
"180 866 LINE"
);
},
{
closed = 1;
nodes = (
"2220 366 LINE",
"2220 552 LINE",
"1290 552 LINE",
"1290 366 LINE"
);
}
);
width = 1200;
},
{
layerId = "8E053A5E-67DA-4970-A6F5-068DBFE5AD21";
paths = (
{
closed = 1;
nodes = (
"2220 835 LINE",
"2220 1085 LINE",
"1290 1085 LINE",
"1290 835 LINE"
);
},
{
closed = 1;
nodes = (
"1110 333 LINE",
"1110 583 LINE",
"180 583 LINE",
"180 333 LINE"
);
},
{
closed = 1;
nodes = (
"1110 835 LINE",
"1110 1085 LINE",
"180 1085 LINE",
"180 835 LINE"
);
},
{
closed = 1;
nodes = (
"2220 333 LINE",
"2220 583 LINE",
"1290 583 LINE",
"1290 333 LINE"
);
}
);
width = 1200;
}
);
}
{
glyphname = equal_equal_equal.liga;
layers = (
{
layerId = master01;
paths = (
{
closed = 1;
nodes = (
"3420 1074 LINE",
"3420 1164 LINE",
"180 1164 LINE",
"180 1074 LINE"
);
},
{
closed = 1;
nodes = (
"3420 254 LINE",
"3420 344 LINE",
"180 344 LINE",
"180 254 LINE"
);
},
{
closed = 1;
nodes = (
"3420 664 LINE",
"3420 754 LINE",
"180 754 LINE",
"180 664 LINE"
);
}
);
width = 1200;
},
{
layerId = "1F90C004-9C90-48FA-B407-176B3E9F1E65";
paths = (
{
closed = 1;
nodes = (
"3420 1026 LINE",
"3420 1212 LINE",
"180 1212 LINE",
"180 1026 LINE"
);
},
{
closed = 1;
nodes = (
"3420 206 LINE",
"3420 392 LINE",
"180 392 LINE",
"180 206 LINE"
);
},
{
closed = 1;
nodes = (
"3420 616 LINE",
"3420 802 LINE",
"180 802 LINE",
"180 616 LINE"
);
}
);
width = 1200;
},
{
layerId = "8E053A5E-67DA-4970-A6F5-068DBFE5AD21";
paths = (
{
closed = 1;
nodes = (
"3420 998 LINE",
"3420 1240 LINE",
"180 1240 LINE",
"180 998 LINE"
);
},
{
closed = 1;
nodes = (
"3420 178 LINE",
"3420 420 LINE",
"180 420 LINE",
"180 178 LINE"
);
},
{
closed = 1;
nodes = (
"3420 588 LINE",
"3420 830 LINE",
"180 830 LINE",
"180 588 LINE"
);
}
);
width = 1200;
}
);
}
{
glyphname = equal_middle.seq;
layers = (
{
layerId = master01;
paths = (
{
closed = 1;
nodes = (
"1250 914 LINE",
"1250 1004 LINE",
"-50 1004 LINE",
"-50 914 LINE"
);
},
{
closed = 1;
nodes = (
"1250 414 LINE",
"1250 504 LINE",
"-50 504 LINE",
"-50 414 LINE"
);
}
);
width = 1200;
},
{
layerId = "1F90C004-9C90-48FA-B407-176B3E9F1E65";
paths = (
{
closed = 1;
nodes = (
"1250 866 LINE",
"1250 1052 LINE",
"-50 1052 LINE",
"-50 866 LINE"
);
},
{
closed = 1;
nodes = (
"1250 366 LINE",
"1250 552 LINE",
"-50 552 LINE",
"-50 366 LINE"
);
}
);
width = 1200;
},
{
layerId = "8E053A5E-67DA-4970-A6F5-068DBFE5AD21";
paths = (
{
closed = 1;
nodes = (
"1250 835 LINE",
"1250 1085 LINE",
"-50 1085 LINE",
"-50 835 LINE"
);
},
{
closed = 1;
nodes = (
"1250 333 LINE",
"1250 583 LINE",
"-50 583 LINE",
"-50 333 LINE"
);
}
);
width = 1200;
}
);
}
{
glyphname = equal_start.seq;
layers = (
{
layerId = master01;
paths = (
{
closed = 1;
nodes = (
"1220 914 LINE",
"1220 1004 LINE",
"124 1004 LINE",
"124 914 LINE"
);
},
{
closed = 1;
nodes = (
"1220 414 LINE",
"1220 504 LINE",
"124 504 LINE",
"124 414 LINE"
);
}
);
width = 1200;
},
{
layerId = "1F90C004-9C90-48FA-B407-176B3E9F1E65";
paths = (
{
closed = 1;
nodes = (
"1220 866 LINE",
"1220 1052 LINE",
"100 1052 LINE",
"100 866 LINE"
);
},
{
closed = 1;
nodes = (
"1220 366 LINE",
"1220 552 LINE",
"100 552 LINE",
"100 366 LINE"
);
}
);
width = 1200;
},
{
layerId = "8E053A5E-67DA-4970-A6F5-068DBFE5AD21";
paths = (
{
closed = 1;
nodes = (
"1220 835 LINE",
"1220 1085 LINE",
"83 1085 LINE",
"83 835 LINE"
);
},
{
closed = 1;
nodes = (
"1220 333 LINE",
"1220 583 LINE",
"83 583 LINE",
"83 333 LINE"
);
}
);
width = 1200;
}
);
}
{
glyphname = exclam_equal.liga;
layers = (
{
layerId = master01;
paths = (
{
closed = 1;
nodes = (
"786 -100 LINE",
"1700 1520 LINE",
"1598 1520 LINE",
"684 -100 LINE"
);
},
{
closed = 1;
nodes = (
"2220 414 LINE",
"2220 504 LINE",
"180 504 LINE",
"180 414 LINE"
);
},
{
closed = 1;
nodes = (
"2220 914 LINE",
"2220 1004 LINE",
"180 1004 LINE",
"180 914 LINE"
);
}
);
width = 1200;
},
{
layerId = "1F90C004-9C90-48FA-B407-176B3E9F1E65";
paths = (
{
closed = 1;
nodes = (
"886 -100 LINE",
"1700 1520 LINE",
"1498 1520 LINE",
"684 -100 LINE"
);
},
{
closed = 1;
nodes = (
"2220 366 LINE",
"2220 552 LINE",
"180 552 LINE",
"180 366 LINE"
);
},
{
closed = 1;
nodes = (
"2220 866 LINE",
"2220 1052 LINE",
"180 1052 LINE",
"180 866 LINE"
);
}
);
width = 1200;
},
{
layerId = "8E053A5E-67DA-4970-A6F5-068DBFE5AD21";
paths = (
{
closed = 1;
nodes = (
"936 -100 LINE",
"1717 1520 LINE",
"1448 1520 LINE",
"667 -100 LINE"
);
},
{
closed = 1;
nodes = (
"2220 333 LINE",
"2220 583 LINE",
"180 583 LINE",
"180 333 LINE"
);
},
{
closed = 1;
nodes = (
"2220 835 LINE",
"2220 1085 LINE",
"180 1085 LINE",
"180 835 LINE"
);
}
);
width = 1200;
}
);
}
{
glyphname = exclam_equal_equal.liga;
layers = (
{
layerId = master01;
paths = (
{
closed = 1;
nodes = (
"1426 -100 LINE",
"2340 1520 LINE",
"2238 1520 LINE",
"1324 -100 LINE"
);
},
{
closed = 1;
nodes = (
"3420 254 LINE",
"3420 344 LINE",
"180 344 LINE",
"180 254 LINE"
);
},
{
closed = 1;
nodes = (
"3420 664 LINE",
"3420 754 LINE",
"180 754 LINE",
"180 664 LINE"
);
},
{
closed = 1;
nodes = (
"3420 1074 LINE",
"3420 1164 LINE",
"180 1164 LINE",
"180 1074 LINE"
);
}
);
width = 1200;
},
{
layerId = "1F90C004-9C90-48FA-B407-176B3E9F1E65";
paths = (
{
closed = 1;
nodes = (
"1526 -100 LINE",
"2340 1520 LINE",
"2138 1520 LINE",
"1324 -100 LINE"
);
},
{
closed = 1;
nodes = (
"3420 206 LINE",
"3420 392 LINE",
"180 392 LINE",
"180 206 LINE"
);
},
{
closed = 1;
nodes = (
"3420 616 LINE",
"3420 802 LINE",
"180 802 LINE",
"180 616 LINE"
);
},
{
closed = 1;
nodes = (
"3420 1026 LINE",
"3420 1212 LINE",
"180 1212 LINE",
"180 1026 LINE"
);
}
);
width = 1200;
},
{
layerId = "8E053A5E-67DA-4970-A6F5-068DBFE5AD21";
paths = (
{
closed = 1;
nodes = (
"1584 -100 LINE",
"2365 1520 LINE",
"2096 1520 LINE",
"1316 -100 LINE"
);
},
{
closed = 1;
nodes = (
"3420 195 LINE",
"3420 437 LINE",
"180 437 LINE",
"180 195 LINE"
);
},
{
closed = 1;
nodes = (
"3420 589 LINE",
"3420 830 LINE",
"180 830 LINE",
"180 589 LINE"
);
},
{
closed = 1;
nodes = (
"3420 981 LINE",
"3420 1223 LINE",
"180 1223 LINE",
"180 981 LINE"
);
}
);
width = 1200;
}
);
}
{
glyphname = greater.alt;
layers = (
{
layerId = master01;
paths = (
{
closed = 1;
nodes = (
"960 698 LINE",
"960 720 LINE",
"304 1388 LINE",
"245 1321 LINE",
"842 718 LINE",
"842 700 LINE",
"235 97 LINE",
"304 30 LINE"
);
}
);
width = 1200;
},
{
layerId = "1F90C004-9C90-48FA-B407-176B3E9F1E65";
paths = (
{
closed = 1;
nodes = (
"977 648 LINE",
"977 770 LINE",
"353 1416 LINE",
"228 1291 LINE",
"783 718 LINE",
"783 700 LINE",
"228 127 LINE",
"353 2 LINE"
);
}
);
width = 1200;
},
{
layerId = "8E053A5E-67DA-4970-A6F5-068DBFE5AD21";
paths = (
{
closed = 1;
nodes = (
"997 648 LINE",
"997 770 LINE",
"383 1416 LINE",
"208 1251 LINE",
"723 718 LINE",
"723 700 LINE",
"208 167 LINE",
"383 2 LINE"
);
}
);
width = 1200;
}
);
}
{
glyphname = greater.center;
layers = (
{
layerId = master01;
paths = (
{
closed = 1;
nodes = (
"1170 678 LINE",
"1170 740 LINE",
"90 1164 LINE",
"90 1054 LINE",
"996 718 LINE",
"996 700 LINE",
"90 364 LINE",
"90 254 LINE"
);
}
);
width = 1200;
},
{
layerId = "1F90C004-9C90-48FA-B407-176B3E9F1E65";
paths = (
{
closed = 1;
nodes = (
"1175 608 LINE",
"1175 810 LINE",
"60 1204 LINE",
"60 984 LINE",
"877 718 LINE",
"877 700 LINE",
"60 434 LINE",
"60 214 LINE"
);
}
);
width = 1200;
},
{
layerId = "8E053A5E-67DA-4970-A6F5-068DBFE5AD21";
paths = (
{
closed = 1;
nodes = (
"1185 575 LINE",
"1185 843 LINE",
"40 1221 LINE",
"40 951 LINE",
"862 726 LINE",
"862 692 LINE",
"40 467 LINE",
"40 197 LINE"
);
}
);
width = 1200;
}
);
}
{
glyphname = greater_equal.liga;
layers = (
{
layerId = master01;
paths = (
{
closed = 1;
nodes = (
"1950 903 LINE",
"1950 1015 LINE",
"506 1434 LINE",
"506 1334 LINE",
"1852 963 LINE",
"1852 955 LINE",
"506 584 LINE",
"506 484 LINE"
);
},
{
closed = 1;
nodes = (
"1950 194 LINE",
"1950 284 LINE",
"506 284 LINE",
"506 194 LINE"
);
}
);
width = 1200;
},
{
layerId = "1F90C004-9C90-48FA-B407-176B3E9F1E65";
paths = (
{
closed = 1;
nodes = (
"1950 848 LINE",
"1950 1070 LINE",
"506 1434 LINE",
"506 1214 LINE",
"1642 968 LINE",
"1642 950 LINE",
"506 704 LINE",
"506 484 LINE"
);
},
{
closed = 1;
nodes = (
"1950 144 LINE",
"1950 330 LINE",
"506 330 LINE",
"506 144 LINE"
);
}
);
width = 1200;
},
{
layerId = "8E053A5E-67DA-4970-A6F5-068DBFE5AD21";
paths = (
{
closed = 1;
nodes = (
"1950 823 LINE",
"1950 1095 LINE",
"506 1434 LINE",
"506 1164 LINE",
"1600 968 LINE",
"1600 950 LINE",
"506 754 LINE",
"506 484 LINE"
);
},
{
closed = 1;
nodes = (
"1950 117 LINE",
"1950 367 LINE",
"506 367 LINE",
"506 117 LINE"
);
}
);
width = 1200;
}
);
}
{
glyphname = greater_equal_end.seq;
layers = (
{
components = (
{
name = greater.alt;
transform = "{1, 0, 0, 1, 176, 0}";
}
);
layerId = master01;
paths = (
{
closed = 1;
nodes = (
"794 414 LINE",
"894 504 LINE",
"-20 504 LINE",
"-20 414 LINE"
);
},
{
closed = 1;
nodes = (
"894 914 LINE",
"794 1004 LINE",
"-20 1004 LINE",
"-20 914 LINE"
);
}
);
width = 1200;
},
{
components = (
{
name = greater.alt;
transform = "{1, 0, 0, 1, 159, 0}";
}
);
layerId = "1F90C004-9C90-48FA-B407-176B3E9F1E65";
paths = (
{
closed = 1;
nodes = (
"694 366 LINE",
"854 552 LINE",
"-20 552 LINE",
"-20 366 LINE"
);
},
{
closed = 1;
nodes = (
"854 866 LINE",
"694 1052 LINE",
"-20 1052 LINE",
"-20 866 LINE"
);
}
);
width = 1200;
},
{
components = (
{
name = greater.alt;
transform = "{1, 0, 0, 1, 139, 0}";
}
);
layerId = "8E053A5E-67DA-4970-A6F5-068DBFE5AD21";
paths = (
{
closed = 1;
nodes = (
"596 333 LINE",
"856 583 LINE",
"-20 583 LINE",
"-20 333 LINE"
);
},
{
closed = 1;
nodes = (
"833 835 LINE",
"616 1085 LINE",
"-20 1085 LINE",
"-20 835 LINE"
);
}
);
width = 1200;
}
);
}
{
glyphname = greater_equal_start.seq;
layers = (
{
layerId = master01;
paths = (
{
closed = 1;
nodes = (
"706 504 LINE",
"590 504 LINE",
"173 87 LINE",
"237 30 LINE"
);
},
{
closed = 1;
nodes = (
"1220 414 LINE",
"1220 504 LINE",
"590 504 LINE",
"590 414 LINE"
);
},
{
closed = 1;
nodes = (
"706 914 LINE",
"249 1392 LINE",
"185 1335 LINE",
"590 914 LINE"
);
},
{
closed = 1;
nodes = (
"1220 914 LINE",
"1220 1004 LINE",
"590 1004 LINE",
"590 914 LINE"
);
}
);
width = 1200;
},
{
layerId = "1F90C004-9C90-48FA-B407-176B3E9F1E65";
paths = (
{
closed = 1;
nodes = (
"793 552 LINE",
"550 552 LINE",
"142 117 LINE",
"272 2 LINE"
);
},
{
closed = 1;
nodes = (
"1220 366 LINE",
"1220 552 LINE",
"550 552 LINE",
"550 366 LINE"
);
},
{
closed = 1;
nodes = (
"794 866 LINE",
"272 1412 LINE",
"142 1297 LINE",
"550 866 LINE"
);
},
{
closed = 1;
nodes = (
"1220 866 LINE",
"1220 1052 LINE",
"550 1052 LINE",
"550 866 LINE"
);
}
);
width = 1200;
},
{
layerId = "8E053A5E-67DA-4970-A6F5-068DBFE5AD21";
paths = (
{
closed = 1;
nodes = (
"864 577 LINE",
"538 583 LINE",
"142 157 LINE",
"312 2 LINE"
);
},
{
closed = 1;
nodes = (
"1220 333 LINE",
"1220 583 LINE",
"538 583 LINE",
"538 333 LINE"
);
},
{
closed = 1;
nodes = (
"829 879 LINE",
"312 1412 LINE",
"142 1257 LINE",
"538 835 LINE"
);
},
{
closed = 1;
nodes = (
"1220 835 LINE",
"1220 1085 LINE",
"538 1085 LINE",
"538 835 LINE"
);
}
);
width = 1200;
}
);
}
{
glyphname = greater_greater.liga;
layers = (
{
layerId = master01;
paths = (
{
closed = 1;
nodes = (
"2160 653 LINE",
"2160 765 LINE",
"1201 1204 LINE",
"1201 1109 LINE",
"2082 713 LINE",
"2082 705 LINE",
"1201 309 LINE",
"1201 214 LINE"
);
},
{
closed = 1;
nodes = (
"1238 653 LINE",
"1238 765 LINE",
"280 1204 LINE",
"280 1109 LINE",
"1160 713 LINE",
"1160 705 LINE",
"280 309 LINE",
"280 214 LINE"
);
}
);
width = 1200;
},
{
layerId = "1F90C004-9C90-48FA-B407-176B3E9F1E65";
paths = (
{
closed = 1;
nodes = (
"2160 608 LINE",
"2160 810 LINE",
"1202 1244 LINE",
"1202 1024 LINE",
"1902 718 LINE",
"1902 700 LINE",
"1202 394 LINE",
"1202 174 LINE"
);
},
{
closed = 1;
nodes = (
"1238 608 LINE",
"1238 810 LINE",
"280 1244 LINE",
"280 1024 LINE",
"980 718 LINE",
"980 700 LINE",
"280 394 LINE",
"280 174 LINE"
);
}
);
width = 1200;
},
{
layerId = "8E053A5E-67DA-4970-A6F5-068DBFE5AD21";
paths = (
{
closed = 1;
nodes = (
"2160 575 LINE",
"2160 843 LINE",
"1185 1252 LINE",
"1185 982 LINE",
"1885 718 LINE",
"1885 700 LINE",
"1185 436 LINE",
"1185 166 LINE"
);
},
{
closed = 1;
nodes = (
"1238 575 LINE",
"1238 843 LINE",
"280 1252 LINE",
"280 982 LINE",
"963 718 LINE",
"963 700 LINE",
"280 436 LINE",
"280 166 LINE"
);
}
);
width = 1200;
}
);
}
{
glyphname = greater_greater_equal_end.seq;
layers = (
{
components = (
{
name = greater.alt;
transform = "{1, 0, 0, 1, 586, 0}";
},
{
name = greater.alt;
transform = "{1, 0, 0, 1, 1216, 0}";
}
);
layerId = master01;
paths = (
{
closed = 1;
nodes = (
"1231 414 LINE",
"1331 504 LINE",
"-20 504 LINE",
"-20 414 LINE"
);
},
{
closed = 1;
nodes = (
"1331 914 LINE",
"1231 1004 LINE",
"-20 1004 LINE",
"-20 914 LINE"
);
}
);
width = 1200;
},
{
components = (
{
name = greater.alt;
transform = "{1, 0, 0, 1, 568, 0}";
},
{
name = greater.alt;
transform = "{1, 0, 0, 1, 1199, 0}";
}
);
layerId = "1F90C004-9C90-48FA-B407-176B3E9F1E65";
paths = (
{
closed = 1;
nodes = (
"1114 366 LINE",
"1274 552 LINE",
"-20 552 LINE",
"-20 366 LINE"
);
},
{
closed = 1;
nodes = (
"1274 866 LINE",
"1114 1052 LINE",
"-20 1052 LINE",
"-20 866 LINE"
);
}
);
width = 1200;
},
{
components = (
{
name = greater.alt;
transform = "{1, 0, 0, 1, 539, 0}";
},
{
name = greater.alt;
transform = "{1, 0, 0, 1, 1179, 0}";
}
);
layerId = "8E053A5E-67DA-4970-A6F5-068DBFE5AD21";
paths = (
{
closed = 1;
nodes = (
"996 333 LINE",
"1256 583 LINE",
"-20 583 LINE",
"-20 333 LINE"
);
},
{
closed = 1;
nodes = (
"1233 835 LINE",
"1016 1085 LINE",
"-20 1085 LINE",
"-20 835 LINE"
);
}
);
width = 1200;
}
);
}
{
glyphname = greater_greater_equal_middle.seq;
layers = (
{
components = (
{
name = greater.alt;
transform = "{1, 0, 0, 1, 376, 0}";
}
);
layerId = master01;
paths = (
{
closed = 1;
nodes = (
"1774 504 LINE",
"1658 504 LINE",
"1241 87 LINE",
"1305 30 LINE"
);
},
{
closed = 1;
nodes = (
"994 414 LINE",
"1094 504 LINE",
"-50 504 LINE",
"-50 414 LINE"
);
},
{
closed = 1;
nodes = (
"1094 914 LINE",
"994 1004 LINE",
"-50 1004 LINE",
"-50 914 LINE"
);
},
{
closed = 1;
nodes = (
"2450 414 LINE",
"2450 504 LINE",
"1658 504 LINE",
"1658 414 LINE"
);
},
{
closed = 1;
nodes = (
"1774 914 LINE",
"1317 1392 LINE",
"1253 1335 LINE",
"1658 914 LINE"
);
},
{
closed = 1;
nodes = (
"2450 914 LINE",
"2450 1004 LINE",
"1658 1004 LINE",
"1658 914 LINE"
);
}
);
width = 1200;
},
{
components = (
{
name = greater.alt;
transform = "{1, 0, 0, 1, 359, 0}";
}
);
layerId = "1F90C004-9C90-48FA-B407-176B3E9F1E65";
paths = (
{
closed = 1;
nodes = (
"1863 552 LINE",
"1620 552 LINE",
"1212 117 LINE",
"1342 2 LINE"
);
},
{
closed = 1;
nodes = (
"894 366 LINE",
"1054 552 LINE",
"-50 552 LINE",
"-50 366 LINE"
);
},
{
closed = 1;
nodes = (
"1054 866 LINE",
"894 1052 LINE",
"-50 1052 LINE",
"-50 866 LINE"
);
},
{
closed = 1;
nodes = (
"2450 366 LINE",
"2450 552 LINE",
"1620 552 LINE",
"1620 366 LINE"
);
},
{
closed = 1;
nodes = (
"1864 866 LINE",
"1342 1412 LINE",
"1212 1297 LINE",
"1620 866 LINE"
);
},
{
closed = 1;
nodes = (
"2450 866 LINE",
"2450 1052 LINE",
"1620 1052 LINE",
"1620 866 LINE"
);
}
);
width = 1200;
},
{
components = (
{
name = greater.alt;
transform = "{1, 0, 0, 1, 339, 0}";
}
);
layerId = "8E053A5E-67DA-4970-A6F5-068DBFE5AD21";
paths = (
{
closed = 1;
nodes = (
"1904 577 LINE",
"1578 583 LINE",
"1182 157 LINE",
"1352 2 LINE"
);
},
{
closed = 1;
nodes = (
"796 333 LINE",
"1056 583 LINE",
"-50 583 LINE",
"-50 333 LINE"
);
},
{
closed = 1;
nodes = (
"1033 835 LINE",
"816 1085 LINE",
"-50 1085 LINE",
"-50 835 LINE"
);
},
{
closed = 1;
nodes = (
"2449 333 LINE",
"2449 583 LINE",
"1578 583 LINE",
"1578 333 LINE"
);
},
{
closed = 1;
nodes = (
"1869 879 LINE",
"1352 1412 LINE",
"1182 1257 LINE",
"1578 835 LINE"
);
},
{
closed = 1;
nodes = (
"2449 835 LINE",
"2450 1085 LINE",
"1578 1085 LINE",
"1578 835 LINE"
);
}
);
width = 1200;
}
);
}
{
glyphname = greater_greater_equal_start.seq;
layers = (
{
components = (
{
name = greater.alt;
transform = "{1, 0, 0, 1, 136, 0}";
}
);
layerId = master01;
paths = (
{
closed = 1;
nodes = (
"2420 414 LINE",
"2420 504 LINE",
"1418 504 LINE",
"1418 414 LINE"
);
},
{
closed = 1;
nodes = (
"1534 504 LINE",
"1418 504 LINE",
"1001 87 LINE",
"1065 30 LINE"
);
},
{
closed = 1;
nodes = (
"1534 914 LINE",
"1077 1392 LINE",
"1013 1335 LINE",
"1418 914 LINE"
);
},
{
closed = 1;
nodes = (
"2420 914 LINE",
"2420 1004 LINE",
"1418 1004 LINE",
"1418 914 LINE"
);
}
);
width = 1200;
},
{
components = (
{
name = greater.alt;
transform = "{1, 0, 0, 1, 139, 0}";
}
);
layerId = "1F90C004-9C90-48FA-B407-176B3E9F1E65";
paths = (
{
closed = 1;
nodes = (
"2420 366 LINE",
"2420 552 LINE",
"1400 552 LINE",
"1400 366 LINE"
);
},
{
closed = 1;
nodes = (
"1643 552 LINE",
"1400 552 LINE",
"992 117 LINE",
"1122 2 LINE"
);
},
{
closed = 1;
nodes = (
"1644 866 LINE",
"1122 1412 LINE",
"992 1297 LINE",
"1400 866 LINE"
);
},
{
closed = 1;
nodes = (
"2420 866 LINE",
"2420 1052 LINE",
"1400 1052 LINE",
"1400 866 LINE"
);
}
);
width = 1200;
},
{
components = (
{
name = greater.alt;
transform = "{1, 0, 0, 1, 139, 0}";
}
);
layerId = "8E053A5E-67DA-4970-A6F5-068DBFE5AD21";
paths = (
{
closed = 1;
nodes = (
"2420 333 LINE",
"2420 583 LINE",
"1378 583 LINE",
"1378 333 LINE"
);
},
{
closed = 1;
nodes = (
"1704 577 LINE",
"1378 583 LINE",
"982 157 LINE",
"1152 2 LINE"
);
},
{
closed = 1;
nodes = (
"1669 879 LINE",
"1152 1412 LINE",
"982 1257 LINE",
"1378 835 LINE"
);
},
{
closed = 1;
nodes = (
"2420 835 LINE",
"2420 1085 LINE",
"1378 1085 LINE",
"1378 835 LINE"
);
}
);
width = 1200;
}
);
}
{
glyphname = greater_greater_hyphen_end.seq;
layers = (
{
components = (
{
name = greater.alt;
transform = "{1, 0, 0, 1, 576, 0}";
},
{
name = greater.alt;
transform = "{1, 0, 0, 1, 1216, 0}";
}
);
layerId = master01;
paths = (
{
closed = 1;
nodes = (
"1457 664 LINE",
"1457 754 LINE",
"-20 754 LINE",
"-20 664 LINE"
);
}
);
width = 1200;
},
{
components = (
{
name = greater.alt;
transform = "{1, 0, 0, 1, 565, 0}";
},
{
name = greater.alt;
transform = "{1, 0, 0, 1, 1199, 0}";
}
);
layerId = "1F90C004-9C90-48FA-B407-176B3E9F1E65";
paths = (
{
closed = 1;
nodes = (
"1440 616 LINE",
"1440 802 LINE",
"-20 802 LINE",
"-20 616 LINE"
);
}
);
width = 1200;
},
{
components = (
{
name = greater.alt;
transform = "{1, 0, 0, 1, 543, 0}";
},
{
name = greater.alt;
transform = "{1, 0, 0, 1, 1179, 0}";
}
);
layerId = "8E053A5E-67DA-4970-A6F5-068DBFE5AD21";
paths = (
{
closed = 1;
nodes = (
"1320 584 LINE",
"1320 834 LINE",
"-20 834 LINE",
"-20 584 LINE"
);
}
);
width = 1200;
}
);
}
{
glyphname = greater_greater_hyphen_middle.seq;
layers = (
{
components = (
{
name = greater.alt;
transform = "{1, 0, 0, 1, 236, 0}";
},
{
name = greater.alt;
transform = "{1, 0, 0, 1, 871, 0}";
}
);
layerId = master01;
paths = (
{
closed = 1;
nodes = (
"1103 664 LINE",
"1103 754 LINE",
"-50 754 LINE",
"-50 664 LINE"
);
},
{
closed = 1;
nodes = (
"2450 664 LINE",
"2450 754 LINE",
"1750 754 LINE",
"1750 664 LINE"
);
}
);
width = 1200;
},
{
components = (
{
name = greater.alt;
transform = "{1, 0, 0, 1, 259, 0}";
},
{
name = greater.alt;
transform = "{1, 0, 0, 1, 891, 0}";
}
);
layerId = "1F90C004-9C90-48FA-B407-176B3E9F1E65";
paths = (
{
closed = 1;
nodes = (
"1111 616 LINE",
"1111 802 LINE",
"-50 802 LINE",
"-50 616 LINE"
);
},
{
closed = 1;
nodes = (
"2450 616 LINE",
"2450 802 LINE",
"1711 802 LINE",
"1711 616 LINE"
);
}
);
width = 1200;
},
{
components = (
{
name = greater.alt;
transform = "{1, 0, 0, 1, 240, 0}";
},
{
name = greater.alt;
transform = "{1, 0, 0, 1, 879, 0}";
}
);
layerId = "8E053A5E-67DA-4970-A6F5-068DBFE5AD21";
paths = (
{
closed = 1;
nodes = (
"1036 584 LINE",
"1036 834 LINE",
"-50 834 LINE",
"-50 584 LINE"
);
},
{
closed = 1;
nodes = (
"2450 584 LINE",
"2450 834 LINE",
"1661 834 LINE",
"1661 584 LINE"
);
}
);
width = 1200;
}
);
}
{
glyphname = greater_greater_hyphen_start.seq;
layers = (
{
components = (
{
name = greater.alt;
transform = "{1, 0, 0, 1, 139, 0}";
},
{
name = greater.alt;
transform = "{1, 0, 0, 1, 773, 0}";
}
);
layerId = master01;
paths = (
{
closed = 1;
nodes = (
"2420 664 LINE",
"2420 754 LINE",
"1664 754 LINE",
"1664 664 LINE"
);
}
);
width = 1200;
},
{
components = (
{
name = greater.alt;
transform = "{1, 0, 0, 1, 139, 0}";
},
{
name = greater.alt;
transform = "{1, 0, 0, 1, 773, 0}";
}
);
layerId = "1F90C004-9C90-48FA-B407-176B3E9F1E65";
paths = (
{
closed = 1;
nodes = (
"2420 616 LINE",
"2420 802 LINE",
"1550 802 LINE",
"1550 616 LINE"
);
}
);
width = 1200;
},
{
components = (
{
name = greater.alt;
transform = "{1, 0, 0, 1, 139, 0}";
},
{
name = greater.alt;
transform = "{1, 0, 0, 1, 778, 0}";
}
);
layerId = "8E053A5E-67DA-4970-A6F5-068DBFE5AD21";
paths = (
{
closed = 1;
nodes = (
"2420 584 LINE",
"2420 834 LINE",
"1583 834 LINE",
"1583 584 LINE"
);
}
);
width = 1200;
}
);
}
{
glyphname = greater_hyphen_end.seq;
layers = (
{
components = (
{
name = greater.alt;
transform = "{1, 0, 0, 1, 176, 0}";
}
);
layerId = master01;
paths = (
{
closed = 1;
nodes = (
"1076 664 LINE",
"1076 754 LINE",
"-20 754 LINE",
"-20 664 LINE"
);
}
);
width = 1200;
},
{
components = (
{
name = greater.alt;
transform = "{1, 0, 0, 1, 159, 0}";
}
);
layerId = "1F90C004-9C90-48FA-B407-176B3E9F1E65";
paths = (
{
closed = 1;
nodes = (
"1050 616 LINE",
"1050 802 LINE",
"-20 802 LINE",
"-20 616 LINE"
);
}
);
width = 1200;
},
{
components = (
{
name = greater.alt;
transform = "{1, 0, 0, 1, 139, 0}";
}
);
layerId = "8E053A5E-67DA-4970-A6F5-068DBFE5AD21";
paths = (
{
closed = 1;
nodes = (
"947 584 LINE",
"947 834 LINE",
"-20 834 LINE",
"-20 584 LINE"
);
}
);
width = 1200;
}
);
}
{
glyphname = greater_hyphen_start.seq;
layers = (
{
components = (
{
name = greater.alt;
transform = "{1, 0, 0, 1, -67, 0}";
}
);
layerId = master01;
paths = (
{
closed = 1;
nodes = (
"1220 664 LINE",
"1220 754 LINE",
"800 754 LINE",
"800 664 LINE"
);
}
);
width = 1200;
},
{
components = (
{
name = greater.alt;
transform = "{1, 0, 0, 1, -81, 0}";
}
);
layerId = "1F90C004-9C90-48FA-B407-176B3E9F1E65";
paths = (
{
closed = 1;
nodes = (
"1220 616 LINE",
"1220 802 LINE",
"750 802 LINE",
"750 616 LINE"
);
}
);
width = 1200;
},
{
components = (
{
name = greater.alt;
transform = "{1, 0, 0, 1, -61, 0}";
}
);
layerId = "8E053A5E-67DA-4970-A6F5-068DBFE5AD21";
paths = (
{
closed = 1;
nodes = (
"1220 584 LINE",
"1220 834 LINE",
"680 834 LINE",
"680 584 LINE"
);
}
);
width = 1200;
}
);
}
{
glyphname = hyphen_asciitilde.liga;
layers = (
{
layerId = master01;
paths = (
{
closed = 1;
nodes = (
"2114 517 OFFCURVE",
"2178 622 OFFCURVE",
"2178 867 CURVE SMOOTH",
"2178 930 LINE",
"2088 930 LINE",
"2088 857 LINE SMOOTH",
"2088 682 OFFCURVE",
"2051 607 OFFCURVE",
"1963 607 CURVE SMOOTH",
"1905 607 OFFCURVE",
"1852 638 OFFCURVE",
"1739 744 CURVE SMOOTH",
"1608 866 OFFCURVE",
"1543 903 OFFCURVE",
"1454 903 CURVE SMOOTH",
"1326 903 OFFCURVE",
"1250 825 OFFCURVE",
"1250 693 CURVE SMOOTH",
"1250 683 LINE",
"1340 683 LINE",
"1340 703 LINE SMOOTH",
"1340 772 OFFCURVE",
"1382 813 OFFCURVE",
"1453 813 CURVE SMOOTH",
"1521 813 OFFCURVE",
"1579 781 OFFCURVE",
"1698 661 CURVE SMOOTH",
"1807 551 OFFCURVE",
"1867 517 OFFCURVE",
"1964 517 CURVE SMOOTH"
);
},
{
closed = 1;
nodes = (
"1340 664 LINE",
"1340 754 LINE",
"280 754 LINE",
"280 664 LINE"
);
}
);
width = 1200;
},
{
layerId = "1F90C004-9C90-48FA-B407-176B3E9F1E65";
paths = (
{
closed = 1;
nodes = (
"2122 517 OFFCURVE",
"2200 616 OFFCURVE",
"2200 847 CURVE SMOOTH",
"2200 930 LINE",
"1998 930 LINE",
"1998 837 LINE SMOOTH",
"1998 754 OFFCURVE",
"1973 718 OFFCURVE",
"1913 718 CURVE SMOOTH",
"1840 718 OFFCURVE",
"1778 767 OFFCURVE",
"1701 814 CURVE SMOOTH",
"1621 863 OFFCURVE",
"1529 913 OFFCURVE",
"1426 913 CURVE SMOOTH",
"1223 913 OFFCURVE",
"1136 832 OFFCURVE",
"1136 643 CURVE SMOOTH",
"1136 626 LINE",
"1340 626 LINE",
"1340 653 LINE SMOOTH",
"1340 694 OFFCURVE",
"1371 712 OFFCURVE",
"1445 712 CURVE SMOOTH",
"1525 712 OFFCURVE",
"1599 663 OFFCURVE",
"1675 616 CURVE SMOOTH",
"1757 566 OFFCURVE",
"1841 517 OFFCURVE",
"1940 517 CURVE SMOOTH"
);
},
{
closed = 1;
nodes = (
"1340 616 LINE",
"1340 802 LINE",
"280 802 LINE",
"280 616 LINE"
);
}
);
width = 1200;
},
{
layerId = "8E053A5E-67DA-4970-A6F5-068DBFE5AD21";
paths = (
{
closed = 1;
nodes = (
"2130 488 OFFCURVE",
"2218 587 OFFCURVE",
"2218 818 CURVE SMOOTH",
"2218 963 LINE",
"1955 963 LINE",
"1955 858 LINE SMOOTH",
"1955 798 OFFCURVE",
"1930 772 OFFCURVE",
"1870 772 CURVE SMOOTH",
"1803 772 OFFCURVE",
"1742 812 OFFCURVE",
"1677 852 CURVE SMOOTH",
"1585 907 OFFCURVE",
"1502 951 OFFCURVE",
"1398 951 CURVE SMOOTH",
"1171 951 OFFCURVE",
"1074 859 OFFCURVE",
"1074 644 CURVE SMOOTH",
"1074 591 LINE",
"1340 591 LINE",
"1340 604 LINE SMOOTH",
"1340 647 OFFCURVE",
"1374 666 OFFCURVE",
"1453 666 CURVE SMOOTH",
"1522 666 OFFCURVE",
"1575 623 OFFCURVE",
"1651 579 CURVE SMOOTH",
"1735 529 OFFCURVE",
"1824 488 OFFCURVE",
"1925 488 CURVE SMOOTH"
);
},
{
closed = 1;
nodes = (
"1340 584 LINE",
"1340 834 LINE",
"280 834 LINE",
"280 584 LINE"
);
}
);
width = 1200;
}
);
}
{
glyphname = hyphen_end.seq;
layers = (
{
layerId = master01;
paths = (
{
closed = 1;
nodes = (
"1076 664 LINE",
"1076 754 LINE",
"-20 754 LINE",
"-20 664 LINE"
);
}
);
width = 1200;
},
{
layerId = "1F90C004-9C90-48FA-B407-176B3E9F1E65";
paths = (
{
closed = 1;
nodes = (
"1100 616 LINE",
"1100 802 LINE",
"-20 802 LINE",
"-20 616 LINE"
);
}
);
width = 1200;
},
{
layerId = "8E053A5E-67DA-4970-A6F5-068DBFE5AD21";
paths = (
{
closed = 1;
nodes = (
"1117 584 LINE",
"1117 834 LINE",
"-20 834 LINE",
"-20 584 LINE"
);
}
);
width = 1200;
}
);
}
{
glyphname = hyphen_hyphen.liga;
layers = (
{
layerId = master01;
paths = (
{
closed = 1;
nodes = (
"2120 664 LINE",
"2120 754 LINE",
"1330 754 LINE",
"1330 664 LINE"
);
},
{
closed = 1;
nodes = (
"1070 664 LINE",
"1070 754 LINE",
"280 754 LINE",
"280 664 LINE"
);
}
);
width = 1200;
},
{
layerId = "1F90C004-9C90-48FA-B407-176B3E9F1E65";
paths = (
{
closed = 1;
nodes = (
"2120 616 LINE",
"2120 802 LINE",
"1330 802 LINE",
"1330 616 LINE"
);
},
{
closed = 1;
nodes = (
"1070 616 LINE",
"1070 802 LINE",
"280 802 LINE",
"280 616 LINE"
);
}
);
width = 1200;
},
{
layerId = "8E053A5E-67DA-4970-A6F5-068DBFE5AD21";
paths = (
{
closed = 1;
nodes = (
"2120 584 LINE",
"2120 834 LINE",
"1330 834 LINE",
"1330 584 LINE"
);
},
{
closed = 1;
nodes = (
"1070 584 LINE",
"1070 834 LINE",
"280 834 LINE",
"280 584 LINE"
);
}
);
width = 1200;
}
);
}
{
glyphname = hyphen_hyphen_hyphen.liga;
layers = (
{
layerId = master01;
paths = (
{
closed = 1;
nodes = (
"3320 664 LINE",
"3320 754 LINE",
"2527 754 LINE",
"2527 664 LINE"
);
},
{
closed = 1;
nodes = (
"1067 664 LINE",
"1067 754 LINE",
"280 754 LINE",
"280 664 LINE"
);
},
{
closed = 1;
nodes = (
"2197 664 LINE",
"2197 754 LINE",
"1397 754 LINE",
"1397 664 LINE"
);
}
);
width = 1200;
},
{
layerId = "1F90C004-9C90-48FA-B407-176B3E9F1E65";
paths = (
{
closed = 1;
nodes = (
"3320 616 LINE",
"3320 802 LINE",
"2527 802 LINE",
"2527 616 LINE"
);
},
{
closed = 1;
nodes = (
"1067 616 LINE",
"1067 802 LINE",
"280 802 LINE",
"280 616 LINE"
);
},
{
closed = 1;
nodes = (
"2197 616 LINE",
"2197 802 LINE",
"1397 802 LINE",
"1397 616 LINE"
);
}
);
width = 1200;
},
{
layerId = "8E053A5E-67DA-4970-A6F5-068DBFE5AD21";
paths = (
{
closed = 1;
nodes = (
"3320 584 LINE",
"3320 834 LINE",
"2527 834 LINE",
"2527 584 LINE"
);
},
{
closed = 1;
nodes = (
"1067 584 LINE",
"1067 834 LINE",
"280 834 LINE",
"280 584 LINE"
);
},
{
closed = 1;
nodes = (
"2197 584 LINE",
"2197 834 LINE",
"1397 834 LINE",
"1397 584 LINE"
);
}
);
width = 1200;
}
);
}
{
glyphname = hyphen_middle.seq;
layers = (
{
layerId = master01;
paths = (
{
closed = 1;
nodes = (
"1250 664 LINE",
"1250 754 LINE",
"-50 754 LINE",
"-50 664 LINE"
);
}
);
width = 1200;
},
{
layerId = "1F90C004-9C90-48FA-B407-176B3E9F1E65";
paths = (
{
closed = 1;
nodes = (
"1250 616 LINE",
"1250 802 LINE",
"-50 802 LINE",
"-50 616 LINE"
);
}
);
width = 1200;
},
{
layerId = "8E053A5E-67DA-4970-A6F5-068DBFE5AD21";
paths = (
{
closed = 1;
nodes = (
"1250 584 LINE",
"1250 834 LINE",
"-50 834 LINE",
"-50 584 LINE"
);
}
);
width = 1200;
}
);
}
{
glyphname = less.alt;
layers = (
{
layerId = master01;
paths = (
{
closed = 1;
nodes = (
"965 97 LINE",
"358 700 LINE",
"358 718 LINE",
"955 1321 LINE",
"896 1388 LINE",
"240 720 LINE",
"240 698 LINE",
"896 30 LINE"
);
}
);
width = 1200;
},
{
layerId = "1F90C004-9C90-48FA-B407-176B3E9F1E65";
paths = (
{
closed = 1;
nodes = (
"972 127 LINE",
"417 700 LINE",
"417 718 LINE",
"972 1291 LINE",
"847 1416 LINE",
"223 770 LINE",
"223 648 LINE",
"847 2 LINE"
);
}
);
width = 1200;
},
{
layerId = "8E053A5E-67DA-4970-A6F5-068DBFE5AD21";
paths = (
{
closed = 1;
nodes = (
"992 167 LINE",
"477 700 LINE",
"477 718 LINE",
"992 1251 LINE",
"817 1416 LINE",
"203 770 LINE",
"203 648 LINE",
"817 2 LINE"
);
}
);
width = 1200;
}
);
}
{
glyphname = less.center;
layers = (
{
layerId = master01;
paths = (
{
closed = 1;
nodes = (
"1110 364 LINE",
"204 700 LINE",
"204 718 LINE",
"1110 1054 LINE",
"1110 1164 LINE",
"30 740 LINE",
"30 678 LINE",
"1110 254 LINE"
);
}
);
width = 1200;
},
{
layerId = "1F90C004-9C90-48FA-B407-176B3E9F1E65";
paths = (
{
closed = 1;
nodes = (
"1140 434 LINE",
"323 700 LINE",
"323 718 LINE",
"1140 984 LINE",
"1140 1204 LINE",
"25 810 LINE",
"25 608 LINE",
"1140 214 LINE"
);
}
);
width = 1200;
},
{
layerId = "8E053A5E-67DA-4970-A6F5-068DBFE5AD21";
paths = (
{
closed = 1;
nodes = (
"1160 467 LINE",
"338 692 LINE",
"338 726 LINE",
"1160 951 LINE",
"1160 1221 LINE",
"15 843 LINE",
"15 575 LINE",
"1160 197 LINE"
);
}
);
width = 1200;
}
);
}
{
glyphname = less_asciitilde.liga;
layers = (
{
components = (
{
name = less.alt;
}
);
layerId = master01;
paths = (
{
closed = 1;
nodes = (
"2087 517 OFFCURVE",
"2176 619 OFFCURVE",
"2176 815 CURVE SMOOTH",
"2176 930 LINE",
"2080 930 LINE",
"2080 826 LINE SMOOTH",
"2080 679 OFFCURVE",
"2018 607 OFFCURVE",
"1898 607 CURVE SMOOTH",
"1792 607 OFFCURVE",
"1707 673 OFFCURVE",
"1618 722 CURVE SMOOTH",
"1520 776 OFFCURVE",
"1424 842 OFFCURVE",
"1310 842 CURVE SMOOTH",
"1127 842 OFFCURVE",
"1016 705 OFFCURVE",
"802 705 CURVE SMOOTH",
"640 705 OFFCURVE",
"509 753 OFFCURVE",
"335 753 CURVE",
"335 671 LINE",
"497 671 OFFCURVE",
"640 615 OFFCURVE",
"802 615 CURVE SMOOTH",
"1015 615 OFFCURVE",
"1127 752 OFFCURVE",
"1304 752 CURVE SMOOTH",
"1399 752 OFFCURVE",
"1479 688 OFFCURVE",
"1565 643 CURVE SMOOTH",
"1670 588 OFFCURVE",
"1773 517 OFFCURVE",
"1900 517 CURVE SMOOTH"
);
}
);
width = 1200;
},
{
components = (
{
name = less.alt;
transform = "{1, 0, 0, 1, 17, 0}";
}
);
layerId = "1F90C004-9C90-48FA-B407-176B3E9F1E65";
paths = (
{
closed = 1;
nodes = (
"2097 490 OFFCURVE",
"2200 612 OFFCURVE",
"2200 860 CURVE SMOOTH",
"2200 930 LINE",
"1998 930 LINE",
"1998 880 LINE SMOOTH",
"1998 753 OFFCURVE",
"1957 691 OFFCURVE",
"1878 691 CURVE SMOOTH",
"1791 691 OFFCURVE",
"1719 734 OFFCURVE",
"1648 776 CURVE SMOOTH",
"1553 833 OFFCURVE",
"1461 896 OFFCURVE",
"1350 896 CURVE SMOOTH",
"1182 896 OFFCURVE",
"1078 761 OFFCURVE",
"882 761 CURVE SMOOTH",
"702 761 OFFCURVE",
"558 802 OFFCURVE",
"365 802 CURVE",
"365 622 LINE",
"545 622 OFFCURVE",
"702 560 OFFCURVE",
"882 560 CURVE SMOOTH",
"1079 560 OFFCURVE",
"1182 695 OFFCURVE",
"1344 695 CURVE SMOOTH",
"1436 695 OFFCURVE",
"1512 641 OFFCURVE",
"1595 593 CURVE SMOOTH",
"1682 542 OFFCURVE",
"1772 490 OFFCURVE",
"1880 490 CURVE SMOOTH"
);
}
);
width = 1200;
},
{
components = (
{
name = less.alt;
transform = "{1, 0, 0, 1, 37, 0}";
}
);
layerId = "8E053A5E-67DA-4970-A6F5-068DBFE5AD21";
paths = (
{
closed = 1;
nodes = (
"2119 482 OFFCURVE",
"2217 606 OFFCURVE",
"2217 860 CURVE SMOOTH",
"2217 963 LINE",
"1953 963 LINE",
"1953 880 LINE SMOOTH",
"1953 803 OFFCURVE",
"1919 766 OFFCURVE",
"1853 766 CURVE SMOOTH",
"1779 766 OFFCURVE",
"1710 814 OFFCURVE",
"1656 851 CURVE SMOOTH",
"1570 911 OFFCURVE",
"1504 946 OFFCURVE",
"1413 946 CURVE SMOOTH",
"1229 946 OFFCURVE",
"1116 801 OFFCURVE",
"900 801 CURVE SMOOTH",
"746 801 OFFCURVE",
"621 827 OFFCURVE",
"455 827 CURVE",
"455 597 LINE",
"609 597 OFFCURVE",
"746 550 OFFCURVE",
"900 550 CURVE SMOOTH",
"1094 550 OFFCURVE",
"1198 687 OFFCURVE",
"1357 687 CURVE SMOOTH",
"1442 687 OFFCURVE",
"1509 629 OFFCURVE",
"1587 585 CURVE SMOOTH",
"1683 528 OFFCURVE",
"1790 482 OFFCURVE",
"1913 482 CURVE SMOOTH"
);
}
);
width = 1200;
}
);
}
{
glyphname = less_asciitilde_asciitilde.liga;
layers = (
{
components = (
{
name = less.alt;
}
);
layerId = master01;
paths = (
{
closed = 1;
nodes = (
"2065 544 OFFCURVE",
"2174 601 OFFCURVE",
"2279 656 CURVE SMOOTH",
"2379 708 OFFCURVE",
"2446 731 OFFCURVE",
"2514 731 CURVE SMOOTH",
"2582 731 OFFCURVE",
"2646 707 OFFCURVE",
"2743 651 CURVE SMOOTH",
"2852 588 OFFCURVE",
"2956 516 OFFCURVE",
"3080 516 CURVE SMOOTH",
"3281 516 OFFCURVE",
"3376 624 OFFCURVE",
"3376 845 CURVE SMOOTH",
"3376 930 LINE",
"3280 930 LINE",
"3280 865 LINE SMOOTH",
"3280 687 OFFCURVE",
"3211 601 OFFCURVE",
"3078 601 CURVE SMOOTH",
"2990 601 OFFCURVE",
"2919 660 OFFCURVE",
"2829 713 CURVE SMOOTH",
"2714 781 OFFCURVE",
"2616 821 OFFCURVE",
"2520 821 CURVE SMOOTH",
"2423 821 OFFCURVE",
"2343 792 OFFCURVE",
"2205 719 CURVE SMOOTH",
"2123 676 OFFCURVE",
"2042 634 OFFCURVE",
"1968 634 CURVE SMOOTH",
"1872 634 OFFCURVE",
"1797 663 OFFCURVE",
"1727 702 CURVE SMOOTH",
"1636 751 OFFCURVE",
"1545 801 OFFCURVE",
"1412 801 CURVE SMOOTH",
"1162 801 OFFCURVE",
"1066 704 OFFCURVE",
"810 704 CURVE SMOOTH",
"590 704 OFFCURVE",
"524 753 OFFCURVE",
"335 753 CURVE",
"335 667 LINE",
"524 667 OFFCURVE",
"590 614 OFFCURVE",
"812 614 CURVE SMOOTH",
"1065 614 OFFCURVE",
"1163 711 OFFCURVE",
"1406 711 CURVE SMOOTH",
"1504 711 OFFCURVE",
"1577 670 OFFCURVE",
"1654 629 CURVE SMOOTH",
"1740 581 OFFCURVE",
"1837 544 OFFCURVE",
"1970 544 CURVE SMOOTH"
);
}
);
width = 1200;
},
{
components = (
{
name = less.alt;
transform = "{1, 0, 0, 1, 17, 0}";
}
);
layerId = "1F90C004-9C90-48FA-B407-176B3E9F1E65";
paths = (
{
closed = 1;
nodes = (
"2095 490 OFFCURVE",
"2204 547 OFFCURVE",
"2309 602 CURVE SMOOTH",
"2389 644 OFFCURVE",
"2471 675 OFFCURVE",
"2544 675 CURVE SMOOTH",
"2620 675 OFFCURVE",
"2689 634 OFFCURVE",
"2763 597 CURVE SMOOTH",
"2862 548 OFFCURVE",
"2963 490 OFFCURVE",
"3080 490 CURVE SMOOTH",
"3297 490 OFFCURVE",
"3400 612 OFFCURVE",
"3400 860 CURVE SMOOTH",
"3400 930 LINE",
"3198 930 LINE",
"3198 880 LINE SMOOTH",
"3198 753 OFFCURVE",
"3157 691 OFFCURVE",
"3078 691 CURVE SMOOTH",
"2997 691 OFFCURVE",
"2926 735 OFFCURVE",
"2849 774 CURVE SMOOTH",
"2759 819 OFFCURVE",
"2660 876 OFFCURVE",
"2550 876 CURVE SMOOTH",
"2452 876 OFFCURVE",
"2340 829 OFFCURVE",
"2235 774 CURVE SMOOTH",
"2153 731 OFFCURVE",
"2072 691 OFFCURVE",
"1998 691 CURVE SMOOTH",
"1914 691 OFFCURVE",
"1850 722 OFFCURVE",
"1787 757 CURVE SMOOTH",
"1696 806 OFFCURVE",
"1605 856 OFFCURVE",
"1472 856 CURVE SMOOTH",
"1231 856 OFFCURVE",
"1137 771 OFFCURVE",
"890 771 CURVE SMOOTH",
"652 771 OFFCURVE",
"580 808 OFFCURVE",
"375 808 CURVE",
"375 612 LINE",
"580 612 OFFCURVE",
"652 570 OFFCURVE",
"892 570 CURVE SMOOTH",
"1136 570 OFFCURVE",
"1231 655 OFFCURVE",
"1466 655 CURVE SMOOTH",
"1564 655 OFFCURVE",
"1637 616 OFFCURVE",
"1714 575 CURVE SMOOTH",
"1794 531 OFFCURVE",
"1880 490 OFFCURVE",
"2000 490 CURVE SMOOTH"
);
}
);
width = 1200;
},
{
components = (
{
name = less.alt;
transform = "{1, 0, 0, 1, 37, 0}";
}
);
layerId = "8E053A5E-67DA-4970-A6F5-068DBFE5AD21";
paths = (
{
closed = 1;
nodes = (
"2095 482 OFFCURVE",
"2204 539 OFFCURVE",
"2309 594 CURVE SMOOTH",
"2391 637 OFFCURVE",
"2479 667 OFFCURVE",
"2552 667 CURVE SMOOTH",
"2626 667 OFFCURVE",
"2692 625 OFFCURVE",
"2763 589 CURVE SMOOTH",
"2862 540 OFFCURVE",
"2963 482 OFFCURVE",
"3080 482 CURVE SMOOTH",
"3309 482 OFFCURVE",
"3417 606 OFFCURVE",
"3417 860 CURVE SMOOTH",
"3417 963 LINE",
"3156 963 LINE",
"3156 930 LINE SMOOTH",
"3156 820 OFFCURVE",
"3121 766 OFFCURVE",
"3053 766 CURVE SMOOTH",
"2969 766 OFFCURVE",
"2899 823 OFFCURVE",
"2816 866 CURVE SMOOTH",
"2746 901 OFFCURVE",
"2658 926 OFFCURVE",
"2567 926 CURVE SMOOTH",
"2464 926 OFFCURVE",
"2344 882 OFFCURVE",
"2235 824 CURVE SMOOTH",
"2153 781 OFFCURVE",
"2072 741 OFFCURVE",
"1998 741 CURVE SMOOTH",
"1914 741 OFFCURVE",
"1850 772 OFFCURVE",
"1787 807 CURVE SMOOTH",
"1696 856 OFFCURVE",
"1605 906 OFFCURVE",
"1472 906 CURVE SMOOTH",
"1256 906 OFFCURVE",
"1172 803 OFFCURVE",
"950 803 CURVE SMOOTH",
"726 803 OFFCURVE",
"658 821 OFFCURVE",
"465 821 CURVE",
"465 600 LINE",
"658 600 OFFCURVE",
"726 563 OFFCURVE",
"952 563 CURVE SMOOTH",
"1171 563 OFFCURVE",
"1256 647 OFFCURVE",
"1466 647 CURVE SMOOTH",
"1564 647 OFFCURVE",
"1637 608 OFFCURVE",
"1714 567 CURVE SMOOTH",
"1794 523 OFFCURVE",
"1880 482 OFFCURVE",
"2000 482 CURVE SMOOTH"
);
}
);
width = 1200;
}
);
}
{
glyphname = less_bar.liga;
layers = (
{
layerId = master01;
paths = (
{
closed = 1;
nodes = (
"1859 1430 LINE",
"355 770 LINE",
"355 648 LINE",
"1859 -10 LINE"
);
},
{
closed = 1;
nodes = (
"1844 107 LINE",
"473 700 LINE",
"473 718 LINE",
"1844 1314 LINE",
"1765 1355 LINE",
"1765 65 LINE"
);
}
);
width = 1200;
},
{
layerId = "1F90C004-9C90-48FA-B407-176B3E9F1E65";
paths = (
{
closed = 1;
nodes = (
"1859 1430 LINE",
"355 810 LINE",
"355 608 LINE",
"1859 -10 LINE"
);
},
{
closed = 1;
nodes = (
"1739 275 LINE",
"633 700 LINE",
"633 718 LINE",
"1739 1144 LINE",
"1651 1199 LINE",
"1651 220 LINE"
);
}
);
width = 1200;
},
{
layerId = "8E053A5E-67DA-4970-A6F5-068DBFE5AD21";
paths = (
{
closed = 1;
nodes = (
"1859 1430 LINE",
"355 843 LINE",
"355 575 LINE",
"1859 -10 LINE"
);
},
{
closed = 1;
nodes = (
"1673 360 LINE",
"705 692 LINE",
"705 726 LINE",
"1673 1059 LINE",
"1592 1116 LINE",
"1592 303 LINE"
);
}
);
width = 1200;
}
);
}
{
glyphname = less_bar_bar.liga;
layers = (
{
components = (
{
name = bar;
transform = "{1, 0, 0, 1, 2240, 0}";
}
);
layerId = master01;
paths = (
{
closed = 1;
nodes = (
"2000 1430 LINE",
"496 770 LINE",
"496 648 LINE",
"2000 -10 LINE"
);
},
{
closed = 1;
nodes = (
"1985 107 LINE",
"614 700 LINE",
"614 718 LINE",
"1985 1314 LINE",
"1906 1355 LINE",
"1906 65 LINE"
);
}
);
width = 1200;
},
{
components = (
{
name = bar;
transform = "{1, 0, 0, 1, 2240, 0}";
}
);
layerId = "1F90C004-9C90-48FA-B407-176B3E9F1E65";
paths = (
{
closed = 1;
nodes = (
"2000 1430 LINE",
"496 810 LINE",
"496 608 LINE",
"2000 -10 LINE"
);
},
{
closed = 1;
nodes = (
"1880 275 LINE",
"774 700 LINE",
"774 718 LINE",
"1880 1144 LINE",
"1792 1199 LINE",
"1792 220 LINE"
);
}
);
width = 1200;
},
{
components = (
{
alignment = -1;
name = bar;
transform = "{1, 0, 0, 1, 2240, 0}";
}
);
layerId = "8E053A5E-67DA-4970-A6F5-068DBFE5AD21";
paths = (
{
closed = 1;
nodes = (
"2000 1430 LINE",
"496 843 LINE",
"496 575 LINE",
"2000 -10 LINE"
);
},
{
closed = 1;
nodes = (
"1814 360 LINE",
"846 692 LINE",
"846 726 LINE",
"1814 1059 LINE",
"1733 1116 LINE",
"1733 303 LINE"
);
}
);
width = 1200;
}
);
}
{
glyphname = less_dollar.liga;
layers = (
{
layerId = master01;
paths = (
{
closed = 1;
nodes = (
"1725 69 LINE",
"260 704 LINE",
"260 712 LINE",
"1135 1103 LINE",
"1135 1203 LINE",
"177 764 LINE",
"177 652 LINE",
"1725 -26 LINE"
);
},
{
closed = 1;
nodes = (
"2019 -21 OFFCURVE",
"2154 113 OFFCURVE",
"2154 331 CURVE SMOOTH",
"2154 479 OFFCURVE",
"2080 600 OFFCURVE",
"1922 677 CURVE SMOOTH",
"1546 861 LINE SMOOTH",
"1451 907 OFFCURVE",
"1404 980 OFFCURVE",
"1404 1080 CURVE SMOOTH",
"1404 1261 OFFCURVE",
"1511 1350 OFFCURVE",
"1728 1350 CURVE SMOOTH",
"1850 1350 OFFCURVE",
"1972 1303 OFFCURVE",
"2096 1208 CURVE",
"2161 1273 LINE",
"2045 1385 OFFCURVE",
"1901 1440 OFFCURVE",
"1727 1440 CURVE SMOOTH",
"1450 1440 OFFCURVE",
"1312 1317 OFFCURVE",
"1312 1070 CURVE SMOOTH",
"1312 939 OFFCURVE",
"1373 843 OFFCURVE",
"1497 781 CURVE SMOOTH",
"1900 578 LINE SMOOTH",
"2010 523 OFFCURVE",
"2062 436 OFFCURVE",
"2062 327 CURVE SMOOTH",
"2062 167 OFFCURVE",
"1957 69 OFFCURVE",
"1746 69 CURVE",
"1746 -21 LINE"
);
},
{
closed = 1;
nodes = (
"1779 -320 LINE",
"1779 1740 LINE",
"1689 1740 LINE",
"1689 -320 LINE"
);
}
);
width = 1200;
},
{
associatedMasterId = master01;
layerId = "CC8586D9-B8A3-417B-8CD0-128B3FB31C64";
name = "[600]";
paths = (
{
closed = 1;
nodes = (
"1725 69 LINE",
"260 704 LINE",
"260 712 LINE",
"1135 1103 LINE",
"1135 1203 LINE",
"177 764 LINE",
"177 652 LINE",
"1725 -26 LINE"
);
},
{
closed = 1;
nodes = (
"1779 -320 LINE",
"1779 69 LINE",
"1689 69 LINE",
"1689 -320 LINE"
);
},
{
closed = 1;
nodes = (
"2019 -21 OFFCURVE",
"2154 113 OFFCURVE",
"2154 331 CURVE SMOOTH",
"2154 479 OFFCURVE",
"2080 600 OFFCURVE",
"1922 677 CURVE SMOOTH",
"1546 861 LINE SMOOTH",
"1451 907 OFFCURVE",
"1404 980 OFFCURVE",
"1404 1080 CURVE SMOOTH",
"1404 1261 OFFCURVE",
"1511 1350 OFFCURVE",
"1728 1350 CURVE SMOOTH",
"1850 1350 OFFCURVE",
"1972 1303 OFFCURVE",
"2096 1208 CURVE",
"2161 1273 LINE",
"2045 1385 OFFCURVE",
"1901 1440 OFFCURVE",
"1727 1440 CURVE SMOOTH",
"1450 1440 OFFCURVE",
"1312 1317 OFFCURVE",
"1312 1070 CURVE SMOOTH",
"1312 939 OFFCURVE",
"1373 843 OFFCURVE",
"1497 781 CURVE SMOOTH",
"1900 578 LINE SMOOTH",
"2010 523 OFFCURVE",
"2062 436 OFFCURVE",
"2062 327 CURVE SMOOTH",
"2062 167 OFFCURVE",
"1957 69 OFFCURVE",
"1746 69 CURVE",
"1746 -21 LINE"
);
},
{
closed = 1;
nodes = (
"1779 1406 LINE",
"1779 1740 LINE",
"1689 1740 LINE",
"1689 1406 LINE"
);
}
);
width = 1200;
},
{
layerId = "1F90C004-9C90-48FA-B407-176B3E9F1E65";
paths = (
{
closed = 1;
nodes = (
"1759 147 LINE",
"421 700 LINE",
"421 718 LINE",
"1125 994 LINE",
"1125 1210 LINE",
"173 810 LINE",
"173 608 LINE",
"1759 -63 LINE"
);
},
{
closed = 1;
nodes = (
"2011 -20 OFFCURVE",
"2177 109 OFFCURVE",
"2177 366 CURVE SMOOTH",
"2177 560 OFFCURVE",
"2065 673 OFFCURVE",
"1855 772 CURVE SMOOTH",
"1647 870 LINE SMOOTH",
"1551 915 OFFCURVE",
"1501 968 OFFCURVE",
"1501 1060 CURVE SMOOTH",
"1501 1189 OFFCURVE",
"1580 1256 OFFCURVE",
"1717 1256 CURVE SMOOTH",
"1827 1256 OFFCURVE",
"1923 1215 OFFCURVE",
"2041 1119 CURVE",
"2181 1261 LINE",
"2045 1387 OFFCURVE",
"1907 1440 OFFCURVE",
"1716 1440 CURVE SMOOTH",
"1443 1440 OFFCURVE",
"1287 1298 OFFCURVE",
"1287 1050 CURVE SMOOTH",
"1287 866 OFFCURVE",
"1393 748 OFFCURVE",
"1587 660 CURVE SMOOTH",
"1833 548 LINE SMOOTH",
"1917 510 OFFCURVE",
"1963 450 OFFCURVE",
"1963 362 CURVE SMOOTH",
"1963 229 OFFCURVE",
"1873 164 OFFCURVE",
"1687 164 CURVE",
"1671 -20 LINE"
);
},
{
closed = 1;
nodes = (
"1802 -320 LINE",
"1802 1740 LINE",
"1664 1740 LINE",
"1664 -320 LINE"
);
}
);
width = 1200;
},
{
associatedMasterId = "1F90C004-9C90-48FA-B407-176B3E9F1E65";
layerId = "9C6CABA0-B134-48E3-ABB3-D214DF43220F";
name = "[600]";
paths = (
{
closed = 1;
nodes = (
"1759 147 LINE",
"421 700 LINE",
"421 718 LINE",
"1125 994 LINE",
"1125 1210 LINE",
"173 810 LINE",
"173 608 LINE",
"1759 -63 LINE"
);
},
{
closed = 1;
nodes = (
"1802 -320 LINE",
"1802 164 LINE",
"1664 164 LINE",
"1664 -320 LINE"
);
},
{
closed = 1;
nodes = (
"2011 -20 OFFCURVE",
"2177 109 OFFCURVE",
"2177 366 CURVE SMOOTH",
"2177 560 OFFCURVE",
"2065 673 OFFCURVE",
"1855 772 CURVE SMOOTH",
"1647 870 LINE SMOOTH",
"1551 915 OFFCURVE",
"1501 968 OFFCURVE",
"1501 1060 CURVE SMOOTH",
"1501 1189 OFFCURVE",
"1580 1256 OFFCURVE",
"1717 1256 CURVE SMOOTH",
"1827 1256 OFFCURVE",
"1923 1215 OFFCURVE",
"2041 1119 CURVE",
"2181 1261 LINE",
"2045 1387 OFFCURVE",
"1907 1440 OFFCURVE",
"1716 1440 CURVE SMOOTH",
"1443 1440 OFFCURVE",
"1287 1298 OFFCURVE",
"1287 1050 CURVE SMOOTH",
"1287 866 OFFCURVE",
"1393 748 OFFCURVE",
"1587 660 CURVE SMOOTH",
"1833 548 LINE SMOOTH",
"1917 510 OFFCURVE",
"1963 450 OFFCURVE",
"1963 362 CURVE SMOOTH",
"1963 229 OFFCURVE",
"1873 164 OFFCURVE",
"1687 164 CURVE",
"1671 -20 LINE"
);
},
{
closed = 1;
nodes = (
"1802 1341 LINE",
"1802 1740 LINE",
"1664 1740 LINE",
"1664 1341 LINE"
);
}
);
width = 1200;
},
{
layerId = "8E053A5E-67DA-4970-A6F5-068DBFE5AD21";
paths = (
{
closed = 1;
nodes = (
"1761 211 LINE",
"486 692 LINE",
"486 726 LINE",
"1108 961 LINE",
"1108 1231 LINE",
"171 843 LINE",
"171 575 LINE",
"1756 -56 LINE"
);
},
{
closed = 1;
nodes = (
"2003 -20 OFFCURVE",
"2191 122 OFFCURVE",
"2191 374 CURVE SMOOTH",
"2191 533 OFFCURVE",
"2078 676 OFFCURVE",
"1878 779 CURVE SMOOTH",
"1686 878 LINE SMOOTH",
"1601 922 OFFCURVE",
"1553 980 OFFCURVE",
"1553 1043 CURVE SMOOTH",
"1553 1135 OFFCURVE",
"1622 1187 OFFCURVE",
"1743 1187 CURVE SMOOTH",
"1827 1187 OFFCURVE",
"1922 1136 OFFCURVE",
"2004 1047 CURVE",
"2190 1254 LINE",
"2080 1373 OFFCURVE",
"1916 1440 OFFCURVE",
"1742 1440 CURVE SMOOTH",
"1440 1440 OFFCURVE",
"1267 1298 OFFCURVE",
"1267 1050 CURVE SMOOTH",
"1267 874 OFFCURVE",
"1383 724 OFFCURVE",
"1584 626 CURVE SMOOTH",
"1788 527 LINE SMOOTH",
"1862 491 OFFCURVE",
"1905 438 OFFCURVE",
"1905 379 CURVE SMOOTH",
"1905 285 OFFCURVE",
"1826 233 OFFCURVE",
"1684 233 CURVE",
"1668 -20 LINE"
);
},
{
closed = 1;
nodes = (
"1857 -320 LINE",
"1857 1740 LINE",
"1604 1740 LINE",
"1604 -320 LINE"
);
}
);
width = 1200;
},
{
associatedMasterId = "8E053A5E-67DA-4970-A6F5-068DBFE5AD21";
layerId = "0221714B-3CD2-4094-83EA-3497078EAACB";
name = "[600]";
paths = (
{
closed = 1;
nodes = (
"1761 211 LINE",
"486 692 LINE",
"486 726 LINE",
"1108 961 LINE",
"1108 1231 LINE",
"171 843 LINE",
"171 575 LINE",
"1756 -56 LINE"
);
},
{
closed = 1;
nodes = (
"1857 -320 LINE",
"1857 233 LINE",
"1604 233 LINE",
"1604 -320 LINE"
);
},
{
closed = 1;
nodes = (
"2003 -20 OFFCURVE",
"2191 122 OFFCURVE",
"2191 374 CURVE SMOOTH",
"2191 533 OFFCURVE",
"2078 676 OFFCURVE",
"1878 779 CURVE SMOOTH",
"1686 878 LINE SMOOTH",
"1601 922 OFFCURVE",
"1553 980 OFFCURVE",
"1553 1043 CURVE SMOOTH",
"1553 1135 OFFCURVE",
"1622 1187 OFFCURVE",
"1743 1187 CURVE SMOOTH",
"1827 1187 OFFCURVE",
"1922 1136 OFFCURVE",
"2004 1047 CURVE",
"2190 1254 LINE",
"2080 1373 OFFCURVE",
"1916 1440 OFFCURVE",
"1742 1440 CURVE SMOOTH",
"1440 1440 OFFCURVE",
"1267 1298 OFFCURVE",
"1267 1050 CURVE SMOOTH",
"1267 874 OFFCURVE",
"1383 724 OFFCURVE",
"1584 626 CURVE SMOOTH",
"1788 527 LINE SMOOTH",
"1862 491 OFFCURVE",
"1905 438 OFFCURVE",
"1905 379 CURVE SMOOTH",
"1905 285 OFFCURVE",
"1826 233 OFFCURVE",
"1684 233 CURVE",
"1668 -20 LINE"
);
},
{
closed = 1;
nodes = (
"1857 1291 LINE",
"1857 1740 LINE",
"1604 1740 LINE",
"1604 1291 LINE"
);
}
);
width = 1200;
}
);
}
{
glyphname = less_dollar_greater.liga;
layers = (
{
layerId = master01;
paths = (
{
closed = 1;
nodes = (
"1788 69 LINE",
"323 704 LINE",
"323 712 LINE",
"1198 1103 LINE",
"1198 1203 LINE",
"240 764 LINE",
"240 652 LINE",
"1788 -26 LINE"
);
},
{
closed = 1;
nodes = (
"2068 -21 OFFCURVE",
"2218 110 OFFCURVE",
"2218 331 CURVE SMOOTH",
"2218 479 OFFCURVE",
"2144 600 OFFCURVE",
"1986 677 CURVE SMOOTH",
"1610 861 LINE SMOOTH",
"1515 907 OFFCURVE",
"1468 980 OFFCURVE",
"1468 1080 CURVE SMOOTH",
"1468 1261 OFFCURVE",
"1575 1350 OFFCURVE",
"1792 1350 CURVE",
"1791 1440 LINE",
"1514 1440 OFFCURVE",
"1376 1317 OFFCURVE",
"1376 1070 CURVE SMOOTH",
"1376 939 OFFCURVE",
"1437 843 OFFCURVE",
"1561 781 CURVE SMOOTH",
"1964 578 LINE SMOOTH",
"2074 523 OFFCURVE",
"2126 436 OFFCURVE",
"2126 327 CURVE SMOOTH",
"2126 164 OFFCURVE",
"2007 69 OFFCURVE",
"1766 69 CURVE",
"1766 -21 LINE"
);
},
{
closed = 1;
nodes = (
"1845 -320 LINE",
"1845 1740 LINE",
"1751 1740 LINE",
"1751 -320 LINE"
);
},
{
closed = 1;
nodes = (
"3360 653 LINE",
"3360 765 LINE",
"1812 1437 LINE",
"1812 1342 LINE",
"3277 713 LINE",
"3277 705 LINE",
"2402 314 LINE",
"2402 214 LINE"
);
}
);
width = 1200;
},
{
layerId = "1F90C004-9C90-48FA-B407-176B3E9F1E65";
paths = (
{
closed = 1;
nodes = (
"1826 147 LINE",
"488 700 LINE",
"488 718 LINE",
"1192 994 LINE",
"1192 1210 LINE",
"240 810 LINE",
"240 608 LINE",
"1826 -63 LINE"
);
},
{
closed = 1;
nodes = (
"2076 -20 OFFCURVE",
"2242 109 OFFCURVE",
"2242 366 CURVE SMOOTH",
"2242 560 OFFCURVE",
"2130 673 OFFCURVE",
"1920 772 CURVE SMOOTH",
"1712 870 LINE SMOOTH",
"1616 915 OFFCURVE",
"1566 968 OFFCURVE",
"1566 1060 CURVE SMOOTH",
"1566 1184 OFFCURVE",
"1652 1256 OFFCURVE",
"1802 1256 CURVE",
"1802 1440 LINE",
"1516 1440 OFFCURVE",
"1352 1298 OFFCURVE",
"1352 1050 CURVE SMOOTH",
"1352 866 OFFCURVE",
"1458 748 OFFCURVE",
"1652 660 CURVE SMOOTH",
"1898 548 LINE SMOOTH",
"1982 510 OFFCURVE",
"2028 450 OFFCURVE",
"2028 362 CURVE SMOOTH",
"2028 229 OFFCURVE",
"1938 164 OFFCURVE",
"1752 164 CURVE",
"1736 -20 LINE"
);
},
{
closed = 1;
nodes = (
"1870 -320 LINE",
"1870 1740 LINE",
"1732 1740 LINE",
"1732 -320 LINE"
);
},
{
closed = 1;
nodes = (
"3360 608 LINE",
"3360 810 LINE",
"1853 1447 LINE",
"1853 1232 LINE",
"3102 718 LINE",
"3102 700 LINE",
"2402 434 LINE",
"2402 214 LINE"
);
}
);
width = 1200;
},
{
layerId = "8E053A5E-67DA-4970-A6F5-068DBFE5AD21";
paths = (
{
closed = 1;
nodes = (
"1830 211 LINE",
"555 692 LINE",
"555 726 LINE",
"1177 961 LINE",
"1177 1231 LINE",
"240 843 LINE",
"240 575 LINE",
"1825 -56 LINE"
);
},
{
closed = 1;
nodes = (
"2073 -22 OFFCURVE",
"2260 120 OFFCURVE",
"2260 374 CURVE SMOOTH",
"2260 533 OFFCURVE",
"2147 676 OFFCURVE",
"1947 779 CURVE SMOOTH",
"1755 878 LINE SMOOTH",
"1670 922 OFFCURVE",
"1623 980 OFFCURVE",
"1623 1043 CURVE SMOOTH",
"1623 1136 OFFCURVE",
"1692 1189 OFFCURVE",
"1812 1189 CURVE",
"1811 1440 LINE",
"1509 1440 OFFCURVE",
"1337 1298 OFFCURVE",
"1337 1050 CURVE SMOOTH",
"1337 874 OFFCURVE",
"1452 724 OFFCURVE",
"1654 626 CURVE SMOOTH",
"1858 527 LINE SMOOTH",
"1932 491 OFFCURVE",
"1975 438 OFFCURVE",
"1975 379 CURVE SMOOTH",
"1975 283 OFFCURVE",
"1895 230 OFFCURVE",
"1754 230 CURVE",
"1738 -22 LINE"
);
},
{
closed = 1;
nodes = (
"1927 -320 LINE",
"1927 1740 LINE",
"1674 1740 LINE",
"1674 -320 LINE"
);
},
{
closed = 1;
nodes = (
"3360 575 LINE",
"3360 843 LINE",
"1850 1458 LINE",
"1850 1189 LINE",
"3043 726 LINE",
"3043 692 LINE",
"2426 459 LINE",
"2426 189 LINE"
);
}
);
width = 1200;
},
{
associatedMasterId = master01;
layerId = "F541547A-E7A4-4DD0-B71A-A49FB16C3BF5";
name = "[600]";
paths = (
{
closed = 1;
nodes = (
"1826 52 LINE",
"323 704 LINE",
"323 712 LINE",
"1198 1103 LINE",
"1198 1203 LINE",
"240 764 LINE",
"240 652 LINE",
"1826 -43 LINE"
);
},
{
closed = 1;
nodes = (
"1845 -320 LINE",
"1845 69 LINE",
"1751 69 LINE",
"1751 -320 LINE"
);
},
{
closed = 1;
nodes = (
"2068 -21 OFFCURVE",
"2218 110 OFFCURVE",
"2218 331 CURVE SMOOTH",
"2218 479 OFFCURVE",
"2144 600 OFFCURVE",
"1986 677 CURVE SMOOTH",
"1610 861 LINE SMOOTH",
"1515 907 OFFCURVE",
"1468 980 OFFCURVE",
"1468 1080 CURVE SMOOTH",
"1468 1261 OFFCURVE",
"1575 1350 OFFCURVE",
"1792 1350 CURVE",
"1792 1440 LINE",
"1514 1440 OFFCURVE",
"1376 1317 OFFCURVE",
"1376 1070 CURVE SMOOTH",
"1376 939 OFFCURVE",
"1437 843 OFFCURVE",
"1561 781 CURVE SMOOTH",
"1964 578 LINE SMOOTH",
"2074 523 OFFCURVE",
"2126 436 OFFCURVE",
"2126 327 CURVE SMOOTH",
"2126 164 OFFCURVE",
"2007 69 OFFCURVE",
"1766 69 CURVE",
"1766 -21 LINE"
);
},
{
closed = 1;
nodes = (
"1845 1350 LINE",
"1845 1740 LINE",
"1751 1740 LINE",
"1751 1350 LINE"
);
},
{
closed = 1;
nodes = (
"3360 653 LINE",
"3360 765 LINE",
"1784 1450 LINE",
"1784 1355 LINE",
"3277 713 LINE",
"3277 705 LINE",
"2402 314 LINE",
"2402 214 LINE"
);
}
);
width = 1200;
},
{
associatedMasterId = "1F90C004-9C90-48FA-B407-176B3E9F1E65";
layerId = "C95D8AB3-E98F-4A89-8EB4-378A17F9F00E";
name = "[600]";
paths = (
{
closed = 1;
nodes = (
"1826 147 LINE",
"488 700 LINE",
"488 718 LINE",
"1192 994 LINE",
"1192 1210 LINE",
"240 810 LINE",
"240 608 LINE",
"1826 -63 LINE"
);
},
{
closed = 1;
nodes = (
"1870 -320 LINE",
"1870 164 LINE",
"1732 164 LINE",
"1732 -320 LINE"
);
},
{
closed = 1;
nodes = (
"2076 -20 OFFCURVE",
"2242 109 OFFCURVE",
"2242 366 CURVE SMOOTH",
"2242 560 OFFCURVE",
"2130 673 OFFCURVE",
"1920 772 CURVE SMOOTH",
"1712 870 LINE SMOOTH",
"1616 915 OFFCURVE",
"1566 968 OFFCURVE",
"1566 1060 CURVE SMOOTH",
"1566 1184 OFFCURVE",
"1652 1256 OFFCURVE",
"1802 1256 CURVE",
"1802 1440 LINE",
"1516 1440 OFFCURVE",
"1352 1298 OFFCURVE",
"1352 1050 CURVE SMOOTH",
"1352 866 OFFCURVE",
"1458 748 OFFCURVE",
"1652 660 CURVE SMOOTH",
"1898 548 LINE SMOOTH",
"1982 510 OFFCURVE",
"2028 450 OFFCURVE",
"2028 362 CURVE SMOOTH",
"2028 229 OFFCURVE",
"1938 164 OFFCURVE",
"1752 164 CURVE",
"1736 -20 LINE"
);
},
{
closed = 1;
nodes = (
"1870 1256 LINE",
"1870 1740 LINE",
"1732 1740 LINE",
"1732 1256 LINE"
);
},
{
closed = 1;
nodes = (
"3360 608 LINE",
"3360 810 LINE",
"1781 1477 LINE",
"1781 1262 LINE",
"3102 718 LINE",
"3102 700 LINE",
"2402 434 LINE",
"2402 214 LINE"
);
}
);
width = 1200;
},
{
associatedMasterId = "8E053A5E-67DA-4970-A6F5-068DBFE5AD21";
layerId = "E77AE22C-294C-4317-9D6C-BA48E5F4C3E1";
name = "[600]";
paths = (
{
closed = 1;
nodes = (
"1830 211 LINE",
"555 692 LINE",
"555 726 LINE",
"1177 961 LINE",
"1177 1231 LINE",
"240 843 LINE",
"240 575 LINE",
"1825 -56 LINE"
);
},
{
closed = 1;
nodes = (
"1927 -320 LINE",
"1927 230 LINE",
"1674 230 LINE",
"1674 -320 LINE"
);
},
{
closed = 1;
nodes = (
"2073 -22 OFFCURVE",
"2260 120 OFFCURVE",
"2260 374 CURVE SMOOTH",
"2260 533 OFFCURVE",
"2147 676 OFFCURVE",
"1947 779 CURVE SMOOTH",
"1755 878 LINE SMOOTH",
"1670 922 OFFCURVE",
"1623 980 OFFCURVE",
"1623 1043 CURVE SMOOTH",
"1623 1136 OFFCURVE",
"1692 1189 OFFCURVE",
"1812 1189 CURVE",
"1812 1440 LINE",
"1509 1440 OFFCURVE",
"1337 1298 OFFCURVE",
"1337 1050 CURVE SMOOTH",
"1337 874 OFFCURVE",
"1452 724 OFFCURVE",
"1654 626 CURVE SMOOTH",
"1858 527 LINE SMOOTH",
"1932 491 OFFCURVE",
"1975 438 OFFCURVE",
"1975 379 CURVE SMOOTH",
"1975 283 OFFCURVE",
"1895 230 OFFCURVE",
"1754 230 CURVE",
"1738 -22 LINE"
);
},
{
closed = 1;
nodes = (
"1927 1189 LINE",
"1927 1740 LINE",
"1674 1740 LINE",
"1674 1189 LINE"
);
},
{
closed = 1;
nodes = (
"3360 575 LINE",
"3360 843 LINE",
"1850 1458 LINE",
"1850 1189 LINE",
"3043 726 LINE",
"3043 692 LINE",
"2426 459 LINE",
"2426 189 LINE"
);
}
);
width = 1200;
}
);
}
{
glyphname = less_equal.liga;
layers = (
{
layerId = master01;
paths = (
{
closed = 1;
nodes = (
"1950 584 LINE",
"604 955 LINE",
"604 963 LINE",
"1950 1334 LINE",
"1950 1434 LINE",
"506 1015 LINE",
"506 903 LINE",
"1950 484 LINE"
);
},
{
closed = 1;
nodes = (
"1950 194 LINE",
"1950 284 LINE",
"506 284 LINE",
"506 194 LINE"
);
}
);
width = 1200;
},
{
layerId = "1F90C004-9C90-48FA-B407-176B3E9F1E65";
paths = (
{
closed = 1;
nodes = (
"1950 704 LINE",
"814 950 LINE",
"814 968 LINE",
"1950 1214 LINE",
"1950 1434 LINE",
"506 1070 LINE",
"506 848 LINE",
"1950 484 LINE"
);
},
{
closed = 1;
nodes = (
"1950 144 LINE",
"1950 334 LINE",
"506 334 LINE",
"506 144 LINE"
);
}
);
width = 1200;
},
{
layerId = "8E053A5E-67DA-4970-A6F5-068DBFE5AD21";
paths = (
{
closed = 1;
nodes = (
"1950 754 LINE",
"856 950 LINE",
"856 968 LINE",
"1950 1164 LINE",
"1950 1434 LINE",
"506 1095 LINE",
"506 823 LINE",
"1950 484 LINE"
);
},
{
closed = 1;
nodes = (
"1950 117 LINE",
"1950 367 LINE",
"506 367 LINE",
"506 117 LINE"
);
}
);
width = 1200;
}
);
}
{
glyphname = less_equal_end.seq;
layers = (
{
layerId = master01;
paths = (
{
closed = 1;
nodes = (
"610 414 LINE",
"610 504 LINE",
"-20 504 LINE",
"-20 414 LINE"
);
},
{
closed = 1;
nodes = (
"610 914 LINE",
"610 1004 LINE",
"-20 1004 LINE",
"-20 914 LINE"
);
},
{
closed = 1;
nodes = (
"1027 87 LINE",
"610 504 LINE",
"494 504 LINE",
"963 30 LINE"
);
},
{
closed = 1;
nodes = (
"610 914 LINE",
"1015 1335 LINE",
"951 1392 LINE",
"494 914 LINE"
);
}
);
width = 1200;
},
{
layerId = "1F90C004-9C90-48FA-B407-176B3E9F1E65";
paths = (
{
closed = 1;
nodes = (
"650 366 LINE",
"650 552 LINE",
"-20 552 LINE",
"-20 366 LINE"
);
},
{
closed = 1;
nodes = (
"650 866 LINE",
"650 1052 LINE",
"-20 1052 LINE",
"-20 866 LINE"
);
},
{
closed = 1;
nodes = (
"1058 117 LINE",
"650 552 LINE",
"407 552 LINE",
"928 2 LINE"
);
},
{
closed = 1;
nodes = (
"650 866 LINE",
"1058 1297 LINE",
"928 1412 LINE",
"406 866 LINE"
);
}
);
width = 1200;
},
{
layerId = "8E053A5E-67DA-4970-A6F5-068DBFE5AD21";
paths = (
{
closed = 1;
nodes = (
"662 333 LINE",
"662 583 LINE",
"-20 583 LINE",
"-20 333 LINE"
);
},
{
closed = 1;
nodes = (
"662 835 LINE",
"662 1085 LINE",
"-20 1085 LINE",
"-20 835 LINE"
);
},
{
closed = 1;
nodes = (
"1058 157 LINE",
"662 583 LINE",
"336 577 LINE",
"888 2 LINE"
);
},
{
closed = 1;
nodes = (
"662 835 LINE",
"1058 1257 LINE",
"888 1412 LINE",
"328 835 LINE"
);
}
);
width = 1200;
}
);
}
{
glyphname = less_equal_start.seq;
layers = (
{
components = (
{
name = less.alt;
transform = "{1, 0, 0, 1, -176, 0}";
}
);
layerId = master01;
paths = (
{
closed = 1;
nodes = (
"1220 504 LINE",
"306 504 LINE",
"406 414 LINE",
"1220 414 LINE"
);
},
{
closed = 1;
nodes = (
"1220 1004 LINE",
"406 1004 LINE",
"306 914 LINE",
"1220 914 LINE"
);
}
);
width = 1200;
},
{
components = (
{
name = less.alt;
transform = "{1, 0, 0, 1, -199, 0}";
}
);
layerId = "1F90C004-9C90-48FA-B407-176B3E9F1E65";
paths = (
{
closed = 1;
nodes = (
"1220 552 LINE",
"306 552 LINE",
"466 366 LINE",
"1220 366 LINE"
);
},
{
closed = 1;
nodes = (
"1220 1052 LINE",
"466 1052 LINE",
"306 866 LINE",
"1220 866 LINE"
);
}
);
width = 1200;
},
{
components = (
{
name = less.alt;
transform = "{1, 0, 0, 1, -179, 0}";
}
);
layerId = "8E053A5E-67DA-4970-A6F5-068DBFE5AD21";
paths = (
{
closed = 1;
nodes = (
"1220 583 LINE",
"304 583 LINE",
"564 333 LINE",
"1220 333 LINE"
);
},
{
closed = 1;
nodes = (
"1220 1085 LINE",
"544 1085 LINE",
"327 835 LINE",
"1220 835 LINE"
);
}
);
width = 1200;
}
);
}
{
glyphname = less_exclam_hyphen_hyphen.liga;
layers = (
{
components = (
{
name = less.alt;
},
{
name = exclam;
transform = "{1, 0, 0, 1, 1360, 0}";
}
);
layerId = master01;
paths = (
{
closed = 1;
nodes = (
"1598 664 LINE",
"1598 754 LINE",
"312 754 LINE",
"312 664 LINE"
);
},
{
closed = 1;
nodes = (
"4520 663 LINE",
"4520 753 LINE",
"2318 753 LINE",
"2318 663 LINE"
);
}
);
width = 1200;
},
{
components = (
{
name = less.alt;
transform = "{1, 0, 0, 1, 17, 0}";
},
{
name = exclam;
transform = "{1, 0, 0, 1, 1360, 0}";
}
);
layerId = "1F90C004-9C90-48FA-B407-176B3E9F1E65";
paths = (
{
closed = 1;
nodes = (
"1598 606 LINE",
"1598 792 LINE",
"399 792 LINE",
"399 606 LINE"
);
},
{
closed = 1;
nodes = (
"4520 606 LINE",
"4520 792 LINE",
"2318 792 LINE",
"2318 606 LINE"
);
}
);
width = 1200;
},
{
components = (
{
name = less.alt;
transform = "{1, 0, 0, 1, 37, 0}";
},
{
alignment = -1;
name = exclam;
transform = "{1, 0, 0, 1, 1360, 0}";
}
);
layerId = "8E053A5E-67DA-4970-A6F5-068DBFE5AD21";
paths = (
{
closed = 1;
nodes = (
"1598 584 LINE",
"1598 834 LINE",
"441 834 LINE",
"441 584 LINE"
);
},
{
closed = 1;
nodes = (
"4520 584 LINE",
"4520 834 LINE",
"2318 834 LINE",
"2318 584 LINE"
);
}
);
width = 1200;
}
);
}
{
glyphname = less_greater.liga;
layers = (
{
layerId = master01;
paths = (
{
closed = 1;
nodes = (
"2120 653 LINE",
"2120 765 LINE",
"1210 1204 LINE",
"300 765 LINE",
"300 653 LINE",
"1210 214 LINE"
);
},
{
closed = 1;
nodes = (
"378 705 LINE",
"378 713 LINE",
"1210 1104 LINE",
"2042 713 LINE",
"2042 705 LINE",
"1210 314 LINE"
);
}
);
width = 1200;
},
{
layerId = "1F90C004-9C90-48FA-B407-176B3E9F1E65";
paths = (
{
closed = 1;
nodes = (
"2168 608 LINE",
"2168 810 LINE",
"1210 1204 LINE",
"252 810 LINE",
"252 608 LINE",
"1210 214 LINE"
);
},
{
closed = 1;
nodes = (
"470 700 LINE",
"470 718 LINE",
"1210 984 LINE",
"1910 718 LINE",
"1910 700 LINE",
"1210 434 LINE"
);
}
);
width = 1200;
},
{
layerId = "8E053A5E-67DA-4970-A6F5-068DBFE5AD21";
paths = (
{
closed = 1;
nodes = (
"2234 575 LINE",
"2234 843 LINE",
"1210 1221 LINE",
"186 843 LINE",
"186 575 LINE",
"1210 197 LINE"
);
},
{
closed = 1;
nodes = (
"454 700 LINE",
"454 718 LINE",
"1210 951 LINE",
"1960 718 LINE",
"1960 700 LINE",
"1210 467 LINE"
);
}
);
width = 1200;
}
);
}
{
glyphname = less_hyphen_end.seq;
layers = (
{
components = (
{
name = less.alt;
transform = "{1, 0, 0, 1, 67, 0}";
}
);
layerId = master01;
paths = (
{
closed = 1;
nodes = (
"400 754 LINE",
"-20 754 LINE",
"-20 664 LINE",
"400 664 LINE"
);
}
);
width = 1200;
},
{
components = (
{
name = less.alt;
transform = "{1, 0, 0, 1, 81, 0}";
}
);
layerId = "1F90C004-9C90-48FA-B407-176B3E9F1E65";
paths = (
{
closed = 1;
nodes = (
"450 802 LINE",
"-20 802 LINE",
"-20 616 LINE",
"450 616 LINE"
);
}
);
width = 1200;
},
{
components = (
{
name = less.alt;
transform = "{1, 0, 0, 1, 61, 0}";
}
);
layerId = "8E053A5E-67DA-4970-A6F5-068DBFE5AD21";
paths = (
{
closed = 1;
nodes = (
"520 834 LINE",
"-20 834 LINE",
"-20 584 LINE",
"520 584 LINE"
);
}
);
width = 1200;
}
);
}
{
glyphname = less_hyphen_start.seq;
layers = (
{
components = (
{
name = less.alt;
transform = "{1, 0, 0, 1, -176, 0}";
}
);
layerId = master01;
paths = (
{
closed = 1;
nodes = (
"1220 754 LINE",
"134 754 LINE",
"134 664 LINE",
"1220 664 LINE"
);
}
);
width = 1200;
},
{
components = (
{
name = less.alt;
transform = "{1, 0, 0, 1, -159, 0}";
}
);
layerId = "1F90C004-9C90-48FA-B407-176B3E9F1E65";
paths = (
{
closed = 1;
nodes = (
"1220 802 LINE",
"200 802 LINE",
"200 616 LINE",
"1220 616 LINE"
);
}
);
width = 1200;
},
{
components = (
{
name = less.alt;
transform = "{1, 0, 0, 1, -139, 0}";
}
);
layerId = "8E053A5E-67DA-4970-A6F5-068DBFE5AD21";
paths = (
{
closed = 1;
nodes = (
"1220 834 LINE",
"253 834 LINE",
"253 584 LINE",
"1220 584 LINE"
);
}
);
width = 1200;
}
);
}
{
glyphname = less_less.liga;
layers = (
{
layerId = master01;
paths = (
{
closed = 1;
nodes = (
"1199 309 LINE",
"318 705 LINE",
"318 713 LINE",
"1199 1109 LINE",
"1199 1204 LINE",
"240 765 LINE",
"240 653 LINE",
"1199 214 LINE"
);
},
{
closed = 1;
nodes = (
"2120 309 LINE",
"1240 705 LINE",
"1240 713 LINE",
"2120 1109 LINE",
"2120 1204 LINE",
"1162 765 LINE",
"1162 653 LINE",
"2120 214 LINE"
);
}
);
width = 1200;
},
{
layerId = "1F90C004-9C90-48FA-B407-176B3E9F1E65";
paths = (
{
closed = 1;
nodes = (
"1218 384 LINE",
"498 700 LINE",
"498 718 LINE",
"1218 1034 LINE",
"1218 1254 LINE",
"240 810 LINE",
"240 608 LINE",
"1218 164 LINE"
);
},
{
closed = 1;
nodes = (
"2120 384 LINE",
"1420 700 LINE",
"1420 718 LINE",
"2120 1034 LINE",
"2120 1254 LINE",
"1162 810 LINE",
"1162 608 LINE",
"2120 164 LINE"
);
}
);
width = 1200;
},
{
layerId = "8E053A5E-67DA-4970-A6F5-068DBFE5AD21";
paths = (
{
closed = 1;
nodes = (
"1218 434 LINE",
"515 700 LINE",
"515 718 LINE",
"1218 984 LINE",
"1218 1254 LINE",
"240 843 LINE",
"240 575 LINE",
"1218 164 LINE"
);
},
{
closed = 1;
nodes = (
"2120 434 LINE",
"1437 700 LINE",
"1437 718 LINE",
"2120 984 LINE",
"2120 1254 LINE",
"1162 843 LINE",
"1162 575 LINE",
"2120 164 LINE"
);
}
);
width = 1200;
}
);
}
{
glyphname = less_less_equal_end.seq;
layers = (
{
components = (
{
name = less.alt;
transform = "{1, 0, 0, 1, 1061, 0}";
}
);
layerId = master01;
paths = (
{
closed = 1;
nodes = (
"980 414 LINE",
"980 504 LINE",
"-20 504 LINE",
"-20 414 LINE"
);
},
{
closed = 1;
nodes = (
"980 914 LINE",
"980 1004 LINE",
"-20 1004 LINE",
"-20 914 LINE"
);
},
{
closed = 1;
nodes = (
"1397 87 LINE",
"980 504 LINE",
"864 504 LINE",
"1333 30 LINE"
);
},
{
closed = 1;
nodes = (
"980 914 LINE",
"1385 1335 LINE",
"1321 1392 LINE",
"864 914 LINE"
);
}
);
width = 1200;
},
{
components = (
{
name = less.alt;
transform = "{1, 0, 0, 1, 1061, 0}";
}
);
layerId = "1F90C004-9C90-48FA-B407-176B3E9F1E65";
paths = (
{
closed = 1;
nodes = (
"990 366 LINE",
"990 552 LINE",
"-20 552 LINE",
"-20 366 LINE"
);
},
{
closed = 1;
nodes = (
"990 866 LINE",
"990 1052 LINE",
"-20 1052 LINE",
"-20 866 LINE"
);
},
{
closed = 1;
nodes = (
"1398 117 LINE",
"990 552 LINE",
"747 552 LINE",
"1268 2 LINE"
);
},
{
closed = 1;
nodes = (
"990 866 LINE",
"1398 1297 LINE",
"1268 1412 LINE",
"746 866 LINE"
);
}
);
width = 1200;
},
{
components = (
{
name = less.alt;
transform = "{1, 0, 0, 1, 1061, 0}";
}
);
layerId = "8E053A5E-67DA-4970-A6F5-068DBFE5AD21";
paths = (
{
closed = 1;
nodes = (
"1022 333 LINE",
"1022 583 LINE",
"-20 583 LINE",
"-20 333 LINE"
);
},
{
closed = 1;
nodes = (
"1022 835 LINE",
"1022 1085 LINE",
"-20 1085 LINE",
"-20 835 LINE"
);
},
{
closed = 1;
nodes = (
"1418 157 LINE",
"1022 583 LINE",
"696 577 LINE",
"1248 2 LINE"
);
},
{
closed = 1;
nodes = (
"1022 835 LINE",
"1418 1257 LINE",
"1248 1412 LINE",
"688 835 LINE"
);
}
);
width = 1200;
}
);
}
{
glyphname = less_less_equal_middle.seq;
layers = (
{
components = (
{
name = less.alt;
transform = "{1, 0, 0, 1, 824, 0}";
}
);
layerId = master01;
paths = (
{
closed = 1;
nodes = (
"743 914 LINE",
"743 1004 LINE",
"-50 1004 LINE",
"-50 914 LINE"
);
},
{
closed = 1;
nodes = (
"743 414 LINE",
"743 504 LINE",
"-50 504 LINE",
"-50 414 LINE"
);
},
{
closed = 1;
nodes = (
"2450 914 LINE",
"2450 1004 LINE",
"1406 1004 LINE",
"1306 914 LINE"
);
},
{
closed = 1;
nodes = (
"2450 414 LINE",
"2450 504 LINE",
"1306 504 LINE",
"1406 414 LINE"
);
},
{
closed = 1;
nodes = (
"743 914 LINE",
"1148 1335 LINE",
"1084 1392 LINE",
"627 914 LINE"
);
},
{
closed = 1;
nodes = (
"1160 87 LINE",
"743 504 LINE",
"627 504 LINE",
"1096 30 LINE"
);
}
);
width = 1200;
},
{
components = (
{
name = less.alt;
transform = "{1, 0, 0, 1, 841, 0}";
}
);
layerId = "1F90C004-9C90-48FA-B407-176B3E9F1E65";
paths = (
{
closed = 1;
nodes = (
"770 866 LINE",
"770 1052 LINE",
"-50 1052 LINE",
"-50 866 LINE"
);
},
{
closed = 1;
nodes = (
"770 366 LINE",
"770 552 LINE",
"-50 552 LINE",
"-50 366 LINE"
);
},
{
closed = 1;
nodes = (
"2450 866 LINE",
"2450 1052 LINE",
"1506 1052 LINE",
"1346 866 LINE"
);
},
{
closed = 1;
nodes = (
"2450 366 LINE",
"2450 552 LINE",
"1346 552 LINE",
"1506 366 LINE"
);
},
{
closed = 1;
nodes = (
"770 866 LINE",
"1178 1297 LINE",
"1048 1412 LINE",
"526 866 LINE"
);
},
{
closed = 1;
nodes = (
"1178 117 LINE",
"770 552 LINE",
"527 552 LINE",
"1048 2 LINE"
);
}
);
width = 1200;
},
{
components = (
{
name = less.alt;
transform = "{1, 0, 0, 1, 861, 0}";
}
);
layerId = "8E053A5E-67DA-4970-A6F5-068DBFE5AD21";
paths = (
{
closed = 1;
nodes = (
"822 835 LINE",
"822 1085 LINE",
"-50 1085 LINE",
"-50 835 LINE"
);
},
{
closed = 1;
nodes = (
"822 333 LINE",
"822 583 LINE",
"-50 583 LINE",
"-50 333 LINE"
);
},
{
closed = 1;
nodes = (
"2450 835 LINE",
"2450 1085 LINE",
"1584 1085 LINE",
"1367 835 LINE"
);
},
{
closed = 1;
nodes = (
"2450 333 LINE",
"2450 583 LINE",
"1344 583 LINE",
"1604 333 LINE"
);
},
{
closed = 1;
nodes = (
"822 835 LINE",
"1218 1257 LINE",
"1048 1412 LINE",
"488 835 LINE"
);
},
{
closed = 1;
nodes = (
"1218 157 LINE",
"822 583 LINE",
"496 577 LINE",
"1048 2 LINE"
);
}
);
width = 1200;
}
);
}
{
glyphname = less_less_equal_start.seq;
layers = (
{
components = (
{
name = less.alt;
transform = "{1, 0, 0, 1, -16, 0}";
},
{
name = less.alt;
transform = "{1, 0, 0, 1, 624, 0}";
}
);
layerId = master01;
paths = (
{
closed = 1;
nodes = (
"2420 504 LINE",
"1099 504 LINE",
"1199 414 LINE",
"2420 414 LINE"
);
},
{
closed = 1;
nodes = (
"2420 1004 LINE",
"1199 1004 LINE",
"1099 914 LINE",
"2420 914 LINE"
);
}
);
width = 1200;
},
{
components = (
{
name = less.alt;
transform = "{1, 0, 0, 1, 1, 0}";
},
{
name = less.alt;
transform = "{1, 0, 0, 1, 641, 0}";
}
);
layerId = "1F90C004-9C90-48FA-B407-176B3E9F1E65";
paths = (
{
closed = 1;
nodes = (
"2420 552 LINE",
"1126 552 LINE",
"1286 366 LINE",
"2420 366 LINE"
);
},
{
closed = 1;
nodes = (
"2420 1052 LINE",
"1286 1052 LINE",
"1126 866 LINE",
"2420 866 LINE"
);
}
);
width = 1200;
},
{
components = (
{
name = less.alt;
transform = "{1, 0, 0, 1, 21, 0}";
},
{
name = less.alt;
transform = "{1, 0, 0, 1, 661, 0}";
}
);
layerId = "8E053A5E-67DA-4970-A6F5-068DBFE5AD21";
paths = (
{
closed = 1;
nodes = (
"2420 583 LINE",
"1144 583 LINE",
"1404 333 LINE",
"2420 333 LINE"
);
},
{
closed = 1;
nodes = (
"2420 1085 LINE",
"1384 1085 LINE",
"1167 835 LINE",
"2420 835 LINE"
);
}
);
width = 1200;
}
);
}
{
glyphname = less_less_hyphen_end.seq;
layers = (
{
components = (
{
name = less.alt;
transform = "{1, 0, 0, 1, 426, 0}";
},
{
name = less.alt;
transform = "{1, 0, 0, 1, 1061, 0}";
}
);
layerId = master01;
paths = (
{
closed = 1;
nodes = (
"749 664 LINE",
"749 754 LINE",
"-20 754 LINE",
"-20 664 LINE"
);
}
);
width = 1200;
},
{
components = (
{
name = less.alt;
transform = "{1, 0, 0, 1, 421, 0}";
},
{
name = less.alt;
transform = "{1, 0, 0, 1, 1061, 0}";
}
);
layerId = "1F90C004-9C90-48FA-B407-176B3E9F1E65";
paths = (
{
closed = 1;
nodes = (
"820 616 LINE",
"820 802 LINE",
"-20 802 LINE",
"-20 616 LINE"
);
}
);
width = 1200;
},
{
components = (
{
name = less.alt;
transform = "{1, 0, 0, 1, 421, 0}";
},
{
name = less.alt;
transform = "{1, 0, 0, 1, 1061, 0}";
}
);
layerId = "8E053A5E-67DA-4970-A6F5-068DBFE5AD21";
paths = (
{
closed = 1;
nodes = (
"820 584 LINE",
"820 834 LINE",
"-20 834 LINE",
"-20 584 LINE"
);
}
);
width = 1200;
}
);
}
{
glyphname = less_less_hyphen_middle.seq;
layers = (
{
components = (
{
name = less.alt;
transform = "{1, 0, 0, 1, 330, 0}";
},
{
name = less.alt;
transform = "{1, 0, 0, 1, 964, 0}";
}
);
layerId = master01;
paths = (
{
closed = 1;
nodes = (
"2450 664 LINE",
"2450 754 LINE",
"1307 754 LINE",
"1307 664 LINE"
);
},
{
closed = 1;
nodes = (
"650 664 LINE",
"650 754 LINE",
"-50 754 LINE",
"-50 664 LINE"
);
}
);
width = 1200;
},
{
components = (
{
name = less.alt;
transform = "{1, 0, 0, 1, 299, 0}";
},
{
name = less.alt;
transform = "{1, 0, 0, 1, 941, 0}";
}
);
layerId = "1F90C004-9C90-48FA-B407-176B3E9F1E65";
paths = (
{
closed = 1;
nodes = (
"2450 616 LINE",
"2450 802 LINE",
"1289 802 LINE",
"1289 616 LINE"
);
},
{
closed = 1;
nodes = (
"689 616 LINE",
"689 802 LINE",
"-50 802 LINE",
"-50 616 LINE"
);
}
);
width = 1200;
},
{
components = (
{
name = less.alt;
transform = "{1, 0, 0, 1, 311, 0}";
},
{
name = less.alt;
transform = "{1, 0, 0, 1, 951, 0}";
}
);
layerId = "8E053A5E-67DA-4970-A6F5-068DBFE5AD21";
paths = (
{
closed = 1;
nodes = (
"2450 584 LINE",
"2450 834 LINE",
"1394 834 LINE",
"1394 584 LINE"
);
},
{
closed = 1;
nodes = (
"769 584 LINE",
"769 834 LINE",
"-50 834 LINE",
"-50 584 LINE"
);
}
);
width = 1200;
}
);
}
{
glyphname = less_less_hyphen_start.seq;
layers = (
{
components = (
{
name = less.alt;
transform = "{1, 0, 0, 1, -16, 0}";
},
{
name = less.alt;
transform = "{1, 0, 0, 1, 624, 0}";
}
);
layerId = master01;
paths = (
{
closed = 1;
nodes = (
"2420 664 LINE",
"2420 754 LINE",
"943 754 LINE",
"943 664 LINE"
);
}
);
width = 1200;
},
{
components = (
{
name = less.alt;
transform = "{1, 0, 0, 1, 1, 0}";
},
{
name = less.alt;
transform = "{1, 0, 0, 1, 641, 0}";
}
);
layerId = "1F90C004-9C90-48FA-B407-176B3E9F1E65";
paths = (
{
closed = 1;
nodes = (
"2420 616 LINE",
"2420 802 LINE",
"970 802 LINE",
"970 616 LINE"
);
}
);
width = 1200;
},
{
components = (
{
name = less.alt;
transform = "{1, 0, 0, 1, 21, 0}";
},
{
name = less.alt;
transform = "{1, 0, 0, 1, 661, 0}";
}
);
layerId = "8E053A5E-67DA-4970-A6F5-068DBFE5AD21";
paths = (
{
closed = 1;
nodes = (
"2420 584 LINE",
"2420 834 LINE",
"1030 834 LINE",
"1030 584 LINE"
);
}
);
width = 1200;
}
);
}
{
glyphname = less_slash.liga;
layers = (
{
components = (
{
name = slash;
transform = "{1, 0, 0, 1, 1144, 0}";
}
);
layerId = master01;
paths = (
{
closed = 1;
nodes = (
"1531 159 LINE",
"323 705 LINE",
"323 713 LINE",
"1218 1104 LINE",
"1218 1204 LINE",
"240 765 LINE",
"240 653 LINE",
"1531 64 LINE"
);
}
);
width = 1200;
},
{
components = (
{
name = slash;
transform = "{1, 0, 0, 1, 1144, 0}";
}
);
layerId = "1F90C004-9C90-48FA-B407-176B3E9F1E65";
paths = (
{
closed = 1;
nodes = (
"1566 246 LINE",
"488 700 LINE",
"488 718 LINE",
"1218 994 LINE",
"1218 1214 LINE",
"240 810 LINE",
"240 608 LINE",
"1536 46 LINE"
);
}
);
width = 1200;
},
{
components = (
{
alignment = -1;
name = slash;
transform = "{1, 0, 0, 1, 1144, 0}";
}
);
layerId = "8E053A5E-67DA-4970-A6F5-068DBFE5AD21";
paths = (
{
closed = 1;
nodes = (
"1559 306 LINE",
"555 692 LINE",
"555 726 LINE",
"1217 961 LINE",
"1217 1231 LINE",
"240 843 LINE",
"240 575 LINE",
"1554 39 LINE"
);
}
);
width = 1200;
}
);
}
{
glyphname = less_slash_greater.liga;
layers = (
{
components = (
{
name = slash;
transform = "{1, 0, 0, 1, 1210, 0}";
}
);
layerId = master01;
paths = (
{
closed = 1;
nodes = (
"3360 653 LINE",
"3360 765 LINE",
"2120 1331 LINE",
"2120 1236 LINE",
"3277 713 LINE",
"3277 705 LINE",
"2402 314 LINE",
"2402 214 LINE"
);
},
{
closed = 1;
nodes = (
"1565 143 LINE",
"323 705 LINE",
"323 713 LINE",
"1218 1104 LINE",
"1218 1204 LINE",
"240 765 LINE",
"240 653 LINE",
"1565 48 LINE"
);
}
);
width = 1200;
},
{
components = (
{
name = slash;
transform = "{1, 0, 0, 1, 1210, 0}";
}
);
layerId = "1F90C004-9C90-48FA-B407-176B3E9F1E65";
paths = (
{
closed = 1;
nodes = (
"3360 608 LINE",
"3360 810 LINE",
"2059 1362 LINE",
"2059 1147 LINE",
"3102 718 LINE",
"3102 700 LINE",
"2402 434 LINE",
"2402 214 LINE"
);
},
{
closed = 1;
nodes = (
"1566 246 LINE",
"488 700 LINE",
"488 718 LINE",
"1218 994 LINE",
"1218 1214 LINE",
"240 810 LINE",
"240 608 LINE",
"1536 46 LINE"
);
}
);
width = 1200;
},
{
components = (
{
alignment = -1;
name = slash;
transform = "{1, 0, 0, 1, 1210, 0}";
}
);
layerId = "8E053A5E-67DA-4970-A6F5-068DBFE5AD21";
paths = (
{
closed = 1;
nodes = (
"3360 575 LINE",
"3360 843 LINE",
"2031 1389 LINE",
"2031 1120 LINE",
"3043 726 LINE",
"3043 692 LINE",
"2386 459 LINE",
"2386 189 LINE"
);
},
{
closed = 1;
nodes = (
"1558 306 LINE",
"555 692 LINE",
"555 726 LINE",
"1217 961 LINE",
"1217 1231 LINE",
"240 843 LINE",
"240 575 LINE",
"1553 39 LINE"
);
}
);
width = 1200;
}
);
}
{
glyphname = numbersign_braceleft.liga;
layers = (
{
background = {
paths = (
{
closed = 1;
nodes = (
"2117 -214 OFFCURVE",
"2158 -206 OFFCURVE",
"2196 -194 CURVE",
"2183 -112 LINE",
"2141 -119 OFFCURVE",
"2101 -124 OFFCURVE",
"2068 -124 CURVE SMOOTH",
"1922 -124 OFFCURVE",
"1818 -21 OFFCURVE",
"1844 156 CURVE SMOOTH",
"1860 264 OFFCURVE",
"1930 367 OFFCURVE",
"1930 488 CURVE SMOOTH",
"1930 618 OFFCURVE",
"1801 699 OFFCURVE",
"1582 702 CURVE",
"1582 710 LINE",
"1801 713 OFFCURVE",
"1930 796 OFFCURVE",
"1930 942 CURVE SMOOTH",
"1930 1058 OFFCURVE",
"1863 1161 OFFCURVE",
"1844 1274 CURVE SMOOTH",
"1816 1439 OFFCURVE",
"1922 1536 OFFCURVE",
"2068 1536 CURVE SMOOTH",
"2101 1536 OFFCURVE",
"2140 1531 OFFCURVE",
"2182 1524 CURVE",
"2196 1606 LINE",
"2158 1618 OFFCURVE",
"2117 1626 OFFCURVE",
"2050 1626 CURVE SMOOTH",
"1858 1626 OFFCURVE",
"1708 1498 OFFCURVE",
"1748 1274 CURVE SMOOTH",
"1768 1164 OFFCURVE",
"1830 1060 OFFCURVE",
"1830 938 CURVE SMOOTH",
"1830 832 OFFCURVE",
"1709 772 OFFCURVE",
"1504 772 CURVE",
"1504 640 LINE",
"1715 640 OFFCURVE",
"1830 607 OFFCURVE",
"1830 492 CURVE SMOOTH",
"1830 375 OFFCURVE",
"1767 267 OFFCURVE",
"1748 156 CURVE SMOOTH",
"1708 -77 OFFCURVE",
"1858 -214 OFFCURVE",
"2050 -214 CURVE SMOOTH"
);
}
);
};
layerId = master01;
paths = (
{
closed = 1;
nodes = (
"522 0 LINE",
"642 1420 LINE",
"552 1420 LINE",
"432 0 LINE"
);
},
{
closed = 1;
nodes = (
"1880 419 LINE",
"1880 509 LINE",
"284 509 LINE",
"284 419 LINE"
);
},
{
closed = 1;
nodes = (
"968 0 LINE",
"1088 1420 LINE",
"998 1420 LINE",
"878 0 LINE"
);
},
{
closed = 1;
nodes = (
"1880 911 LINE",
"1880 1001 LINE",
"284 1001 LINE",
"284 911 LINE"
);
},
{
closed = 1;
nodes = (
"2117 -214 OFFCURVE",
"2158 -206 OFFCURVE",
"2196 -194 CURVE",
"2183 -112 LINE",
"2141 -119 OFFCURVE",
"2101 -124 OFFCURVE",
"2068 -124 CURVE SMOOTH",
"1922 -124 OFFCURVE",
"1818 -21 OFFCURVE",
"1844 156 CURVE SMOOTH",
"1860 264 OFFCURVE",
"1930 367 OFFCURVE",
"1930 488 CURVE SMOOTH",
"1930 618 OFFCURVE",
"1801 699 OFFCURVE",
"1582 702 CURVE",
"1582 710 LINE",
"1801 713 OFFCURVE",
"1930 796 OFFCURVE",
"1930 942 CURVE SMOOTH",
"1930 1058 OFFCURVE",
"1863 1161 OFFCURVE",
"1844 1274 CURVE SMOOTH",
"1816 1439 OFFCURVE",
"1922 1536 OFFCURVE",
"2068 1536 CURVE SMOOTH",
"2101 1536 OFFCURVE",
"2140 1531 OFFCURVE",
"2182 1524 CURVE",
"2196 1606 LINE",
"2158 1618 OFFCURVE",
"2117 1626 OFFCURVE",
"2050 1626 CURVE SMOOTH",
"1858 1626 OFFCURVE",
"1708 1498 OFFCURVE",
"1748 1274 CURVE SMOOTH",
"1768 1164 OFFCURVE",
"1830 1060 OFFCURVE",
"1830 938 CURVE SMOOTH",
"1830 832 OFFCURVE",
"1709 772 OFFCURVE",
"1504 772 CURVE",
"1504 640 LINE",
"1715 640 OFFCURVE",
"1830 607 OFFCURVE",
"1830 492 CURVE SMOOTH",
"1830 375 OFFCURVE",
"1767 267 OFFCURVE",
"1748 156 CURVE SMOOTH",
"1708 -77 OFFCURVE",
"1858 -214 OFFCURVE",
"2050 -214 CURVE SMOOTH"
);
}
);
width = 1200;
},
{
background = {
paths = (
{
closed = 1;
nodes = (
"2104 -214 OFFCURVE",
"2152 -206 OFFCURVE",
"2196 -194 CURVE",
"2172 -20 LINE",
"2125 -26 OFFCURVE",
"2081 -30 OFFCURVE",
"2044 -30 CURVE SMOOTH",
"1949 -30 OFFCURVE",
"1877 38 OFFCURVE",
"1898 156 CURVE SMOOTH",
"1918 269 OFFCURVE",
"1984 367 OFFCURVE",
"1984 488 CURVE SMOOTH",
"1984 610 OFFCURVE",
"1872 686 OFFCURVE",
"1682 689 CURVE",
"1682 723 LINE",
"1872 726 OFFCURVE",
"1984 804 OFFCURVE",
"1984 942 CURVE SMOOTH",
"1984 1058 OFFCURVE",
"1918 1156 OFFCURVE",
"1898 1274 CURVE SMOOTH",
"1880 1380 OFFCURVE",
"1949 1442 OFFCURVE",
"2044 1442 CURVE SMOOTH",
"2081 1442 OFFCURVE",
"2125 1438 OFFCURVE",
"2172 1432 CURVE",
"2196 1606 LINE",
"2152 1618 OFFCURVE",
"2104 1626 OFFCURVE",
"2026 1626 CURVE SMOOTH",
"1809 1626 OFFCURVE",
"1644 1496 OFFCURVE",
"1684 1274 CURVE SMOOTH",
"1704 1159 OFFCURVE",
"1766 1060 OFFCURVE",
"1766 938 CURVE SMOOTH",
"1766 827 OFFCURVE",
"1562 765 OFFCURVE",
"1456 765 CURVE",
"1456 647 LINE",
"1566 647 OFFCURVE",
"1766 613 OFFCURVE",
"1766 492 CURVE SMOOTH",
"1766 375 OFFCURVE",
"1704 271 OFFCURVE",
"1684 156 CURVE SMOOTH",
"1643 -75 OFFCURVE",
"1809 -214 OFFCURVE",
"2026 -214 CURVE SMOOTH"
);
}
);
};
layerId = "1F90C004-9C90-48FA-B407-176B3E9F1E65";
paths = (
{
closed = 1;
nodes = (
"570 0 LINE",
"690 1420 LINE",
"514 1420 LINE",
"394 0 LINE"
);
},
{
closed = 1;
nodes = (
"1840 360 LINE",
"1840 530 LINE",
"260 530 LINE",
"260 360 LINE"
);
},
{
closed = 1;
nodes = (
"1006 0 LINE",
"1126 1420 LINE",
"950 1420 LINE",
"830 0 LINE"
);
},
{
closed = 1;
nodes = (
"1840 890 LINE",
"1840 1060 LINE",
"260 1060 LINE",
"260 890 LINE"
);
},
{
closed = 1;
nodes = (
"2104 -214 OFFCURVE",
"2152 -206 OFFCURVE",
"2196 -194 CURVE",
"2172 -20 LINE",
"2125 -26 OFFCURVE",
"2081 -30 OFFCURVE",
"2044 -30 CURVE SMOOTH",
"1949 -30 OFFCURVE",
"1877 38 OFFCURVE",
"1898 156 CURVE SMOOTH",
"1918 269 OFFCURVE",
"1984 367 OFFCURVE",
"1984 488 CURVE SMOOTH",
"1984 610 OFFCURVE",
"1872 686 OFFCURVE",
"1682 689 CURVE",
"1682 723 LINE",
"1872 726 OFFCURVE",
"1984 804 OFFCURVE",
"1984 942 CURVE SMOOTH",
"1984 1058 OFFCURVE",
"1918 1156 OFFCURVE",
"1898 1274 CURVE SMOOTH",
"1880 1380 OFFCURVE",
"1949 1442 OFFCURVE",
"2044 1442 CURVE SMOOTH",
"2081 1442 OFFCURVE",
"2125 1438 OFFCURVE",
"2172 1432 CURVE",
"2196 1606 LINE",
"2152 1618 OFFCURVE",
"2104 1626 OFFCURVE",
"2026 1626 CURVE SMOOTH",
"1809 1626 OFFCURVE",
"1644 1496 OFFCURVE",
"1684 1274 CURVE SMOOTH",
"1704 1159 OFFCURVE",
"1766 1060 OFFCURVE",
"1766 938 CURVE SMOOTH",
"1766 827 OFFCURVE",
"1562 765 OFFCURVE",
"1456 765 CURVE",
"1456 647 LINE",
"1566 647 OFFCURVE",
"1766 613 OFFCURVE",
"1766 492 CURVE SMOOTH",
"1766 375 OFFCURVE",
"1704 271 OFFCURVE",
"1684 156 CURVE SMOOTH",
"1643 -75 OFFCURVE",
"1809 -214 OFFCURVE",
"2026 -214 CURVE SMOOTH"
);
}
);
width = 1200;
},
{
background = {
paths = (
{
closed = 1;
nodes = (
"2118 -214 OFFCURVE",
"2171 -206 OFFCURVE",
"2219 -194 CURVE",
"2195 47 LINE",
"2157 41 OFFCURVE",
"2121 37 OFFCURVE",
"2092 37 CURVE SMOOTH",
"2011 37 OFFCURVE",
"1942 103 OFFCURVE",
"1967 227 CURVE SMOOTH",
"1984 310 OFFCURVE",
"2043 393 OFFCURVE",
"2043 488 CURVE SMOOTH",
"2043 608 OFFCURVE",
"1931 682 OFFCURVE",
"1741 685 CURVE",
"1741 727 LINE",
"1931 730 OFFCURVE",
"2043 807 OFFCURVE",
"2043 942 CURVE SMOOTH",
"2043 1033 OFFCURVE",
"1988 1119 OFFCURVE",
"1967 1203 CURVE SMOOTH",
"1939 1315 OFFCURVE",
"2011 1375 OFFCURVE",
"2092 1375 CURVE SMOOTH",
"2121 1375 OFFCURVE",
"2157 1371 OFFCURVE",
"2195 1365 CURVE",
"2219 1606 LINE",
"2171 1618 OFFCURVE",
"2118 1626 OFFCURVE",
"2032 1626 CURVE SMOOTH",
"1815 1626 OFFCURVE",
"1650 1499 OFFCURVE",
"1690 1274 CURVE SMOOTH",
"1707 1179 OFFCURVE",
"1772 1090 OFFCURVE",
"1772 985 CURVE SMOOTH",
"1772 843 OFFCURVE",
"1647 772 OFFCURVE",
"1445 772 CURVE",
"1445 640 LINE",
"1648 640 OFFCURVE",
"1772 579 OFFCURVE",
"1772 445 CURVE SMOOTH",
"1772 344 OFFCURVE",
"1706 251 OFFCURVE",
"1690 156 CURVE SMOOTH",
"1650 -78 OFFCURVE",
"1815 -214 OFFCURVE",
"2032 -214 CURVE SMOOTH"
);
}
);
};
layerId = "8E053A5E-67DA-4970-A6F5-068DBFE5AD21";
paths = (
{
closed = 1;
nodes = (
"645 0 LINE",
"765 1420 LINE",
"522 1420 LINE",
"402 0 LINE"
);
},
{
closed = 1;
nodes = (
"1810 310 LINE",
"1810 558 LINE",
"260 558 LINE",
"260 310 LINE"
);
},
{
closed = 1;
nodes = (
"1081 0 LINE",
"1201 1420 LINE",
"958 1420 LINE",
"838 0 LINE"
);
},
{
closed = 1;
nodes = (
"1810 862 LINE",
"1810 1110 LINE",
"260 1110 LINE",
"260 862 LINE"
);
},
{
closed = 1;
nodes = (
"2118 -214 OFFCURVE",
"2171 -206 OFFCURVE",
"2219 -194 CURVE",
"2195 47 LINE",
"2157 41 OFFCURVE",
"2121 37 OFFCURVE",
"2092 37 CURVE SMOOTH",
"2011 37 OFFCURVE",
"1942 103 OFFCURVE",
"1967 227 CURVE SMOOTH",
"1984 310 OFFCURVE",
"2043 393 OFFCURVE",
"2043 488 CURVE SMOOTH",
"2043 608 OFFCURVE",
"1931 682 OFFCURVE",
"1741 685 CURVE",
"1741 727 LINE",
"1931 730 OFFCURVE",
"2043 807 OFFCURVE",
"2043 942 CURVE SMOOTH",
"2043 1033 OFFCURVE",
"1988 1119 OFFCURVE",
"1967 1203 CURVE SMOOTH",
"1939 1315 OFFCURVE",
"2011 1375 OFFCURVE",
"2092 1375 CURVE SMOOTH",
"2121 1375 OFFCURVE",
"2157 1371 OFFCURVE",
"2195 1365 CURVE",
"2219 1606 LINE",
"2171 1618 OFFCURVE",
"2118 1626 OFFCURVE",
"2032 1626 CURVE SMOOTH",
"1815 1626 OFFCURVE",
"1650 1499 OFFCURVE",
"1690 1274 CURVE SMOOTH",
"1707 1179 OFFCURVE",
"1772 1090 OFFCURVE",
"1772 985 CURVE SMOOTH",
"1772 843 OFFCURVE",
"1647 772 OFFCURVE",
"1445 772 CURVE",
"1445 640 LINE",
"1648 640 OFFCURVE",
"1772 579 OFFCURVE",
"1772 445 CURVE SMOOTH",
"1772 344 OFFCURVE",
"1706 251 OFFCURVE",
"1690 156 CURVE SMOOTH",
"1650 -78 OFFCURVE",
"1815 -214 OFFCURVE",
"2032 -214 CURVE SMOOTH"
);
}
);
width = 1200;
}
);
}
{
glyphname = numbersign_bracketleft.liga;
layers = (
{
components = (
{
name = bracketleft;
transform = "{1, 0, 0, 1, 1164, 0}";
}
);
layerId = master01;
paths = (
{
closed = 1;
nodes = (
"968 0 LINE",
"1088 1420 LINE",
"998 1420 LINE",
"878 0 LINE"
);
},
{
closed = 1;
nodes = (
"522 0 LINE",
"642 1420 LINE",
"552 1420 LINE",
"432 0 LINE"
);
},
{
closed = 1;
nodes = (
"1606 419 LINE",
"1606 509 LINE",
"284 509 LINE",
"284 419 LINE"
);
},
{
closed = 1;
nodes = (
"1606 911 LINE",
"1606 1001 LINE",
"284 1001 LINE",
"284 911 LINE"
);
}
);
width = 1200;
},
{
components = (
{
name = bracketleft;
transform = "{1, 0, 0, 1, 1164, 0}";
}
);
layerId = "1F90C004-9C90-48FA-B407-176B3E9F1E65";
paths = (
{
closed = 1;
nodes = (
"1026 0 LINE",
"1146 1420 LINE",
"970 1420 LINE",
"850 0 LINE"
);
},
{
closed = 1;
nodes = (
"590 0 LINE",
"710 1420 LINE",
"534 1420 LINE",
"414 0 LINE"
);
},
{
closed = 1;
nodes = (
"1640 360 LINE",
"1640 530 LINE",
"280 530 LINE",
"280 360 LINE"
);
},
{
closed = 1;
nodes = (
"1640 890 LINE",
"1640 1060 LINE",
"280 1060 LINE",
"280 890 LINE"
);
}
);
width = 1200;
},
{
components = (
{
alignment = -1;
name = bracketleft;
transform = "{1, 0, 0, 1, 1164, 0}";
}
);
layerId = "8E053A5E-67DA-4970-A6F5-068DBFE5AD21";
paths = (
{
closed = 1;
nodes = (
"1084 0 LINE",
"1204 1420 LINE",
"962 1420 LINE",
"842 0 LINE"
);
},
{
closed = 1;
nodes = (
"648 0 LINE",
"768 1420 LINE",
"526 1420 LINE",
"406 0 LINE"
);
},
{
closed = 1;
nodes = (
"1607 310 LINE",
"1607 558 LINE",
"263 558 LINE",
"263 310 LINE"
);
},
{
closed = 1;
nodes = (
"1607 862 LINE",
"1607 1110 LINE",
"263 1110 LINE",
"263 862 LINE"
);
}
);
width = 1200;
}
);
}
{
glyphname = numbersign_equal.liga;
layers = (
{
components = (
{
name = numbersign;
transform = "{1, 0, 0, 1, 160, 0}";
}
);
layerId = master01;
paths = (
{
closed = 1;
nodes = (
"2120 911 LINE",
"2120 1001 LINE",
"1360 1001 LINE",
"1360 911 LINE"
);
},
{
closed = 1;
nodes = (
"2120 419 LINE",
"2120 509 LINE",
"1360 509 LINE",
"1360 419 LINE"
);
}
);
width = 1200;
},
{
components = (
{
name = numbersign;
transform = "{1, 0, 0, 1, 160, 0}";
}
);
layerId = "1F90C004-9C90-48FA-B407-176B3E9F1E65";
paths = (
{
closed = 1;
nodes = (
"2120 884 LINE",
"2120 1060 LINE",
"1360 1060 LINE",
"1360 884 LINE"
);
},
{
closed = 1;
nodes = (
"2120 358 LINE",
"2120 534 LINE",
"1360 534 LINE",
"1360 358 LINE"
);
}
);
width = 1200;
},
{
components = (
{
alignment = -1;
name = numbersign;
transform = "{1, 0, 0, 1, 160, 0}";
}
);
layerId = "8E053A5E-67DA-4970-A6F5-068DBFE5AD21";
paths = (
{
closed = 1;
nodes = (
"2120 860 LINE",
"2120 1110 LINE",
"1360 1110 LINE",
"1360 860 LINE"
);
},
{
closed = 1;
nodes = (
"2120 310 LINE",
"2120 560 LINE",
"1360 560 LINE",
"1360 310 LINE"
);
}
);
width = 1200;
}
);
}
{
glyphname = numbersign_middle.seq;
layers = (
{
layerId = master01;
paths = (
{
closed = 1;
nodes = (
"808 0 LINE",
"928 1420 LINE",
"838 1420 LINE",
"718 0 LINE"
);
},
{
closed = 1;
nodes = (
"1220 419 LINE",
"1220 509 LINE",
"-20 509 LINE",
"-20 419 LINE"
);
},
{
closed = 1;
nodes = (
"362 0 LINE",
"482 1420 LINE",
"392 1420 LINE",
"272 0 LINE"
);
},
{
closed = 1;
nodes = (
"1220 911 LINE",
"1220 1001 LINE",
"-20 1001 LINE",
"-20 911 LINE"
);
}
);
width = 1200;
},
{
layerId = "1F90C004-9C90-48FA-B407-176B3E9F1E65";
paths = (
{
closed = 1;
nodes = (
"846 0 LINE",
"966 1420 LINE",
"790 1420 LINE",
"670 0 LINE"
);
},
{
closed = 1;
nodes = (
"1250 360 LINE",
"1250 530 LINE",
"-50 530 LINE",
"-50 360 LINE"
);
},
{
closed = 1;
nodes = (
"410 0 LINE",
"530 1420 LINE",
"354 1420 LINE",
"234 0 LINE"
);
},
{
closed = 1;
nodes = (
"1250 890 LINE",
"1250 1060 LINE",
"-50 1060 LINE",
"-50 890 LINE"
);
}
);
width = 1200;
},
{
layerId = "8E053A5E-67DA-4970-A6F5-068DBFE5AD21";
paths = (
{
closed = 1;
nodes = (
"871 0 LINE",
"991 1420 LINE",
"748 1420 LINE",
"628 0 LINE"
);
},
{
closed = 1;
nodes = (
"1220 310 LINE",
"1220 558 LINE",
"-20 558 LINE",
"-20 310 LINE"
);
},
{
closed = 1;
nodes = (
"452 0 LINE",
"572 1420 LINE",
"329 1420 LINE",
"209 0 LINE"
);
},
{
closed = 1;
nodes = (
"1220 862 LINE",
"1220 1110 LINE",
"-20 1110 LINE",
"-20 862 LINE"
);
}
);
width = 1200;
}
);
}
